<svg id="圖層_1" data-name="圖層 1" xmlns="http://www.w3.org/2000/svg" viewBox="0 0 500 500"><defs><style>.cls-1{fill:#d8817c;}.cls-2{fill:#eaf0f9;}.cls-3{fill:#dfe6f3;}.cls-4{fill:#cfd7e9;}.cls-5{fill:#e0e1e2;}</style></defs><title>icon</title><path class="cls-1" d="M480,41.25H20.83a17,17,0,0,0-17,17v280.6H497V58.26a17,17,0,0,0-17-17Z"/><path class="cls-2" d="M3.82,338.86v25.51a17,17,0,0,0,17,17H480a17,17,0,0,0,17-17V338.86Z"/><polygon class="cls-3" points="318.44 449.4 182.39 449.4 190.89 381.37 309.93 381.37 318.44 449.4 318.44 449.4"/><polygon class="cls-4" points="312.06 398.38 309.93 381.37 190.89 381.37 188.76 398.38 312.06 398.38 312.06 398.38"/><path class="cls-3" d="M250.41,347.36a12.76,12.76,0,1,1-12.75,12.76,12.76,12.76,0,0,1,12.75-12.76Z"/><path class="cls-2" d="M326.94,457.9H173.88a8.51,8.51,0,0,1-8.5-8.5h0a8.51,8.51,0,0,1,8.5-8.51H326.94a8.51,8.51,0,0,1,8.5,8.51h0a8.51,8.51,0,0,1-8.5,8.5Z"/><path class="cls-5" d="M467.24,313.35H33.58a4.25,4.25,0,0,1-4.25-4.25V71a4.25,4.25,0,0,1,4.25-4.25H467.24A4.25,4.25,0,0,1,471.49,71V309.1a4.25,4.25,0,0,1-4.25,4.25Z"/></svg>