<svg id="圖層_1" data-name="圖層 1" xmlns="http://www.w3.org/2000/svg" viewBox="0 0 500 500"><defs><style>.cls-1{fill:#dcdee0;}.cls-2{fill:#fbe36a;}.cls-3{fill:#f7cc38;}.cls-4{fill:#e9eef2;}</style></defs><title>icon</title><path class="cls-1" d="M191.08,421.2l114.58.91-.39,49.1a16.36,16.36,0,0,1-16.49,16.24l-81.84-.64a16.37,16.37,0,0,1-16.24-16.5Zm0,0"/><path class="cls-2" d="M191.86,323l-.26,32.74,114.58.9.25-32.73c.33-40.92,82.42-73,83.2-171.23a139.13,139.13,0,0,0-278.26-2.19c-.71,90,80.81,131.59,80.49,172.51Zm0,0"/><path class="cls-3" d="M274.73,192.69A24.56,24.56,0,0,0,250,217.05a24.56,24.56,0,1,0-8.33,18.23l-1.08,137.21,16.37.12L258,235.41a24.55,24.55,0,1,0,16.71-42.72Zm0,0"/><rect class="cls-4" x="215.89" y="307.07" width="65.47" height="163.69" transform="translate(-142.23 634.48) rotate(-89.55)"/><rect class="cls-1" x="240.45" y="307.07" width="16.37" height="163.69" transform="translate(-142.23 634.48) rotate(-89.55)"/></svg>