<svg id="圖層_1" data-name="圖層 1" xmlns="http://www.w3.org/2000/svg" xmlns:xlink="http://www.w3.org/1999/xlink" viewBox="0 0 500 500"><defs><style>.cls-1{fill:none;}.cls-2{clip-path:url(#clip-path);}.cls-3{fill:#d8817c;}.cls-4{fill:#c15c59;}.cls-5{fill:#f1f2f2;}.cls-6{fill:#d1d3d4;}.cls-7{fill:#bcbec0;}</style><clipPath id="clip-path"><rect class="cls-1" x="8.26" y="8.01" width="483.49" height="483.49"/></clipPath></defs><title>icon</title><g class="cls-2"><path class="cls-3" d="M388.46,466.78l-38.74-55.91a588.44,588.44,0,0,0-68.08-81.7l-22.07-22a33.74,33.74,0,0,0-47.87,0l-6,5.92a33.83,33.83,0,0,1-47.78,0L110,265.31,265.57,109.78l47.79,47.87a33.83,33.83,0,0,1,0,47.78l-5.93,6a33.76,33.76,0,0,0,0,47.87l22,22.08a588.56,588.56,0,0,0,81.7,68.08L467,388.2a56.47,56.47,0,1,1-78.57,78.58Zm0,0"/><path class="cls-4" d="M474.86,474.6a57.56,57.56,0,0,0,7.53-9.38,56.47,56.47,0,0,1-77-15.33L366.67,394a593.07,593.07,0,0,0-68.14-81.64l-22.06-22.06a33.85,33.85,0,0,0-47.84,0l-6,6a33.82,33.82,0,0,1-47.84,0L127,248.37,265.54,109.78,110,265.28l47.84,47.85a33.84,33.84,0,0,0,47.85,0l6-6a33.84,33.84,0,0,1,47.85,0l22.06,22.05a592.73,592.73,0,0,1,68.14,81.67l38.74,56a56.47,56.47,0,0,0,86.37,7.76Zm0,0"/></g><path class="cls-5" d="M265.54,109.79,163.87,8.12,68.18,103.81,44.26,127.73,8.37,163.61,110.05,265.28Zm0,0"/><path class="cls-6" d="M25.32,146.63,127,248.28l-16.91,16.91L8.41,163.54Zm0,0"/><path class="cls-5" d="M439,455.63a16.92,16.92,0,1,1,16.91-16.92A16.92,16.92,0,0,1,439,455.63Zm0,0"/><path class="cls-6" d="M50.28,121.69,127,198.4l-12,12L38.32,133.65Zm0,0"/><path class="cls-7" d="M74.2,97.78,134,157.57l-12,12L62.24,109.74Zm0,0"/></svg>