<svg id="圖層_1" data-name="圖層 1" xmlns="http://www.w3.org/2000/svg" xmlns:xlink="http://www.w3.org/1999/xlink" viewBox="0 0 500 500"><defs><style>.cls-1{fill:none;}.cls-2{clip-path:url(#clip-path);}.cls-3{fill:#d8817c;}.cls-4{fill:#fcd178;}.cls-5{fill:#0067b5;}.cls-6{fill:#0075c0;}.cls-7{fill:#f29114;}.cls-8{fill:#0094d9;}.cls-9{fill:#e95057;}.cls-10{fill:#eb5e36;}.cls-11{fill:#f29227;}.cls-12{fill:#009ce0;}.cls-13{fill:#ea5c65;}.cls-14{fill:#ec6845;}.cls-15{fill:#e8434a;}.cls-16{fill:#757674;}.cls-17{fill:#cbcac7;}</style><clipPath id="clip-path"><rect class="cls-1" x="20.7" y="16.33" width="468.8" height="468.3"/></clipPath></defs><title>icon</title><g class="cls-2"><path class="cls-3" d="M72.41,395.11c100.68,125.77,292.5,114.57,378.52-18.33,33.19-51.26,2.18-114.61-50.3-129.33a206.31,206.31,0,0,1-90.15-52.65,205,205,0,0,1-52.67-90c-14.66-52.77-78.53-83.72-130-50.14C9,132.11-10,292.14,72.41,395.11"/><path class="cls-4" d="M255.56,484.63A225.07,225.07,0,0,1,164.21,465a234.88,234.88,0,0,0,192.57-4.87c-33.66,16.92-68,24.53-101.22,24.53M42.82,346.87c-27-56.61-31.57-124.55-.89-191.51a236,236,0,0,0,.89,191.51"/><path class="cls-3" d="M255,483.26A233.5,233.5,0,0,1,164.21,465,246.41,246.41,0,0,1,42.82,346.87a236,236,0,0,1-.89-191.51A260,260,0,0,1,54,132.21L90.22,96a26.09,26.09,0,0,1,18.52-7.69A26.4,26.4,0,0,1,128.27,97c9.39,10.58,8,27-2,37L47.11,213.09C38.19,222,39,236.17,48.06,245l.23.23.24.23a23.43,23.43,0,0,0,16.74,7.22,21.19,21.19,0,0,0,15.13-6.27L155.81,171a26.08,26.08,0,0,1,18.52-7.65,26.37,26.37,0,0,1,19.52,8.59c9.5,10.7,8.09,27.1-2,37.22L120.93,280a23,23,0,0,0,.12,32.7l.23.23,1,1.2a22.11,22.11,0,0,0,31.16,0l79.82-79.82a26.26,26.26,0,0,1,38,.95c9.39,10.58,8,27-2.14,37.09l-102.4,102.4a20.68,20.68,0,0,0,.95,30.2l1.31,1.32a21.56,21.56,0,0,0,15.52,6.52A21.89,21.89,0,0,0,200,406.4L321.71,284.69a26.2,26.2,0,0,1,37.58,36.51L255.46,425c-10,10-11.5,26.5-2,37a26.16,26.16,0,0,0,38,1L392.05,362.51a26.29,26.29,0,0,1,38.06.95c9.38,10.58,7.95,27-2,37l-43.25,43.25a259.66,259.66,0,0,1-28.05,16.41A234.75,234.75,0,0,1,255,483.26"/></g><path class="cls-5" d="M149.83,97.92a45.24,45.24,0,1,1-45.24,45.23,45.24,45.24,0,0,1,45.24-45.23Z"/><path class="cls-6" d="M137.88,109.81a21.39,21.39,0,1,1-21.4,21.39,21.39,21.39,0,0,1,21.4-21.39Z"/><path class="cls-7" d="M92.57,204.57a45.24,45.24,0,1,1-45.24,45.24,45.24,45.24,0,0,1,45.24-45.24Z"/><path class="cls-8" d="M149.83,320.73A45.24,45.24,0,1,1,104.59,366a45.24,45.24,0,0,1,45.24-45.24Z"/><path class="cls-9" d="M283.77,361.82a45.24,45.24,0,1,1-45.23,45.24,45.24,45.24,0,0,1,45.23-45.24Z"/><path class="cls-10" d="M391.18,285.8A45.24,45.24,0,1,1,345.94,331a45.23,45.23,0,0,1,45.24-45.23Z"/><path class="cls-11" d="M81,215.12a21.4,21.4,0,1,1-21.39,21.4A21.4,21.4,0,0,1,81,215.12Z"/><path class="cls-12" d="M139.89,330.07a21.41,21.41,0,1,1-21.41,21.41,21.41,21.41,0,0,1,21.41-21.41Z"/><path class="cls-13" d="M271.33,376.21a21.4,21.4,0,1,1-21.4,21.39,21.39,21.39,0,0,1,21.4-21.39Z"/><path class="cls-14" d="M381.62,301.86a21.41,21.41,0,1,1-21.41,21.41,21.41,21.41,0,0,1,21.41-21.41Z"/><path class="cls-9" d="M261.13,198.82a47.75,47.75,0,0,0-27.58,13.62c-31,31-.66,41.08-31.16,91,0,0,73.1-13.23,91-31.15A47.84,47.84,0,0,0,307,244.72l-45.89-45.9Z"/><path class="cls-15" d="M293.4,272.28A47.81,47.81,0,0,0,307,244.7L276.33,214c-7.63,5.19-19.87,16-19.87,33,0,24.61-54.07,56.39-54.07,56.39s73.1-13.24,91-31.16Z"/><g class="cls-2"><polygon class="cls-16" points="447.59 40 263.11 200.79 305.04 242.72 465.85 58.24 447.59 40 447.59 40"/><path class="cls-17" d="M486.35,19.48A10.72,10.72,0,0,0,471.7,19L445.53,41.79l18.52,18.52,22.81-26.16a10.76,10.76,0,0,0-.51-14.67Z"/></g><path class="cls-17" d="M316,236.28l-46.48-46.47a7.69,7.69,0,0,0-10.87,10.87l46.48,46.47A7.69,7.69,0,0,0,316,236.28Z"/></svg>