<svg id="圖層_1" data-name="圖層 1" xmlns="http://www.w3.org/2000/svg" viewBox="0 0 500 500"><defs><style>.cls-1{fill:#c15c59;}.cls-2{fill:#d8817c;}</style></defs><title>icon</title><path class="cls-1" d="M494.74,249.32A243,243,0,0,0,441,96.72L318.26,309.36h169a244.14,244.14,0,0,0,7.48-60Zm0,0"/><path class="cls-2" d="M336.4,220.71,420.83,74.49A244,244,0,0,0,213.57,8Zm0,0"/><path class="cls-1" d="M164.72,277.94,80.29,424.16A244.06,244.06,0,0,0,287.56,490.7Zm0,0"/><path class="cls-2" d="M232.42,338l84.5,146.36A245.28,245.28,0,0,0,478.07,338Zm0,0"/><path class="cls-1" d="M268.7,160.67,184.2,14.31A245.31,245.31,0,0,0,23.05,160.67Zm0,0"/><path class="cls-2" d="M152.33,242.17l30.53-52.88h-169A243.89,243.89,0,0,0,60.09,401.92Zm0,0"/></svg>