<svg id="圖層_1" data-name="圖層 1" xmlns="http://www.w3.org/2000/svg" xmlns:xlink="http://www.w3.org/1999/xlink" viewBox="0 0 1920 1080"><defs><style>.cls-1{fill:none;}.cls-2{fill:#b2b8d8;}.cls-2,.cls-3{opacity:0.39;}.cls-3,.cls-5{fill:#7d83b2;}.cls-4{fill:#393b4f;}.cls-6{fill:#60a5ae;}.cls-7{fill:#fff;}.cls-8{fill:#d8817c;}.cls-9{clip-path:url(#clip-path);}.cls-10{fill:#c15c59;}.cls-11{fill:#f1f2f2;}.cls-12{fill:#d1d3d4;}.cls-13{fill:#bcbec0;}.cls-14{clip-path:url(#clip-path-2);}.cls-15{fill:#fcd178;}.cls-16{fill:#0067b5;}.cls-17{fill:#0075c0;}.cls-18{fill:#f29114;}.cls-19{fill:#0094d9;}.cls-20{fill:#e95057;}.cls-21{fill:#eb5e36;}.cls-22{fill:#f29227;}.cls-23{fill:#009ce0;}.cls-24{fill:#ea5c65;}.cls-25{fill:#ec6845;}.cls-26{fill:#e8434a;}.cls-27{fill:#757674;}.cls-28{fill:#cbcac7;}.cls-29{fill:#eaf0f9;}.cls-30{fill:#dfe6f3;}.cls-31{fill:#cfd7e9;}.cls-32{fill:#dcdee0;}.cls-33{fill:#fbe36a;}.cls-34{fill:#f7cc38;}.cls-35{fill:#e9eef2;}.cls-36{fill:#e9b547;opacity:0.8;}.cls-37{fill:#aad0eb;}.cls-38{fill:#f3b8c8;}</style><clipPath id="clip-path"><rect class="cls-1" x="1426.73" y="184.63" width="142.81" height="142.81"/></clipPath><clipPath id="clip-path-2"><rect class="cls-1" x="1678.82" y="298.28" width="103.18" height="103.07"/></clipPath></defs><title>BG</title><rect class="cls-2" width="1924" height="1093"/><path class="cls-3" d="M1702,24s-46,2-91,42c-16.92,15-24,54-46,78-16.45,17.94-56,36-75,56s-34.49,53.49-58,77c-14,14-65.7,18.76-75,22-23,8-31,5-31,5s5.66,4.71,8,5c16,2,46,10,60,16,23.86,10.23,12,43,58,51,69.66,12.12,88.62-24.34,106-2,21,27,41.14,62.72,60,73,22,12,100.82-3.56,140-1,46,3,169,66,169,66l5-492Z"/><path class="cls-4" d="M1708-6s-46,2-91,42c-16.92,15-24,54-46,78-16.45,17.94-56,36-75,56s-34.49,53.49-58,77c-14,14-54,14-75,22-22.76,8.67-37,35-37,35l8,5s33-6,60,2c24.89,7.38,59.31,38.1,89,41,41,4,56.78-15.32,84-7,36,11,29,55,57,72,33.29,20.21,113.82,1.44,153,4,46,3,156,56,156,56l5-492Z"/><circle class="cls-5" cx="1474" cy="158" r="9"/><circle class="cls-5" cx="1535.5" cy="124.5" r="4.5"/><circle class="cls-5" cx="1667" cy="463" r="16"/><circle class="cls-5" cx="399" cy="975" r="16"/><circle class="cls-5" cx="1770" cy="636" r="16"/><circle class="cls-5" cx="1699" cy="443" r="7"/><path class="cls-5" d="M1541,372c-11.2,13.06-7.37,27.09-6,32,12,43,60,75,80,65,13-6.51,8.24-16.58,4-24-4-7-11.19-18.45-27-30a12.35,12.35,0,0,1-3.87-4.64c-2.44-4.62-1.32-12.27-10.13-31.36-5.62-12.18-15-15-21-15C1552.63,364,1547,365,1541,372Z"/><path class="cls-5" d="M1864.42,484.32c-3.34,16.88,7.17,27,10.5,30.82,8.48,9.85,53.82,46.56,98.77,14.31,4.42-3.17,1.87-15.5-5.47-19.88-6.92-4.13-18.81-10.57-38.26-12.86-9.42-1.11-6.65-7.73-29.88-24.47-10.88-7.85-25.17-1.88-25.17-1.88S1866.2,475.28,1864.42,484.32Z"/><path class="cls-5" d="M1451,173c2-7,10-9,11,1,.67,6.72-.17,18.32-3,25-11,26-22,34.57-34,40-11,5-19.79,6.07-27,4-3.12-.9-11-9-3-17,5.65-5.65,23.08-6.65,30-11C1435.1,208.65,1444.36,196.26,1451,173Z"/><path class="cls-6" d="M1220.91,546.24a99.52,99.52,0,1,1,82.28,114.18A99.52,99.52,0,0,1,1220.91,546.24Z"/><path class="cls-7" d="M1291,342c-3.09-3.71-9-9.56-8-13,2.19-9.49,1.88-12,4-21,4-17.15,6.5-14.31,22-21s28.56,14.22,33,31c3.9,9.78,12.22.31,11,14-.46,3.69,3.44,22.38,10,26,10.18,5.63,21.33,6.58,28,13,17.53,16.53,6,34.66,5,59-.43,9.82-2.4,19.91-2,31,.5,14-18.22,13.3-17,24,1.61,14.07-4.44,10.31-16,15-9.2,3.66-13.81,5.85-25,9-5.34,2.36-23,7-28,11-3.66,2.93-.57,9.44,1,13,2.32,6.21,6.37,14.85,6,21-1.83,30.12-7.75,48.41-5.34,71.2,1.16,12.27-3.57,20.45-.66,32.8,2.24,8,1.85,11.33-2,19-4.76,8.5-12.26,8.54-21,9-4.35-.21-20,5-20-5,0-6.64,12.06-8.73,14-13,6.59-10.15,2.72-8.77,5-20,1.32-9.53.13-20.47.58-30,.78-16.54-2.58-33-1.58-50,.86-14.58-7.09-35.65-10-48-2.94-11.48-4.53-8.19-13-5-12.68,4.79-10.46,21.65-15,33-8,20-5.18,38.48-14,59-3.93,9.41-5.16,28.3-3,38,2.12,10.57,8.47,14.49-4,20-6.21,2.33-5.57-2.11-11,2-3.68,4.19-14.65,15.64-20,18-7.13,3.15-12.06,9.91-16,1-3.9-9.78,1.28-14.38,6-22,7.5-11,19.38-19.79,20-33.71.5-10.44-.09-28.84,3-38.29,4-10.28,0-9,3-20,.92-3.36,3.34-9.3,3.5-12.78.29-6.09,3.94-9.41,6-15.42,3.89-8.53,1.73-18.23,2.14-26.93,1.78-19.11,8-35.55,27.39-39.87-1.06-2.63-.42-9.44-2-13-3.23-5.39-2.42-7.87-3-14a47.15,47.15,0,0,0-4-12c-1.58-3.56-4.68-5.36-8-9s-3.38-10.74-4-16c-.58-6.14-10-6,3-13,7.82-4.21-4.45-14.43-4-24,7.78-3.36,10.26-3.59,13.65-1.69,4.27,1.95,12.46,16.22,17.21,23.4,4.83-10.73,5.69-19.7,12.18-25.55,7-6.31,10.43-12.24,20.33-14.44,2.38-3.43,6.26-10.84.63-15.72"/><path class="cls-8" d="M1299.76,288.61c4.39.14,8.33-1.74,12.51-2.73a8.79,8.79,0,0,1,2.23-.28c.42,0,0,0,.25,0l.49.11a4.26,4.26,0,0,1,.47.15c.39.13-.29-.15.08,0a41.37,41.37,0,0,1,4.35,2.69c2.75,1.69,5.26-2.63,2.53-4.32a44.44,44.44,0,0,0-4.46-2.74,10,10,0,0,0-5.87-.74c-4.27.65-8.18,3-12.58,2.83-3.22-.1-3.21,4.9,0,5Z"/><path class="cls-8" d="M1349.65,322.57c1.14-4.82,1.43-9.91-.27-14.64s-4.75-8.6-8-12.28c-1.76-2-3.56-4-5.35-5.93a19.34,19.34,0,0,0-5.4-4.55c-5.37-2.67-10.56.05-15.85,1.46a22.17,22.17,0,0,1-8.55.34c-3.09-.37-6.08-.43-9,.8-5,2.08-7.21,7.18-11.55,10-2.26,1.48-4.65,2.83-6.27,5.06a11.48,11.48,0,0,0-2,7.34,36.63,36.63,0,0,0,1.48,7.53,24.5,24.5,0,0,1,1.25,6.66c0,3.18-1,6.29-1.4,9.44a18.78,18.78,0,0,0,1.46,10c2.36,5.24,7.52,7.34,12.13,10.16,2.75,1.68,5.27-2.64,2.52-4.32-3.33-2-7.54-3.51-9.6-7-2.76-4.59-1.27-9.48-.53-14.37a22.61,22.61,0,0,0,0-7.61c-.41-2.26-1.12-4.45-1.67-6.67a15.08,15.08,0,0,1-.63-5.91,6.74,6.74,0,0,1,3.31-4.53,35.11,35.11,0,0,0,6-4.41c1.63-1.68,3-3.6,4.74-5.19a9.11,9.11,0,0,1,6.35-2.37c2.73,0,5.41.72,8.15.59a29.71,29.71,0,0,0,7.68-1.62c2.3-.75,4.72-1.77,7.17-1.7,3.81.13,6.6,4.37,9,7.07,3.37,3.7,6.94,7.39,9.08,12,1.93,4.14,1.85,8.73.79,13.25-.74,3.13,4.08,4.46,4.82,1.32Z"/><path class="cls-8" d="M1323.58,331.42a86.38,86.38,0,0,0-4.31,15,13.75,13.75,0,0,0-.26,3.07,4.39,4.39,0,0,0,0,.81,1.09,1.09,0,0,1,.41-.91c-.31.29.53-.38.12-.12.52-.33.3-.1,0-.05l-.49.1c-.21,0,.27,0-.19,0-.31,0-.62.08-.93.08.25,0-.17,0-.35-.06a9.2,9.2,0,0,0-1.43-.47,2.59,2.59,0,0,0-3.08,1.75,2.53,2.53,0,0,0,1.75,3.08h.05l-1.5-1.15v0l.39-3c.07-.07,1.08-.56.72-.46-.15,0-.31.11-.46.16-.37.12-.73.23-1.1.33a4.75,4.75,0,0,0-.76.22s.74,0,.17-.08a6.27,6.27,0,0,0-.75,0c-1.18.05-2.36.17-3.55.19a13,13,0,0,1-1.65-.05,5,5,0,0,1-.85-.22c-2.86-1.47-5.4,2.85-2.53,4.32s5.88.85,8.84.75a9.84,9.84,0,0,0,2.59-.39,6.53,6.53,0,0,0,2.87-1.26,2.56,2.56,0,0,0,.39-3,2.59,2.59,0,0,0-1.55-1.18l-1.33,4.83a12.63,12.63,0,0,1,1.68.54,5.34,5.34,0,0,0,2.07.1,8.69,8.69,0,0,0,3.41-.76c1.85-1,2-2.79,2-4.66a16.56,16.56,0,0,1,.62-3.61c.3-1.38.6-2.76,1-4.12a62.55,62.55,0,0,1,2.83-8.45,2.5,2.5,0,0,0-1.75-3.07,2.55,2.55,0,0,0-3.07,1.74Z"/><path class="cls-8" d="M1328.49,335.18c.12,0,.24.1.36.13-.64-.17-.33-.14-.11,0l.63.34q.66.38,1.29.81c.82.56,1.62,1.15,2.49,1.63a8.71,8.71,0,0,0,3.68,1.11,7.79,7.79,0,0,0,4.08-1.07,2.52,2.52,0,0,0,.9-3.42,2.55,2.55,0,0,0-3.42-.9l-.44.23c-.4.2.39-.14.11-.05s-.49.15-.75.21.51,0,.21,0l-.31,0h-.38c-.11,0-.5-.06,0,0s.09,0,0,0l-.35-.1a5.49,5.49,0,0,1-.57-.2c.8.27.08,0-.13-.09s-.41-.23-.6-.35a28,28,0,0,0-5.31-3.05,2.52,2.52,0,0,0-3.08,1.74,2.56,2.56,0,0,0,1.75,3.08Z"/><path class="cls-8" d="M1348.23,329c.28-.35.66-.64.94-1,.16-.2-.08.06-.12.09a1.88,1.88,0,0,1,.23-.16c.2-.13.43-.23.63-.36s-.18.07-.21.08l.24-.08c.09,0,.47-.06.54-.13-.17.16-.52,0,0,0l.3,0c0,.15-.57-.24-.24,0s.23-.14,0-.05c.13,0,.55.45.26.11s.06.09.14.16l.16.18c-.19-.2-.22-.34-.06,0,0,.08.28.57.15.26s.1.35.12.43a4.26,4.26,0,0,1,.13.62c-.08-.5,0,.25,0,.4a11.43,11.43,0,0,1,0,1.17c0,.23,0,.47-.06.7s0-.14,0-.17l-.06.4a17.44,17.44,0,0,1-.69,2.67c-.08.23-.18.45-.26.68.15-.41,0,0-.07.16a12.84,12.84,0,0,1-.67,1.27,13.14,13.14,0,0,1-.72,1.11l-.18.24s.27-.3.08-.11-.35.41-.53.6c-.34.37-.72.69-1.09,1,.36-.32,0,0-.21.13s-.44.29-.67.42l-.62.31c-.42.21,0,0,.05,0l-.38.14a7.59,7.59,0,0,1-.78.22c-.15,0-1,.17-.36.09a2.57,2.57,0,0,0-2.5,2.5c.05,1.21,1.11,2.69,2.5,2.5a12.37,12.37,0,0,0,7.1-3.28,16.6,16.6,0,0,0,4-6.26c1.6-4.25,2.26-11.46-3.1-13.31-2.74-.94-5.7.61-7.41,2.72a2.55,2.55,0,0,0,0,3.53,2.53,2.53,0,0,0,3.54,0Z"/><path class="cls-8" d="M1296.53,357.63c.43.17-.45-.21,0,0l.38.19c.27.15.53.32.78.49s-.41-.36-.11-.09l.27.24c.18.17.35.36.52.55.32.37-.31-.44-.08-.11l.19.27c.13.2.25.4.36.61s.2.39.29.58l.16.34c.15.34-.25-.61-.07-.15.79,2,1.42,4,3,5.56a8.36,8.36,0,0,0,4,2.12,2.55,2.55,0,0,0,3.08-1.75,2.53,2.53,0,0,0-1.75-3.07,7.27,7.27,0,0,1-.8-.22c-.11,0-.62-.24-.18-.06s0,0-.14-.08-.39-.23-.58-.35.44.39.17.13l-.27-.25a2,2,0,0,1-.45-.5c.06.14.38.53.15.18l-.19-.29c-.23-.39-.4-.79-.6-1.19-.06-.14.26.63.1.22l-.12-.29-.24-.64c-.23-.6-.48-1.2-.73-1.79a11.21,11.21,0,0,0-1.75-2.81,9.8,9.8,0,0,0-4-2.64,2.51,2.51,0,0,0-3.07,1.75,2.56,2.56,0,0,0,1.74,3.07Z"/><path class="cls-8" d="M1338.59,342a37.8,37.8,0,0,1,.93,9.19,10.59,10.59,0,0,1-.52,4.41,13.7,13.7,0,0,1-2.59,3.89c-1.21,1.37-2.45,2.68-3.61,4.1a42.26,42.26,0,0,1-3.42,3.78,15.55,15.55,0,0,1-7,4.27c-3.21.78-6.77-.31-9.8-1.91-2.85-1.5-5.38,2.82-2.53,4.32,3.53,1.85,7.48,3.21,11.52,2.77a18.25,18.25,0,0,0,9.58-4.34c3-2.46,5.26-5.63,7.88-8.46,2.86-3.09,5.4-6.55,5.48-10.93a45.08,45.08,0,0,0-1.11-12.42c-.84-3.1-5.66-1.78-4.82,1.33Z"/><path class="cls-8" d="M1232.81,406.91c.44-11.08-4.77-21.36-5.93-32.23l-1.24,2.15a7.32,7.32,0,0,1,3.66-.35,15.28,15.28,0,0,0,4.53-.12,91.12,91.12,0,0,0,9-2.7l-3.07-1.74a22.7,22.7,0,0,0,1.91,4.42c1.09,2.19,2.25,4.35,3.4,6.51,1.3,2.46,2.61,4.92,3.87,7.41.6,1.17,1.2,2.36,1.77,3.55.24.51.48,1,.71,1.53.12.26.23.51.34.77s.35.83.14.31a18.53,18.53,0,0,1,.94,2.68c0,.14,0,.32.1.45s0-.67,0-.15.13-.56.05-.27.23-.5.19-.44.53-.56.26-.36a2.52,2.52,0,0,0,0,3.54,2.57,2.57,0,0,0,3.54,0c1.49-1.16.94-3.53.44-5a56.21,56.21,0,0,0-2.83-6.53c-2.48-5.07-5.24-10-7.82-15-.54-1-1.07-2.08-1.56-3.15-.1-.2-.18-.4-.28-.61-.23-.5.18.53,0,0a7.76,7.76,0,0,1-.3-.89,2.53,2.53,0,0,0-3.08-1.75c-1.53.53-3.07,1-4.61,1.46a36.27,36.27,0,0,1-4.49,1.28,28.11,28.11,0,0,1-4.3-.15,10.64,10.64,0,0,0-4.93,1.09,2.39,2.39,0,0,0-1.24,2.16,114.69,114.69,0,0,0,3.53,16.57c1.33,5.13,2.61,10.33,2.4,15.66-.13,3.22,4.87,3.22,5,0Z"/><path class="cls-8" d="M1257.2,403.76c9.73.43,19.31-1,29-1.39,4.73-.18,9.45-.62,14.17-.93a43.3,43.3,0,0,1,6.64,0,17.3,17.3,0,0,0,6.91-.4c3.06-1,1.75-5.79-1.33-4.82-2,.64-4.14.35-6.22.16a42.72,42.72,0,0,0-6.69.15c-4.66.31-9.31.73-14,.9s-9.31.74-14,1.07a126,126,0,0,1-14.54.3c-3.21-.14-3.21,4.86,0,5Z"/><path class="cls-8" d="M1311.12,399.32c3.69,5.91,5.38,12.83,6.94,19.54,1.61,6.87,2.88,13.9,5.48,20.49a2.56,2.56,0,0,0,3.07,1.74,2.51,2.51,0,0,0,1.75-3.07c-5.27-13.37-5.18-28.81-12.92-41.23-1.7-2.72-6-.21-4.32,2.53Z"/><path class="cls-8" d="M1329.42,471.51c.12.13.23.26.34.4l-.39-.51a8.17,8.17,0,0,1,1,1.81l-.25-.6c.37.88.62,1.79.9,2.7a19.77,19.77,0,0,0,1.34,3.31,2.52,2.52,0,0,0,3.42.89,2.56,2.56,0,0,0,.89-3.42c-.16-.32-.32-.64-.46-1l.25.6c-.48-1.17-.78-2.4-1.2-3.6A11.85,11.85,0,0,0,1333,468a2.52,2.52,0,0,0-3.54,0,2.56,2.56,0,0,0,0,3.54Z"/><path class="cls-8" d="M1235.32,430.83c1.46,5.56,3.11,11.07,4.75,16.58,1.27,4.27,2.72,8.54,3.59,12.91,1.21,6.1,1.57,13.94,6.61,18.35,3.19,2.79,7.15,3,11.21,2.94a165,165,0,0,0,16.76-1.34c2.74-.31,5.48-.61,8.22-.82s5.76-.23,8.64-.36c5.61-.25,11.21-.69,16.82-1.13,3.41-.26,6.86,0,10.29-.1,1.56,0,3.13,0,4.68-.17s3.16-.32,3.8-2.1a2.52,2.52,0,0,0-1.75-3.07,2.55,2.55,0,0,0-3.07,1.74v0l.64-1.11c.07-.07,1.16-.64.79-.52s.51,0,.07,0-1.09.09-1.63.12c-1.45.07-2.91.09-4.36.1-2.49,0-5-.09-7.49-.06-2.74,0-5.52.44-8.25.64s-5.42.38-8.13.53c-5.25.28-10.48.35-15.72.9s-10.7,1.27-16.09,1.58a72.85,72.85,0,0,1-7.68.1,7.1,7.1,0,0,1-3.66-1,7.23,7.23,0,0,1-2.14-2.28,13.39,13.39,0,0,1-1.56-3.69,86.55,86.55,0,0,1-1.93-9.32,127.13,127.13,0,0,0-3.49-13c-1.75-5.89-3.53-11.78-5.09-17.73-.82-3.11-5.64-1.79-4.82,1.33Z"/><path class="cls-8" d="M1290.52,355.89c-2.16,2.18-6.25,2.19-9.21,3.17a13.85,13.85,0,0,0-5.46,3.05,44.32,44.32,0,0,0-3,3.65,145,145,0,0,0-13,18.74,40.78,40.78,0,0,0-4.19,9.22c-.84,3.11,4,4.43,4.82,1.33a31,31,0,0,1,3.21-7.17c1.78-3.21,3.77-6.31,5.84-9.34s4.1-5.82,6.31-8.61q1.47-1.86,3-3.66a8.37,8.37,0,0,1,4-2.44c3.86-1.24,8.23-1.36,11.25-4.41,2.27-2.29-1.27-5.82-3.54-3.53Z"/><path class="cls-8" d="M1353.53,344.66c2.1,1.34,2.63,3.76,3.28,6.18.76,2.86,1.67,5.86,3.94,7.92,2.61,2.37,6.26,3.64,9.58,4.63s6.81,1.73,10.08,3a26,26,0,0,1,8.34,5.77,36.64,36.64,0,0,1,6.91,8.58,16.86,16.86,0,0,1,1.82,4.69,23.7,23.7,0,0,1,.2,5.71,102.73,102.73,0,0,1-1.63,12.71c-1.47,8.74-2.13,17.59-2.76,26.42-.32,4.52-.57,9.05-.71,13.58-.12,4.15-.14,8.3-.49,12.44a42.28,42.28,0,0,1-2.26,11.35,11.72,11.72,0,0,1-2.34,4.12,18.47,18.47,0,0,1-3.61,2.78,58.63,58.63,0,0,1-7.86,4.29,14.2,14.2,0,0,1-3.08,1c.43-.06,0,0-.18,0h-.39c.09,0,.38.13.21,0-.34-.25,0,0,0,0a1,1,0,0,1,.18.15c0-.25,0,.12,0,.15,0-.14-.09-.28-.12-.42.07.41,0-.24,0-.37,0-.91.1-1.84.16-2.75.12-1.81.29-3.62.45-5.43a50.55,50.55,0,0,0,.11-10.72,24.47,24.47,0,0,0-3.82-10.61c-1.84-2.77-4.41-4.31-7.25-5.9-.57-.32-1.14-.64-1.7-1-.13-.08-.57-.43-.24-.15-.17-.14-.58-.7-.2-.14-1.79-2.66-6.12-.16-4.32,2.53,1.58,2.36,4.69,3.36,7,4.86,2.61,1.7,4.19,4.88,5,8.12a32.33,32.33,0,0,1,.57,10.66c-.14,1.92-.33,3.83-.49,5.75a30.61,30.61,0,0,0-.27,5.32c.28,3,2.38,5.18,5.5,4.93,2.82-.22,5.46-1.58,8-2.82a44.2,44.2,0,0,0,8.73-5.55c3.06-2.56,4.6-6.27,5.63-10,2.34-8.54,1.85-17.59,2.23-26.35.41-9.33,1-18.73,2.13-28,.51-4.43,1.43-8.8,2.06-13.22s1.25-9.23.55-13.75a23.76,23.76,0,0,0-4.82-10.34,50.37,50.37,0,0,0-8.28-8.61,29.47,29.47,0,0,0-10.13-5.35c-3.54-1.1-7.19-1.83-10.65-3.17-2.82-1.09-5.19-2.48-6.1-5.15s-1.38-5.88-2.93-8.47a10.67,10.67,0,0,0-3.5-3.57c-2.72-1.73-5.23,2.59-2.52,4.32Z"/><path class="cls-8" d="M1354.26,472.15a16.08,16.08,0,0,0,6.11,9.13c3,2.16,6.6,3,10.17,3.47a2.5,2.5,0,0,0,2.5-2.5,2.59,2.59,0,0,0-2.5-2.5c-.53-.06.48.08-.2,0l-.65-.1-1.1-.22c-.73-.17-1.45-.36-2.16-.6a4.35,4.35,0,0,1-1.06-.39c.42.32.19.08,0,0l-.46-.22a13.33,13.33,0,0,1-1.85-1.11l-.2-.14.18.14c-.12,0-.29-.23-.38-.31-.27-.23-.54-.48-.79-.73s-.48-.53-.72-.8c-.37-.44.32.45,0,0l-.29-.42a14.5,14.5,0,0,1-1.11-2c-.26-.56.19.51,0-.08l-.19-.54c-.15-.44-.28-.88-.4-1.32a2.5,2.5,0,1,0-4.82,1.33Z"/><path class="cls-8" d="M1376.91,483.39a10.74,10.74,0,0,1,1.15,4.05,2.76,2.76,0,0,1-.79,2,8.09,8.09,0,0,1-2.76,1.75,34.68,34.68,0,0,1-3.79,1.22c-6.92,1.87-12.72,6.42-19.22,9.26a25.6,25.6,0,0,1-11.4,2.24c-3.21-.13-3.21,4.87,0,5,8.45.33,15.51-3.57,22.67-7.51a50.77,50.77,0,0,1,10.33-4.46c2.9-.85,6.1-2,8.08-4.4,2.89-3.5,1.88-7.89,0-11.64a2.51,2.51,0,0,0-3.42-.9,2.55,2.55,0,0,0-.89,3.42Z"/><path class="cls-8" d="M1293.49,487.75c1.56,1,3.7.58,5.4.3,2-.33,4-.85,6-1.25.42-.08.84-.16,1.26-.22-.53.08.42,0,.58,0,1.48-.11,3-.38,4.44-.48a34.73,34.73,0,0,1,8.76.46c2.74.51,5.29,1.52,8,2.24,2,.53,4,.7,6,1a27.25,27.25,0,0,1,3,.65c.22.06,1.13.38.94.29.14.07.3.14.44.22l.42.26a1.14,1.14,0,0,1,.29.29c-.2-.67-.25-.06-.07,0s0,.11-.07-.16a5.17,5.17,0,0,1,.18.51,20.83,20.83,0,0,1,.6,2.45,45.78,45.78,0,0,1,.77,6c.07.94.12,1.88.11,2.83,0,.34-.07.7,0,1,0,.17-.15.53,0-.27,0,.12,0,.24-.08.37a2.52,2.52,0,0,0,1.74,3.07,2.55,2.55,0,0,0,3.08-1.74,12,12,0,0,0,.21-4.26c-.11-2.17-.36-4.32-.68-6.47a23.15,23.15,0,0,0-1.17-5,7,7,0,0,0-4.58-4,34.85,34.85,0,0,0-6.56-1.33,46.91,46.91,0,0,1-6.59-1.71,43,43,0,0,0-9.47-1.77,62.54,62.54,0,0,0-9.51.48,47.33,47.33,0,0,0-6.47,1.11c-1.13.24-2.26.5-3.4.65.5-.07-.27,0-.3,0-.22,0-.43,0-.64,0-.43,0-.4-.2,0,0-.54-.38.27.21,0,0-2.73-1.73-5.24,2.59-2.53,4.32Z"/><path class="cls-8" d="M1294.75,488.09a30.56,30.56,0,0,0,10.22-3.55c1.47-.77,2.91-1.58,4.37-2.35.73-.39,1.47-.77,2.22-1.12a13.13,13.13,0,0,1,1.8-.74,2.56,2.56,0,0,0,1.74-3.08,2.51,2.51,0,0,0-3.07-1.74,64.5,64.5,0,0,0-8.8,4.3c-1.29.68-2.89,1.51-4,2a23.58,23.58,0,0,1-2.32.81c-.41.12-.82.23-1.24.32l-.55.11c-.06,0-.61.1-.32.06a2.59,2.59,0,0,0-2.5,2.5,2.52,2.52,0,0,0,2.5,2.5Z"/><path class="cls-8" d="M1330.57,471.09a22.83,22.83,0,0,0,7.37.56c1.8-.09,4.12-.45,5.63.37a42.87,42.87,0,0,1,4,2.94,11,11,0,0,0,5.71,2.05c2.64.19,3.18-3.39,1.26-4.65a50.66,50.66,0,0,0-9.43-4.93l-.66,4.91c.64,0,1.58.12,2,.17s1.66.27,2.42.46q.6.13,1.2.33l.63.22c.12.05.34.16.1,0,.18.08.34.19.52.27s.56.23.11,0a1.24,1.24,0,0,1,.29.27c-.34-.55,0,0,0,.08a2.52,2.52,0,0,0,3.42.9,2.56,2.56,0,0,0,.9-3.42c-1-1.95-3.34-2.87-5.31-3.41a30.45,30.45,0,0,0-6.29-.94,2.49,2.49,0,0,0-2.46,2.17,2.55,2.55,0,0,0,1.79,2.74,45.37,45.37,0,0,1,8.24,4.42l1.26-4.66a7.32,7.32,0,0,1-3.62-1.68,23.2,23.2,0,0,0-4.42-3c-4.19-1.86-9,.18-13.39-1-3.1-.87-4.43,4-1.33,4.82Z"/><path class="cls-8" d="M1375.55,486.84a6.75,6.75,0,0,0,2.17.86l-1.1-4.18c-1.59,1.83-3.91,2.62-6.08,3.56a2.48,2.48,0,0,0-1,3.12,2.53,2.53,0,0,0,3,1.45,21.48,21.48,0,0,0,6.54-2.1c2-1.16,1.28-4.91-1.26-4.66-5.34.52-9.57,4-14.32,6.11l2.53,4.32a59.37,59.37,0,0,1,8.11-3.6,2.5,2.5,0,0,0-1.33-4.82c-8,1.4-14.67,6.44-21.83,9.9-2.55,1.23-.76,5.41,1.93,4.57,7.37-2.31,13.52-7.76,21.2-9.11l-1.93-4.57c-4,2.05-8.18,3.91-12,6.35-2,1.25-1.35,4.85,1.26,4.66,6.07-.42,10.91-4.08,16.4-6.27a2.58,2.58,0,0,0,1.74-3.08,2.52,2.52,0,0,0-3.07-1.74,87.43,87.43,0,0,0-19.09,8.43l2.52,4.32a91.73,91.73,0,0,0,7.69-5.91c2.21-2-.6-5.14-3-3.93a130.63,130.63,0,0,0-14.8,8.89,2.51,2.51,0,0,0-1,3.12,2.48,2.48,0,0,0,3,1.45c3.58-1.33,6.82-4.08,7.89-7.85a2.53,2.53,0,0,0-3.67-2.82c-2.89,1.6-5.35,3.87-8.25,5.46l3.42,3.42c1.37-2.41,2.9-4.73,4.07-7.26s-1.76-5.06-3.92-3c-1.66,1.56-2.85,3.54-4.5,5.11l4.27,1.77c.16-2.85.77-5.64.93-8.48.14-2.47-3.52-3.41-4.66-1.26-1.79,3.36-1.59,7-2.33,10.61l4.57-.59c-2-3.38-2.55-7.36-4.28-10.86-1.24-2.5-5.59-.73-4.57,1.93,1.34,3.47,3.74,7,4.17,10.72l3.76-2.16a2.42,2.42,0,0,1-1.21-.93,7.14,7.14,0,0,1-.94-2,26,26,0,0,1-.94-4.68l-4.91.66a43.47,43.47,0,0,1,2.57,10.65h5l-1.14-9.64a2.58,2.58,0,0,0-2.5-2.5,2.53,2.53,0,0,0-2.5,2.5c-.14,3-.29,6-.43,9-.13,2.81,4.25,3.4,4.91.66,1.29-5.33,1-11.19,3.21-16.27h-4.32c2.22,3.06,2,7,2.3,10.57a2.56,2.56,0,0,0,2.5,2.5,2.52,2.52,0,0,0,2.5-2.5c-.28-5.52-.11-11.05-.82-16.54l-4.91.66c.8,5.37,1.15,10.8,2.44,16.09.68,2.83,4.78,2.09,4.91-.66.31-6.75.13-13.5-.11-20.25l-4.66,1.27c2.44,5,3.21,10.67,5.65,15.71,1.24,2.57,5.35.76,4.57-1.93-1.45-5-4.22-9.5-5.17-14.62l-2.41,3.16c-.58,0,.28.09.42.14-.45-.16.22.13.27.16a5.07,5.07,0,0,1,1.21.94,22.92,22.92,0,0,1,2.74,3.16c1.75,2.37,3.29,4.93,5.26,7.14s5.29-.61,3.93-3c-2.68-4.79-5.4-9.89-10.47-12.53a2.53,2.53,0,0,0-3.67,2.82c1.28,4.84,6,7.65,9.78,10.43l2.52-4.32a29.49,29.49,0,0,1-5.24-4.48,18.38,18.38,0,0,1-3.73-5.16l-3.67,2.82c4.45,2,7,6.73,10.73,9.73a2.5,2.5,0,0,0,3.93-3c-2.44-3.94-6.15-6.9-9.53-10l-3.54,3.53a52.59,52.59,0,0,0,10.29,7.3,50.54,50.54,0,0,0,5.62,2.53,16.72,16.72,0,0,0,5.07,1.4l-.67-4.91a44.43,44.43,0,0,0-7.54,1.78,2.51,2.51,0,0,0,.67,4.91c3.58.14,7.81,0,10.93-2a2.54,2.54,0,0,0,.5-3.93,5.33,5.33,0,0,0-2.65-1.78l.6,4.57c-.63.16-.54.16.26,0a3.54,3.54,0,0,0,.76-.3,2.88,2.88,0,0,0,1.22-1.7,2.52,2.52,0,0,0-1.75-3.08c-3.4-.49-6.59,1-9.47,2.68a79.08,79.08,0,0,0-7.74,5.37,2.58,2.58,0,0,0-.89,3.42,2.52,2.52,0,0,0,3.42.9,33.5,33.5,0,0,0,6.62-6,2.52,2.52,0,0,0-2.43-4.18c-4.75,1-8.4,4.41-12.61,6.61l3,3.92c2.3-2.52,5.46-4,7.76-6.55a2.51,2.51,0,0,0-3-3.93,97.81,97.81,0,0,0-9.84,5.39l3.42,3.42a26.84,26.84,0,0,1,6.37-6.21c2.54-1.87.37-5.87-2.53-4.32-2.6,1.4-5.21,2.79-7.66,4.43l3,3.93c1.93-2.27,4.45-4,6-6.63,1.24-2.07-.79-4-2.82-3.67-3.29.46-6.08,2.29-8.77,4.12l3.42,3.42c1.67-2.44,3.85-4.52,5.14-7.21.71-1.5-.1-4-2.16-3.76a12.89,12.89,0,0,0-6,2.51c-1.58,1.12-3.14,2.45-5,2.95l2.82,3.67a43.09,43.09,0,0,1,3.66-6.23,2.58,2.58,0,0,0,0-3.54,2.53,2.53,0,0,0-3.54,0c-1.7,2.12-2.88,4.6-4.58,6.71l3.93,3a47.62,47.62,0,0,0,4.38-8.92c.77-2-2-4-3.68-2.82a31.08,31.08,0,0,0-6.09,6l3.92,3a28.37,28.37,0,0,0,3.82-8.42c.59-2.24-2.54-4.48-4.18-2.43s-2.65,4.85-4.58,6.71l4.18,1.1c-.37-2.66-.31-5.36-.68-8-.35-2.5-4.28-2.26-4.82,0a45.28,45.28,0,0,0-1,8.61l4.91-.67a51.36,51.36,0,0,0-1.72-8.6l-4.57,1.93c.85,1.44,1.6,2.93,2.45,4.37l4.32-2.52a55.14,55.14,0,0,0-4.39-6,2.49,2.49,0,0,0-3.28-.2,2.54,2.54,0,0,0-.65,3.23,14.4,14.4,0,0,0,2.39,3.26l3-3.92c-1.09-.67-2-1.61-3.08-2.28-2.21-1.34-4.58,1.28-3.43,3.42a5.85,5.85,0,0,0,1.66,1.84c.29.22.58.44.89.64l.36.23c-.16-.14-.14-.12,0,.05a2.56,2.56,0,0,0,3.54,0l1.67-1.52-2.44.64c2.66.72,4.94,2.34,7.2,3.85l2.53-4.32a41.36,41.36,0,0,1-5.67-4.17l-1.77,4.27c2.24-.23,4.2,2.14,6,3.21l1.26-4.66c-1.17-.13-2.92-1.82-3.93-2.57l-1.92,4.57c2.13.59,3.74,2.14,5.62,3.24l2.53-4.32a8.82,8.82,0,0,0-3.9-1,2.53,2.53,0,0,0-2.41,1.84c-.1.43.3-.54.08-.16.07-.12.42-.46.12-.17.51-.5-.45.14.19-.09a8.14,8.14,0,0,1-.93.27l-.49.09c-.67.12.54,0-.18,0a36.73,36.73,0,0,1-5.55-.05c-3.35-.25-6.68-.88-10-1.06l.66,4.91a27.19,27.19,0,0,1,9.53-1.56c3.23.11,3.21-4.85,0-5-5.16-.25-10.6-.57-15.61,1a2.5,2.5,0,0,0-1.79,2.75,2.54,2.54,0,0,0,2.45,2.16c5.44.71,10.62-2.08,16-1.37l-2.16-1.24a2.25,2.25,0,0,1,.22.64c.13.48.16-.23,0,.13s0,.23,0-.17c-.09.25-.06.19.08-.19.31-.46,0-.1.4-.39-.55.37.29,0-.12.09l-.52.13c-.37.09.41,0-.3,0l-.74,0c-1.86,0-3.77-.44-5.61-.2a2.56,2.56,0,0,0-2.29,1.54,2.49,2.49,0,0,0,.52,2.73c4.14,3.77,9.68,4.51,14.67,6.61l.66-4.91c-3.34-.23-7-2.46-9.69-4.44l-2.53,4.32c4.3,2.39,8.69,4.6,13,7l1.26-4.66c-5.88.69-11.38-2.56-16.61-4.76l-1.92,4.56a61.62,61.62,0,0,1,13.52,5.22l1.26-4.66c-6.56,0-12.52-3.48-18.54-5.66a30,30,0,0,0-9.75-2.07,11.22,11.22,0,0,0-4.26.78c-1.21.49-2.34,1.19-3.54,1.63a2.51,2.51,0,0,0,.67,4.91c9.06.37,17.75-2.84,26.77-3,3.23-.06,3.2-4.85,0-5l-19.67-.93a2.53,2.53,0,0,0-2.5,2.5,2.56,2.56,0,0,0,2.5,2.5c10.26,1,21,1.62,31.06-.78a2.51,2.51,0,0,0,1.49-3.67c-1.54-2.19-3.66-3.62-5.47-5.54l-1.11,4.18a12.39,12.39,0,0,1,5.58.32l.67-4.91a11.74,11.74,0,0,1-7.14-2.35l-1.77,4.26c6-.13,11.39,3.09,17.25,4,2.36.35,4.29-2.23,2.43-4.18a14.73,14.73,0,0,0-5.23-3.5l-.66,4.91,4.25.2-1.26-4.66a5.77,5.77,0,0,1-2.51.55c-3.22-.06-3.22,4.94,0,5a11.56,11.56,0,0,0,5-1.23,2.5,2.5,0,0,0,1.15-2.82,2.57,2.57,0,0,0-2.41-1.84l-4.25-.2a2.49,2.49,0,0,0-2.46,2.17,2.55,2.55,0,0,0,1.79,2.74,9.18,9.18,0,0,1,3,2.21l2.43-4.17c-6.33-.94-12-4.28-18.58-4.14-2,0-3.5,2.81-1.77,4.27a17.29,17.29,0,0,0,10.68,3.82c2.86.16,3.33-4.15.66-4.91a18.17,18.17,0,0,0-8.23-.33c-1.94.36-2.3,2.92-1.11,4.18,1.49,1.58,3.43,2.75,4.7,4.53l1.49-3.67c-9.65,2.29-20,1.6-29.73.6v5l19.67.93v-5c-9,.15-17.73,3.36-26.77,3l.66,4.91c2.53-.92,4.18-2.32,6.9-2.21a29.47,29.47,0,0,1,9.12,2.29c6.1,2.34,12.05,5.4,18.74,5.42a2.52,2.52,0,0,0,1.26-4.66,67.47,67.47,0,0,0-14.71-5.72,2.51,2.51,0,0,0-2.95,1.45,2.46,2.46,0,0,0,1,3.12c6,2.54,12.36,6.24,19.13,5.45a2.61,2.61,0,0,0,2.41-1.83,2.54,2.54,0,0,0-1.15-2.82c-4.29-2.4-8.69-4.62-13-7-2.87-1.6-5.09,2.46-2.53,4.32,3.52,2.55,7.82,4.82,12.22,5.12a2.49,2.49,0,0,0,2.46-2.17,2.55,2.55,0,0,0-1.79-2.74c-4.09-1.72-9.08-2.25-12.47-5.33l-1.76,4.27c3.58-.47,10.18,1.92,11.61-3.09a6,6,0,0,0-.62-4.25c-1.09-2-4.06-1.75-6.07-1.54-4.09.42-8.11,1.94-12.26,1.4l.67,4.91c4.58-1.41,9.56-1,14.28-.8v-5a31.17,31.17,0,0,0-10.86,1.74,2.51,2.51,0,0,0,.67,4.91c3.82.2,7.59,1,11.42,1.14,3.2.17,9.22.46,10.19-3.67l-2.41,1.84a2.42,2.42,0,0,1,1.37.32c2.85,1.49,5.33-2.7,2.53-4.32-2.3-1.33-4.2-3-6.82-3.74a2.49,2.49,0,0,0-3,1.44,2.56,2.56,0,0,0,1,3.13c2,1.48,3.9,3,6.45,3.25s3.26-3.49,1.26-4.66c-2.72-1.6-5.11-4.24-8.55-3.89a2.56,2.56,0,0,0-2.29,1.54,2.49,2.49,0,0,0,.52,2.73,50.39,50.39,0,0,0,6.68,4.95c2.82,1.62,5.18-2.54,2.53-4.32a38.17,38.17,0,0,0-6-3.5,6.74,6.74,0,0,0-3.36-.89c-1.26.17-2.22,1.39-3.11,2.2h3.54c-.64-.6-1.8-1.07-2.17-1.74l-3.42,3.42c1.1.66,2,1.6,3.09,2.27,2.49,1.53,4.89-1.87,3-3.92a9.63,9.63,0,0,1-1.61-2.25l-3.93,3a45.31,45.31,0,0,1,3.61,5c1.79,2.64,6,.28,4.32-2.52-.85-1.44-1.6-2.94-2.46-4.38-1.4-2.37-5.49-.83-4.57,1.93a50.4,50.4,0,0,1,1.73,8.6,2.46,2.46,0,0,0,2.74,1.79,2.51,2.51,0,0,0,2.17-2.45,38.66,38.66,0,0,1,.82-7.28h-4.82c.37,2.66.31,5.36.68,8,.27,2,3,2.27,4.18,1.1,2-1.92,2.88-4.58,4.58-6.7l-4.18-2.44a24.44,24.44,0,0,1-3.31,7.23c-1.54,2.34,2.1,5.23,3.92,3a27.31,27.31,0,0,1,5.09-5.21l-3.68-2.82a40.77,40.77,0,0,1-3.87,7.73c-1.53,2.33,2.14,5.26,3.93,3s2.88-4.6,4.58-6.71l-3.54-3.54a49.56,49.56,0,0,0-4.43,7.24,2.53,2.53,0,0,0,2.82,3.68,16.65,16.65,0,0,0,5.35-2.82c1.25-.9,2.81-2.27,4.36-2.46l-2.16-3.77c-1.29,2.69-3.47,4.78-5.14,7.22-1.38,2,1.38,4.81,3.43,3.42,2.36-1.61,4.67-3.22,7.57-3.62l-2.82-3.68c-1.31,2.19-3.59,3.7-5.23,5.62a2.54,2.54,0,0,0-.19,3.29,2.47,2.47,0,0,0,3.22.64c2.46-1.64,5.07-3,7.67-4.43l-2.53-4.32a33.88,33.88,0,0,0-8.15,8c-1.45,2.11,1.36,4.66,3.42,3.42a94.81,94.81,0,0,1,9.84-5.39l-3-3.93c-2.3,2.53-5.46,4-7.77,6.56a2.51,2.51,0,0,0,3,3.92c3.81-2,7.14-5.16,11.42-6.1l-2.43-4.18a28.21,28.21,0,0,1-5.62,5.18l2.53,4.32c2.23-1.69,4.47-3.38,6.86-4.85a28.14,28.14,0,0,1,3.77-2,13.51,13.51,0,0,1,1.9-.59c.51-.11-.2,0,.34-.05.12,0,1.07,0,.48-.05l-1.74-3.07-.07.2L1375,483c.63-.19-.24,0-.54.06a3.77,3.77,0,0,0-1.07.46,2.53,2.53,0,0,0,.59,4.57c-.21-.18-.22-.18,0,0s.31.31.46.48l.5-3.93c-2.34,1.5-5.69,1.45-8.4,1.34l.66,4.91a44.43,44.43,0,0,1,7.54-1.78,2.47,2.47,0,0,0,1.79-2.74,2.51,2.51,0,0,0-2.45-2.17c-.09,0-.58-.09-.36,0s.13-.07-.29-.13l-.79-.25c-.77-.24-1.54-.52-2.3-.81a40,40,0,0,1-4.79-2.22,47.16,47.16,0,0,1-8.91-6.32c-2.39-2.14-5.92,1.35-3.54,3.53,3,2.78,6.56,5.45,8.75,9l3.93-3c-4.07-3.27-6.86-8.29-11.75-10.5a2.57,2.57,0,0,0-2.78.19,2.47,2.47,0,0,0-.89,2.63c2,5.19,6.66,9.64,11.27,12.63a2.5,2.5,0,0,0,2.52-4.32c-2.63-1.94-6.58-4-7.48-7.44l-3.67,2.83c4.27,2.23,6.42,6.7,8.67,10.73l3.93-3c-1.95-2.18-3.71-5.19-5.69-7.7s-4.39-5-7.75-5.3c-1.75-.14-2.68,1.71-2.41,3.17,1,5.12,3.72,9.65,5.17,14.62l4.57-1.92c-2.44-5-3.21-10.68-5.65-15.72-1.09-2.25-4.74-1.14-4.66,1.26.24,6.75.42,13.5.11,20.25l4.91-.67c-1.29-5.28-1.64-10.72-2.43-16.09-.41-2.76-5.27-2.13-4.92.67.71,5.49.54,11,.82,16.54h5c-.4-4.45-.23-9.3-3-13.1-1-1.34-3.48-1.89-4.32,0-2.46,5.59-2.3,11.63-3.71,17.48l4.91.66c.14-3,.29-6,.43-9h-5l1.14,9.64a2.58,2.58,0,0,0,2.5,2.5,2.51,2.51,0,0,0,2.5-2.5,48.36,48.36,0,0,0-2.75-12,2.53,2.53,0,0,0-2.74-1.79,2.47,2.47,0,0,0-2.17,2.46c.49,4.08,1.22,10.08,5.57,11.95,1.51.64,4,0,3.76-2.16-.5-4.37-2.8-8-4.34-12.05l-4.57,1.93c1.73,3.5,2.3,7.44,4.28,10.85,1,1.77,4.13,1.56,4.57-.6.62-3.08.31-6.57,1.82-9.42l-4.66-1.26c-.16,2.84-.77,5.63-.93,8.48-.13,2.25,2.77,3.18,4.26,1.76,1.66-1.56,2.84-3.54,4.5-5.11l-3.92-3c-1.18,2.52-2.7,4.85-4.07,7.26a2.52,2.52,0,0,0,3.42,3.42c2.89-1.6,5.35-3.86,8.25-5.47l-3.68-2.82a7.23,7.23,0,0,1-4.4,4.36l1.93,4.56a130.26,130.26,0,0,1,14.8-8.88l-3-3.93a78.88,78.88,0,0,1-6.68,5.13,2.58,2.58,0,0,0-.9,3.42,2.54,2.54,0,0,0,3.42.9,81.79,81.79,0,0,1,17.9-7.93l-1.33-4.82c-2.65,1.05-5.15,2.41-7.71,3.67a20.53,20.53,0,0,1-7.36,2.42l1.26,4.66c3.83-2.44,8-4.3,12-6.36a2.48,2.48,0,0,0,1-3.12,2.56,2.56,0,0,0-3-1.45c-7.73,1.37-13.82,6.81-21.2,9.12l1.92,4.57c6.79-3.28,13.07-8.07,20.64-9.4l-1.33-4.82a68.32,68.32,0,0,0-9.31,4.1,2.5,2.5,0,0,0,2.53,4.32c2.12-1,4.12-2.17,6.17-3.28a15.65,15.65,0,0,1,5.62-2.15l-1.26-4.66a17.42,17.42,0,0,1-5.35,1.6l1.93,4.57c2.57-1.12,5.19-2.17,7.08-4.34,1.09-1.26.92-3.88-1.1-4.18a2,2,0,0,1-1-.35c-2.83-1.55-5.35,2.76-2.53,4.31Z"/><path class="cls-8" d="M1254.25,482.06c.22-.05,1.21-.23.61-.15.46-.06.94-.09,1.41-.11a30.49,30.49,0,0,1,3.31.09,52.28,52.28,0,0,1,7,1,62,62,0,0,1,7.11,1.88c.46.16.92.32,1.38.5l.63.25c-.43-.18.12.05.27.12.33.16.65.32,1,.5l.4.24c.35.22.21.28,0,0a12.84,12.84,0,0,1,2.11,3.73c.64,1.9,1.11,3.85,1.8,5.73a2.59,2.59,0,0,0,3.07,1.75c3.77-.74,6.87-3.26,9.83-5.54a44.3,44.3,0,0,1,4.48-3.12c1.79-1,3.68-1.89,5.47-2.94,2.3-1.35,1.08-4.41-1.26-4.66-7.66-.81-14.53,2.9-21.67,5l1.93,4.56c4.52-3.07,9.05-6.11,13.73-8.93l-2.52-4.32a86.34,86.34,0,0,0-11,8.42l3.92,3a24.25,24.25,0,0,0,2.61-5.28l-4.92-.67q-.15,3.47-.32,6.91h5c0-1.26-.36-2.48-.36-3.74,0-2.86-4.1-3.35-4.91-.67-.58,1.94-1.15,3.88-1.87,5.77l4.91.66c.12-2.48,0-5.42-2.07-7.15a2.54,2.54,0,0,0-4.18,1.1c-.84,2.08-1.07,3.59.07,5.65,1.37,2.47,5.37.8,4.57-1.93a48.17,48.17,0,0,0-4.1-9.3l-3.42,3.42a10.51,10.51,0,0,1,2.59,1.89l2.43-4.18c-1.85-.63-3.27-2.49-4.54-3.89l-1.77,4.27c8.25.41,16.43,1.7,24.63,0a2.5,2.5,0,0,0-1.33-4.82,155.12,155.12,0,0,1-15.94,1.79,2.5,2.5,0,0,0,0,5c7.67.38,17.42,2.13,23.73-3.42,1.71-1.5.28-4.21-1.76-4.27-3.23-.1-6.39.71-9.62.61v5a8.63,8.63,0,0,0,1.44-.22c.12,0,1.19-.24.71-.21l-.67-4.91c-1.66.48-3.29,1.08-5,1.57a18.23,18.23,0,0,1-2.4.58,5.39,5.39,0,0,1-1.54,0c-1.39-.3-3.38.68-3.16,2.41.32,2.51-.2,4.94-.35,7.44s3.66,3.55,4.66,1.26c1.49-3.43,3.71-7.05,7.83-7.35l-1.26-4.65-3.27,1.44a2.48,2.48,0,0,0-1,3.12,2.54,2.54,0,0,0,2.95,1.45,20.54,20.54,0,0,1,4.07-.2c.67,0,1.34.08,2,.08a2.89,2.89,0,0,0,1.45-.33l.51-.4a.67.67,0,0,1-.68.25,2.58,2.58,0,0,0,2.5-2.5,2.51,2.51,0,0,0-2.5-2.5,5.05,5.05,0,0,0-2.86,1.22l1.77-.73a33.33,33.33,0,0,0-7.6.29l1.93,4.57,3.26-1.45c2.27-1,1.13-4.82-1.26-4.66-6,.43-9.86,4.58-12.15,9.82l4.66,1.27c.15-2.5.67-4.93.35-7.44l-3.17,2.41c3.94.83,7.85-1.11,11.55-2.18,2.63-.76,2.24-5.08-.66-4.91a7.07,7.07,0,0,0-1.44.22c-.12,0-1.19.23-.71.21a2.5,2.5,0,0,0,0,5c3.23.1,6.39-.71,9.62-.61l-1.77-4.27a9.6,9.6,0,0,1-4,1.84,25.19,25.19,0,0,1-5.41.6c-3.61.08-7.19-.3-10.79-.48v5a169.62,169.62,0,0,0,17.27-2l-1.33-4.82c-7.69,1.61-15.56.22-23.3-.16-2.28-.11-3.15,2.75-1.77,4.27,1.93,2.12,4,4.22,6.75,5.17,2.46.84,4.07-2.46,2.43-4.18a15.07,15.07,0,0,0-3.59-2.66,2.52,2.52,0,0,0-3.42,3.42,41.55,41.55,0,0,1,3.59,8.1l4.57-1.93a2.08,2.08,0,0,1-.22-.45c0,.1,0,.38.07.09.14-.46.39-1,.58-1.43l-4.18,1.1c.85.71.67,2.33.61,3.62a2.49,2.49,0,0,0,2.17,2.46,2.55,2.55,0,0,0,2.74-1.79c.72-1.89,1.29-3.83,1.87-5.77l-4.91-.66c0,1.26.37,2.48.36,3.74,0,3.23,4.85,3.2,5,0q.17-3.45.32-6.91a2.47,2.47,0,0,0-2.16-2.45,2.55,2.55,0,0,0-2.75,1.79,17.91,17.91,0,0,1-2.1,4.08c-1.7,2.42,1.92,4.85,3.93,3a79.45,79.45,0,0,1,10-7.63c2.69-1.74.26-6-2.52-4.32-4.68,2.82-9.22,5.87-13.74,8.94-2.25,1.53-.92,5.39,1.93,4.57,6.69-1.93,13.16-5.54,20.34-4.78l-1.27-4.66c-1.67,1-3.44,1.78-5.12,2.74a40.77,40.77,0,0,0-4.51,3.08c-2.7,2.08-5.5,4.61-9,5.27l3.08,1.75c-1.3-3.57-1.87-7.49-4.24-10.56a11.29,11.29,0,0,0-5.3-3.43A61.18,61.18,0,0,0,1260.7,477a22.35,22.35,0,0,0-7.78.25c-3.11.81-1.8,5.63,1.33,4.82Z"/><path class="cls-8" d="M1247.54,475.4c-5.69,2.77-12.45,4.18-15.72,10.31a2.52,2.52,0,0,0,3.42,3.42c2.67-1.53,5-3.65,7.73-5,3.21-1.6,6.53-.88,9.93-.65,2.66.17,3.15-3.37,1.26-4.66a11.12,11.12,0,0,0-6-1.64v5c3.2.13,6.39-.2,9.59-.07l-.67-4.91c-2.51.38-5,.75-7.51,1.24-2.86.56-2.06,4.82.66,4.91,4.88.16,9.58-1.61,14.45-1.45,3.22.11,3.22-4.89,0-5-4.88-.16-9.57,1.61-14.45,1.45l.67,4.91c2.49-.49,5-.86,7.51-1.24a2.47,2.47,0,0,0,1.79-2.74,2.51,2.51,0,0,0-2.45-2.17c-3.2-.13-6.39.2-9.59.07s-3.2,4.85,0,5a6.22,6.22,0,0,1,3.47,1l1.26-4.65a35.34,35.34,0,0,0-6.58-.29,17.2,17.2,0,0,0-5.23,1.32c-3,1.36-5.5,3.69-8.38,5.33l3.42,3.42c2.72-5.09,9.15-6.19,13.93-8.52a2.51,2.51,0,0,0,.9-3.42,2.54,2.54,0,0,0-3.42-.89Z"/><path class="cls-8" d="M1246.45,480.19a12.42,12.42,0,0,0,5.49,1.08,2.52,2.52,0,0,0,1.76-.73,2.58,2.58,0,0,0,.74-1.77,2.5,2.5,0,0,0-.74-1.77,2.68,2.68,0,0,0-1.76-.73c-.77,0-1.53-.07-2.29-.17l.67.09a6.32,6.32,0,0,1-1.62-.41l.6.26-.33-.16a2.57,2.57,0,0,0-1.92-.25,2.53,2.53,0,0,0-1.5,1.14,2.5,2.5,0,0,0,.9,3.42Z"/><path class="cls-8" d="M1338.13,501.21l.2.15c-.25-.19,0,0,.09.17,0,0-.22-.56-.1-.16-.14-.47,0-.43,0-.2,0,.52.13-.42,0-.11,0,.13-.08.28-.13.41.22-.59-.18.22-.3.41-.35.56.2-.23-.06.09l-.38.43c-.21.24-.44.47-.67.69-.47.45-1.45,1.27-1.68,1.44-1.26,1-2.59,1.84-3.93,2.69l-1.44.91q-.26.15-.51.33c-.39.26-1.23.72-.39.29-2,1.06-4,2.26-6.07,3.25-3,1.43-5.55,2.53-8.55,3.69-1.37.52-2.76,1-4.17,1.45a9.49,9.49,0,0,0-1.53.37c.59-.28.47,0,.08,0-.2,0-.21-.08.12,0,.77.28,1.23.2,1.78,1.61a2.58,2.58,0,0,0-3.08-1.75,2.52,2.52,0,0,0-1.74,3.08c1.26,3.22,5,1.8,7.42,1,3.56-1.23,7-2.73,10.47-4.29a50,50,0,0,0,7.63-3.93c.27-.19.55-.4.81-.62,0,0-.53.34,0,0s1.19-.75,1.78-1.12a55.85,55.85,0,0,0,4.76-3.35c3-2.32,7.11-7,3.15-10.45a2.56,2.56,0,0,0-3.54,0,2.51,2.51,0,0,0,0,3.53Z"/><path class="cls-8" d="M1305.89,518.51c-1.66,2.4-2.76,5-2.26,8,.4,2.39,1.8,4.54,2.74,6.74,2.51,5.85,5,11.63,5.71,18,.74,7-.25,14.2-1.19,21.12s-1.93,13.72-3.47,20.44c-.86,3.77-1.67,7.57-2.42,11.35a24.89,24.89,0,0,0-.39,3.21l-.06.9c0,.18-.14,1.64,0,.59-.06.4-.13.8-.21,1.19s-.55,1.51-.07.6l.9-.9,0,0,3,.39,0,0,.64,1.1c.17.85.07.34.08,0,.11-3.22-4.89-3.22-5,0a3.3,3.3,0,0,0,.77,2.42,2.49,2.49,0,0,0,3,.39c1.57-1.12,1.77-3.57,1.86-5.37a62.7,62.7,0,0,1,1.65-9.88c.74-3.45,1.63-6.86,2.24-10.34s1.17-7.14,1.71-10.72a155,155,0,0,0,2.18-21.71,50.2,50.2,0,0,0-4.06-19.51c-1.3-3.17-2.84-6.23-4.19-9.38a5.09,5.09,0,0,1-.57-2.68c0,.37,0-.22.06-.3.07-.25.13-.51.22-.75a12.52,12.52,0,0,1,1.44-2.44,2.54,2.54,0,0,0-.9-3.42,2.56,2.56,0,0,0-3.42.9Z"/><path class="cls-8" d="M1279.26,496a14.77,14.77,0,0,1-3.38,3.5,7.62,7.62,0,0,0-1.86,1.94,16.8,16.8,0,0,0-1.29,2.79c-1.33,3.51-1.49,7.41-1.62,11.13a50.31,50.31,0,0,0,.72,11.94c.76,3.78,2,7.44,3,11.14,2.25,7.85,2.85,16.09,3.52,24.2.7,8.56,1.17,17.14,1.81,25.7a282.09,282.09,0,0,0,3.3,28.56,2.52,2.52,0,0,0,3.07,1.75,2.56,2.56,0,0,0,1.75-3.08c-2.88-16.31-3.41-32.92-4.66-49.41-.31-4.13-.66-8.26-1.11-12.37a109.72,109.72,0,0,0-1.71-12.27c-1.65-7.31-4.88-14.38-4.87-22,0-4,0-8.2,1-12.05a14.89,14.89,0,0,1,.82-2.44,5.25,5.25,0,0,1,1.64-2,18.25,18.25,0,0,0,4.17-4.51c1.65-2.77-2.68-5.29-4.32-2.52Z"/><path class="cls-8" d="M1233.87,483.68a13.67,13.67,0,0,0-2.63,4,26,26,0,0,1-2.51,3.88,60.67,60.67,0,0,0-5.44,9.78,48.09,48.09,0,0,0-3.76,9.89,51.07,51.07,0,0,0-1,9.47,105.21,105.21,0,0,1-.47,10.66,59.88,59.88,0,0,1-2.73,11c-1.21,3.7-2.6,7.32-3.88,11a106.93,106.93,0,0,0-3.27,11.64,154.39,154.39,0,0,0-3.29,26c-.15,3.22,4.85,3.21,5,0a149,149,0,0,1,2.57-22.09,113.47,113.47,0,0,1,2.91-11.48c1.16-3.74,2.6-7.39,3.89-11.08a84.52,84.52,0,0,0,3.08-10.53,62.42,62.42,0,0,0,1.11-11.33c.07-3,.06-6.13.42-9.16a29.57,29.57,0,0,1,2.5-8.8,86.51,86.51,0,0,1,5.47-10.67c1-1.55,2.29-2.93,3.16-4.55.74-1.39,1.25-3,2.4-4.09,2.31-2.25-1.23-5.78-3.54-3.54Z"/><path class="cls-8" d="M1204.24,592.33c1,3.9,0,8.1-.84,11.94-1,4.13-1.84,8.26-2.6,12.42-1.67,9.08-2.27,18.43-5.22,27.23a26.47,26.47,0,0,1-3.67,7.51c-.06.09-.5.67-.36.49s-.26.32-.35.43c-.43.55-.88,1.09-1.32,1.63-.89,1-1.78,2.09-2.68,3.13-4.09,4.72-8.36,9.45-11.58,14.83-3,5-5.18,11.52-.8,16.47,2.14,2.41,5.66-1.14,3.54-3.54-.45-.5,0,0-.23-.27s-.27-.43-.4-.65l-.17-.33c0,.07.19.51,0,.08-.09-.26-.16-.52-.23-.79s-.11-.66-.06-.16c0-.25,0-.5,0-.75s0-.51,0-.77c0-.72-.07.15,0-.43a15.49,15.49,0,0,1,.4-1.63c.07-.25.15-.49.24-.73s.42-1.07.26-.69a28,28,0,0,1,1.85-3.51c3.11-5.12,7-9.41,11-14,1.77-2,3.54-4.1,5.15-6.29a29.79,29.79,0,0,0,3.84-7.72c3.11-8.67,3.77-18,5.33-27,.79-4.59,1.78-9.12,2.82-13.65,1.09-4.74,2.11-9.8.84-14.6-.83-3.11-5.65-1.79-4.82,1.33Z"/><path class="cls-8" d="M1207.66,591.08c3.29,3.41,8.73,3.49,12.91,4.13,5.09.78,10.71,2.19,15.52-.41,2.83-1.53.31-5.85-2.52-4.31-3.51,1.89-8.31.39-12-.15-1.88-.27-3.67-.46-5.52-.81s-3.68-.77-4.86-2c-2.24-2.32-5.77,1.22-3.53,3.53Z"/><path class="cls-8" d="M1300.76,370.6c2.81,5.78,5.7,11.53,8.23,17.43-.23-.54.18.46.23.61.15.37.28.75.41,1.13.31.84.6,1.69.93,2.53a17.74,17.74,0,0,0,2.7,5c3,3.59,7.42,2.53,10.54-.26,1.87-1.68,2.82-4,4.33-6,1.71-2.22,4.24-4,6.42-5.71,2.34-1.87,4.7-3.74,7-5.65,1.09-.9,2.15-1.85,3.2-2.8a3.21,3.21,0,0,0,1.44-2.4,5.67,5.67,0,0,0-.13-.93,2.51,2.51,0,0,0-.38-.79c-.5-.67-.52-.68-.06,0a2.53,2.53,0,0,0-3.08-1.74,2.56,2.56,0,0,0-1.75,3.07,2.72,2.72,0,0,0,.36,1,2.27,2.27,0,0,0,.26.35c.31.41.26.34-.13-.22l.64-2.43c-3.5,3.18-7.21,6.13-10.91,9.08a63.53,63.53,0,0,0-5.82,5.06c-1.62,1.65-2.55,3.77-3.94,5.59a7.23,7.23,0,0,1-2.71,2.16c.36-.15-1,.19-.34.09,0,0-.68,0-.28,0s-.07,0-.14-.05c-.27-.2.37.17,0,0a3.09,3.09,0,0,1-.42-.25c.44.28-.13-.15-.26-.27s-.2-.22-.29-.33c.33.4-.11-.17-.14-.22-1.5-2.43-2.13-5.17-3.37-8-2.57-5.92-5.45-11.71-8.27-17.52a2.5,2.5,0,1,0-4.32,2.52Z"/><path class="cls-8" d="M1272.85,369.23c.45,2.46-.09,5.06-.41,7.51a24.56,24.56,0,0,0,0,8c.89,4.68,3.84,8.55,5.42,13a2.5,2.5,0,0,0,4.82-1.33c-1.57-4.41-4.53-8.34-5.42-13a22.22,22.22,0,0,1,.2-7.09,26.09,26.09,0,0,0,.17-8.41,2.52,2.52,0,0,0-3.07-1.75,2.57,2.57,0,0,0-1.75,3.08Z"/><path class="cls-8" d="M1373.39,375.24a143.52,143.52,0,0,0-6.45,16.6,84.86,84.86,0,0,0-2.1,8.6c-.26,1.42-.45,2.83-.61,4.26-.2,1.67-.6,3.31-.74,5,0,.59-.06,1.19-.09,1.78,0,.29,0,.58,0,.87-.06,1,0,.32,0,.19-.34.9-1.16,2-1.55,3.09-.59,1.65-.27,3.73-.08,5.43.42,3.88,1.21,7.16,1.12,11.11a10.25,10.25,0,0,1-.31,2.71,6.26,6.26,0,0,1-.85,2.19,8.08,8.08,0,0,1-4.33,3.31,2.58,2.58,0,0,0-1.74,3.08,2.51,2.51,0,0,0,3.07,1.74c4.24-1.55,7.58-4.48,8.67-9,.94-3.94.34-8-.21-12a51.49,51.49,0,0,1-.59-5.29c0-.42,0-.83,0-1.25a4,4,0,0,0,0-.49c0-.49,0-.1,0,.07a21.61,21.61,0,0,0,1.66-3.38,17.47,17.47,0,0,0,.3-3.76c.09-1.46.42-2.88.62-4.32a83.67,83.67,0,0,1,1.72-9.17,119.46,119.46,0,0,1,6.9-18.88,2.58,2.58,0,0,0-.89-3.42,2.51,2.51,0,0,0-3.42.89Z"/><path class="cls-8" d="M1384.86,365.68a48.34,48.34,0,0,1-5.08,4.62,60.51,60.51,0,0,0-5.49,5,2.5,2.5,0,1,0,3.53,3.53,60.63,60.63,0,0,1,5.5-5,49.35,49.35,0,0,0,5.08-4.62,2.5,2.5,0,1,0-3.54-3.53Z"/><path class="cls-8" d="M1234.21,427.61a4.82,4.82,0,0,1-1.83-3.31c-.18-1.54,0-3.1-.17-4.64a16,16,0,0,0-2.71-7.16c-.63-1-1.29-2-1.89-3a9.87,9.87,0,0,1-1.21-2.56c0-.08-.16-.85-.13-.52s0-.41,0-.48c0,.58,0,0,.06-.12.23-.48-.24.27.08-.13.16-.23.16-.24,0,0,.1-.11.22-.22.33-.32-.35.22.34-.21.36-.21a7.92,7.92,0,0,1,2-.74c3.1-.86,1.78-5.69-1.33-4.82s-6.45,2.84-6.46,6.55c0,2.75,1.59,5.26,3,7.49.7,1.1,1.44,2.18,2,3.32.14.27.29.55.41.83-.23-.53.07.27.1.37a8.55,8.55,0,0,1,.4,2.19,51.47,51.47,0,0,0,.3,5.41,9.25,9.25,0,0,0,3.11,5.37,2.57,2.57,0,0,0,3.54,0,2.54,2.54,0,0,0,0-3.54Z"/><path class="cls-8" d="M1307.29,450.48c-.55,2.83-.71,5.83.82,8.4,1.32,2.22,3.52,3.7,5.54,5.21,2.52,1.87,5,4.09,7.72,5.62a12.23,12.23,0,0,0,5.25,1.5,33.3,33.3,0,0,1,5,.46c3.13.72,4.47-4.1,1.33-4.82a28.27,28.27,0,0,0-5-.56,8.46,8.46,0,0,1-3.7-.72,53.5,53.5,0,0,1-7-5.05l-1.49-1.11c-.55-.41-.73-.54-1.13-.87s-.76-.63-1.12-1l-.48-.49s-.48-.6-.17-.18a5.7,5.7,0,0,1-.66-1.11c.22.48,0-.12-.06-.24s-.12-.45-.16-.67c.09.48,0-.23,0-.34,0-.27,0-.54,0-.82a11.32,11.32,0,0,1,.23-1.91,2.56,2.56,0,0,0-1.75-3.08,2.53,2.53,0,0,0-3.07,1.75Z"/><path class="cls-8" d="M1311.09,450.65a65.93,65.93,0,0,1,6.36-3.15,32.48,32.48,0,0,0,4.4-2.95,9.68,9.68,0,0,1,3.73-1.72,20.32,20.32,0,0,1,6.82-.48c4.69.39,8.25,3.28,12.41,5.11a42.94,42.94,0,0,0,11,3.08c2,.29,4,.53,6,.87.83.14,1.67.3,2.48.52a8.94,8.94,0,0,1,1,.32c-.53-.21,0,0,.21.18a2.52,2.52,0,0,0,3.42-.9,2.56,2.56,0,0,0-.9-3.42,9.7,9.7,0,0,0-3.89-1.34c-1.78-.35-3.58-.58-5.38-.83a45.14,45.14,0,0,1-11.29-2.76,65.31,65.31,0,0,1-6-3.19,22.13,22.13,0,0,0-7.47-2.46c-4.42-.61-9.56-.29-13.52,2-1.55.89-2.85,2.16-4.4,3.08-2.4,1.42-5.11,2.21-7.46,3.74-2.68,1.75-.18,6.08,2.53,4.32Z"/><path class="cls-8" d="M1306.3,360.16c.19,1.19.46,2.37.63,3.56l-.09-.66a8.85,8.85,0,0,1,.06,2.3l.09-.67a4.79,4.79,0,0,1-.3,1.17l.26-.6c-.07.15-.14.3-.22.44a2.55,2.55,0,0,0,.9,3.42,10.8,10.8,0,0,0,5.2,1.26,7.92,7.92,0,0,0,5.29-1.83,2.51,2.51,0,0,0,0-3.54,2.56,2.56,0,0,0-3.53,0l-.2.17.5-.39a3.8,3.8,0,0,1-.86.48l.6-.25a5.83,5.83,0,0,1-1.42.37l.66-.09a9,9,0,0,1-2.32,0l.67.09a8.65,8.65,0,0,1-2.07-.54l.59.25c-.2-.09-.39-.18-.59-.29l.9,3.42a8,8,0,0,0,.85-4.7c-.17-1.58-.53-3.12-.78-4.69a2.44,2.44,0,0,0-1.14-1.49,2.48,2.48,0,0,0-3.42.89,2.87,2.87,0,0,0-.26,1.93Z"/><path class="cls-8" d="M1315.27,369.76a9.13,9.13,0,0,0,3.12-.43c.93-.3,1.82-.72,2.71-1.1l-.59.25a10.58,10.58,0,0,1,1.9-.63,2.34,2.34,0,0,0,1.3-.9,2.55,2.55,0,0,0,.54-1.51,8.4,8.4,0,0,0,0-1.42,8.12,8.12,0,0,0-.2-1.2,13.63,13.63,0,0,0-.53-1.33,2.48,2.48,0,0,0-1.49-1.14,2.5,2.5,0,0,0-3.08,1.74l-.09.67a2.53,2.53,0,0,0,.34,1.26l0,.11-.25-.59a4.61,4.61,0,0,1,.34,1.15l-.09-.67a8.42,8.42,0,0,1,0,1.42l1.83-2.41a19.13,19.13,0,0,0-3.43,1.28l.6-.25a9.72,9.72,0,0,1-2.48.74l.67-.09a6.55,6.55,0,0,1-1.17.05,2.52,2.52,0,0,0-2.5,2.5,2.55,2.55,0,0,0,2.5,2.5Z"/><path class="cls-8" d="M1320.78,355.58c3,1.12,6.09.14,8.55-1.69,1.19-.88,2.29-1.86,3.41-2.82l.73-.61a1.8,1.8,0,0,0,.37-.3l-.14.11.12-.09a11.49,11.49,0,0,1,1.6-1,2.53,2.53,0,0,0,.9-3.42,2.57,2.57,0,0,0-3.42-.9,17,17,0,0,0-3.21,2.25c-1,.81-1.93,1.63-2.88,2.46-.23.2.43-.32.06-.05l-.38.28q-.37.27-.78.51a7.67,7.67,0,0,1-.8.43c-.08.05-.48.25-.11.06s-.09,0-.18.06c-.26.08-.52.13-.78.2-.49.12.55,0,.08,0h-.44l-.46,0c-.48,0,.55.14,0,0a9.72,9.72,0,0,1-1-.29,2.52,2.52,0,0,0-3.08,1.75,2.56,2.56,0,0,0,1.75,3.07Z"/><path class="cls-8" d="M1299.22,355.41a13.55,13.55,0,0,0,6.87,2,2.5,2.5,0,0,0,0-5c-.44,0-.89-.06-1.33-.11l.67.09a11.18,11.18,0,0,1-2.67-.7l.6.25a9.6,9.6,0,0,1-1.61-.87,2.5,2.5,0,0,0-3.67,2.82,2.75,2.75,0,0,0,1.14,1.5Z"/><path class="cls-8" d="M1280.16,335c0,.08,0,.16,0,.24.11.43-.06-.71,0-.31,0,.17,0,.35,0,.53,0,.43,0,.86,0,1.3-.05,1-.14,2-.18,3a15.23,15.23,0,0,0,.2,3.37,4.81,4.81,0,0,0,1.56,2.9,2.69,2.69,0,0,0,1.76.74,2.54,2.54,0,0,0,1.77-.74c.82-.89,1.11-2.68,0-3.53l-.17-.15c-.32-.25.17.16.18.27,0-.07-.39-.79-.15-.21s0-.14-.06-.27-.14-.85-.07-.31,0,.08,0,0,0-.25,0-.38,0-.46,0-.69c0-.48,0-1,0-1.45.1-1.84.45-3.83,0-5.65a2.5,2.5,0,1,0-4.82,1.33Z"/><path class="cls-8" d="M1292.63,325.8a12.71,12.71,0,0,1,3.17-2.28l-2.52-4.31c-4.23,3-6.42,8.2-7.78,13s-2.25,10.21-1,15a2.52,2.52,0,0,0,4.56.59c.62-1.05,1.63-2.11,1.81-3.36a2.59,2.59,0,0,0-1.75-3.08,2.52,2.52,0,0,0-3.07,1.75c0,.19-.06.26.05.05a6.49,6.49,0,0,1-.39.62c-.33.5-.66,1-1,1.5l4.57.6a7.59,7.59,0,0,1-.36-2.25,24.43,24.43,0,0,1,0-3.2,33.79,33.79,0,0,1,1.18-6.61,29.81,29.81,0,0,1,2.41-6.26,25.75,25.75,0,0,1,1.42-2.29,12,12,0,0,1,1-1.13c.17-.17.35-.33.53-.48.4-.35-.24.16.21-.17a2.5,2.5,0,0,0-2.52-4.31,16.48,16.48,0,0,0-4.18,3.06c-2.39,2.17,1.16,5.69,3.53,3.53Z"/><path class="cls-8" d="M1290.9,330.54a2.71,2.71,0,0,0,4.18,2.25,4.76,4.76,0,0,0,2.21-2.93l-4.91-.67c0,.36,0,.71-.09,1.06a5.2,5.2,0,0,0-.12.66c-.14.72-.32,1.42-.52,2.12-.41,1.44-.9,2.86-1.36,4.28a26.6,26.6,0,0,0-1.58,9.46,2.53,2.53,0,0,0,4.27,1.77,5.56,5.56,0,0,0,1.54-3.86,2.5,2.5,0,0,0-5,0c0,.12,0,.24,0,.35s0,.16,0-.07-.11.09-.06,0l4.27,1.77a15.25,15.25,0,0,1,.33-4.27,45,45,0,0,1,1.25-4.4,35.45,35.45,0,0,0,2.09-8.91,2.5,2.5,0,0,0-4.91-.66c-.06.39.23-.43.09-.13-.06.11-.31.5,0,0a1.14,1.14,0,0,1-.25.24c.29-.2.36-.25.21-.16-.35.21,0,.14.94-.23l1.26.34,0,0,.9.89,0-.06.34,1.26v-.1a2.57,2.57,0,0,0-2.5-2.5,2.52,2.52,0,0,0-2.5,2.5Z"/><path class="cls-8" d="M1295.92,329.36c0,.32,0,.64-.07,1s0,.33,0,.08l-.09.5c-.12.69-.27,1.37-.43,2.06-.34,1.4-.74,2.79-1.1,4.19a29.36,29.36,0,0,0-1.23,9.12,2.53,2.53,0,0,0,4.27,1.76,5.49,5.49,0,0,0,1.54-3.86,2.5,2.5,0,0,0-5,0c0,.14,0,.29,0,.43,0-.28,0-.32,0-.14s0,.14,0-.07.13-.13-.1.11l4.26,1.77a24.63,24.63,0,0,1,1.2-8.35,43,43,0,0,0,1.73-8.56,2.52,2.52,0,0,0-2.5-2.5,2.55,2.55,0,0,0-2.5,2.5Z"/><path class="cls-8" d="M1301.75,327.55c-2.49,7.06-4.94,14.18-5.35,21.72a2.47,2.47,0,0,0,2.17,2.45,2.53,2.53,0,0,0,2.74-1.79,98.54,98.54,0,0,0,5.19-19.64,2.52,2.52,0,0,0-1.45-2.94,2.47,2.47,0,0,0-3.12,1c-2.72,6.37-5.16,13.19-4.79,20.22.11,2.05,2.72,3.45,4.27,1.77,4.94-5.35,6.76-12.52,9.31-19.15l-4.82-1.33c-1.12,7.57-5.59,14.12-6.71,21.69a2.51,2.51,0,0,0,4.57,1.93c3.31-4.7,2-10.67,4.51-15.64,2.28-4.44,6.06-8.49,10.89-10.11l-3.07-3.07c-1.34,4-3.48,7.73-5.26,11.58a37.16,37.16,0,0,0-3.8,13.51c-.15,2.63,3.38,3.2,4.66,1.26,4.73-7.16,7.88-15.26,13.12-22.1l-4.32-2.52c-3.2,7-7.32,13.43-9.73,20.74-.78,2.37,2.51,4.23,4.18,2.43,5.07-5.46,8.09-12.73,10-19.83.74-2.65-3.3-4.54-4.57-1.93-2.45,5.06-4.66,10.23-7.11,15.29l2.82-1.15c-.52-.1-.31-.27-.1.05-.18-.28-.46,0-.18-.08.18.14.2.15.07,0s-.12-.12.16.21c-.35-.56.19.4,0,0a2.13,2.13,0,0,1-.1-.42c.22.68,0,.17,0-.11s0-.34,0-.51c0-.72-.06.19,0-.26a19.85,19.85,0,0,1,.79-3,31,31,0,0,1,1.21-3.06c1.68-3.75,3.88-7.23,5.6-11a2.51,2.51,0,0,0-3.92-3,43.74,43.74,0,0,0-9.34,11.45,89.18,89.18,0,0,0-6.65,13.78c-1,2.62,3.41,4.51,4.57,1.93,1.35-3,2.39-6.15,4-9s-2.75-5.35-4.32-2.53a44.27,44.27,0,0,0-4.26,10.35l4.91.67c.07-.74.87-1.59,1.24-2.22l-4.66-1.26-.1,2.13a2.53,2.53,0,0,0,3.17,2.41,13,13,0,0,0,4.2-2,15.43,15.43,0,0,1,3.08-1.93l-3.16-2.41-.27,5.67c-.11,2.35,2.72,3.05,4.27,1.77.9-.75,2-1.23,2.93-2l-3.93-.51-.07-.61.34-1.27a4.71,4.71,0,0,0-.58,1.37c-.28,1.44.66,3.34,2.41,3.17a4.16,4.16,0,0,0,1.73-.46l.68-.52c-.24.14-.23.15,0,0l-1.26.34.27,0-.67-4.91c-.26.1-.77.12-.26.17-.38,0-.06.05-.42-.14a4.37,4.37,0,0,1-1.23-1.09,19.61,19.61,0,0,1-2.11-3.09l-.4,3a17.06,17.06,0,0,1,3.92-3l-3-3.92a31.89,31.89,0,0,1-3.61,3.46c.33-.25-.38.26-.45.3-.24.15-.48.29-.74.42.53-.26-.14,0-.29.08-.44.2.31,0,.08,0-.4-.09-.1,0,.09,0-.4-.15.09.07.14.1s-.45-.34-.19-.08c.11.11-.24-.3-.11-.11a6.44,6.44,0,0,1-.91-2.27,9,9,0,0,1-.39-2.2c0-.29,0-.58,0-.87,0-.71-.07.31,0-.13,0-.19.06-.38.1-.58a24.77,24.77,0,0,1,4.1-8.64,63.18,63.18,0,0,1,7.1-8.72,46.19,46.19,0,0,1,8-6.93c2.71-1.73.21-6.05-2.52-4.32-9.71,6.16-14.72,16.64-22.26,24.93l3.93,3a90.8,90.8,0,0,1,11.07-16.7,2.57,2.57,0,0,0,0-3.54,2.51,2.51,0,0,0-3.53,0,96.16,96.16,0,0,0-11.86,17.72c-1.22,2.41,1.92,5.23,3.92,3,7.18-7.89,12-18.3,21.25-24.15l-2.52-4.32a49.42,49.42,0,0,0-8.56,7.25,69.45,69.45,0,0,0-8.6,10.6c-2.1,3.22-4,6.83-4.54,10.69-.48,3.64.7,9.61,4.69,10.94s7.69-2.95,10.09-5.49a2.51,2.51,0,0,0-3-3.92,21.5,21.5,0,0,0-4.92,3.73,2.52,2.52,0,0,0-.39,3c1.92,3.21,5.21,8.15,9.67,6.45a2.53,2.53,0,0,0,1.79-2.75,2.46,2.46,0,0,0-2.45-2.16,3.92,3.92,0,0,0-1.74.46l-.67.52c.24-.15.23-.16,0,0l1.26-.34-.26,0,2.41,3.16c0,.23-.08.1,0-.1a2.73,2.73,0,0,0,.38-1.33,2.91,2.91,0,0,0-.61-1.91,2.55,2.55,0,0,0-3.92-.51c-.91.75-2,1.23-2.94,2l4.27,1.77.27-5.67a2.53,2.53,0,0,0-3.17-2.41c-2.67.86-4.55,3.28-7.28,3.92l3.16,2.41.1-2.13c.12-2.52-3.44-3.33-4.66-1.26a11.07,11.07,0,0,0-1.92,4.74c-.28,2.83,4.22,3.34,4.91.66a38.85,38.85,0,0,1,3.76-9.15l-4.32-2.53c-1.59,2.9-2.62,6-4,9.05l4.57,1.92a82.77,82.77,0,0,1,6.14-12.59,39.89,39.89,0,0,1,8.56-10.43l-3.92-3c-1.44,3.11-3.27,6.05-4.77,9.14-1.65,3.44-3.89,7.72-3.52,11.67a4.83,4.83,0,0,0,3.78,4.59,2.56,2.56,0,0,0,2.82-1.15c2.45-5.06,4.67-10.22,7.12-15.28l-4.57-1.93c-1.72,6.25-4.29,12.8-8.77,17.63l4.18,2.43c2.27-6.89,6.21-13,9.23-19.55a2.5,2.5,0,0,0-4.32-2.52c-5.24,6.84-8.39,14.94-13.12,22.1l4.66,1.26c.49-8.66,6.23-15.75,8.88-23.76a2.52,2.52,0,0,0-3.08-3.08,24.9,24.9,0,0,0-13.32,11.38,22.38,22.38,0,0,0-2.84,8.62c-.35,2.85-.52,5.62-2.23,8l4.57,1.93c1.12-7.57,5.59-14.12,6.71-21.69a2.5,2.5,0,0,0-4.82-1.33c-2.21,5.76-3.73,12.29-8,16.95l4.26,1.76c-.32-6.12,1.73-12.14,4.11-17.7l-4.57-1.92a98.62,98.62,0,0,1-5.19,19.63l4.91.67c.38-7,2.84-13.79,5.17-20.39a2.5,2.5,0,1,0-4.82-1.33Z"/><path class="cls-8" d="M1323.19,310.21a5.65,5.65,0,0,0,1.55-3.86,2.53,2.53,0,0,0-2.5-2.5c-5.72-.2-10.77,3.2-14.74,7a80,80,0,0,0-11.25,14.34c-1.51,2.31-2.94,4.65-4.44,7l4.57,1.93c1.4-6.51,5.32-11.92,9.76-16.71,4.65-5,9.87-9.43,14.56-14.38a2.52,2.52,0,0,0-2.44-4.18c-5.28,1.2-9.67,5.17-13.19,9.1a93.18,93.18,0,0,0-10.51,14.73q-2.13,3.6-4.06,7.32c-.9,1.72.64,4.55,2.82,3.67,6-2.44,9.38-8.27,12.85-13.39.74-1.1,1.53-2.26,2.32-3.22a24,24,0,0,1,3.93-3.6,93.78,93.78,0,0,1,9.73-6.4l-3-3.93c-8,6.64-13.42,15.53-20.27,23.19l3.93,3c7.12-10.62,16.79-19.21,25.14-28.82a2.52,2.52,0,0,0-2.44-4.18c-5.77,1.12-10.86,4.75-15.24,8.51a100.85,100.85,0,0,0-13.07,13.94q-3,3.76-5.8,7.69c-1.71,2.4,1.92,4.86,3.93,3,10.36-9.49,17.35-22.44,29.34-30.15a2.51,2.51,0,0,0-1.92-4.57c-7.23,1.41-13.42,6.45-18.53,11.48a155.83,155.83,0,0,0-14.07,16.6c-1.72,2.25,2,5.1,3.93,3,7.83-8.57,14.65-18,23.24-25.89,1.86-1.7-.09-4.86-2.44-4.18-6.58,1.92-12.13,6.66-16.84,11.48a119,119,0,0,0-12.88,16c-1.19,1.73.8,4.43,2.82,3.67,5.87-2.2,10.07-7.45,13.63-12.37s6.56-10.23,9.72-15.43a2.52,2.52,0,0,0-3.42-3.42c-4.82,2.8-8.8,7-12.29,11.28a101.2,101.2,0,0,0-9.65,14.18c-1.36,2.41,2,5.18,3.93,3a239.9,239.9,0,0,0,20.79-26.53c1.25-1.82-.81-4.26-2.82-3.67-4.57,1.36-8.39,4.94-11.65,8.27a88.13,88.13,0,0,0-9.17,11.14c-1.44,2.06,1.37,4.73,3.42,3.42,7.68-4.94,12.21-13,18.45-19.42,1.4-1.45.48-4.46-1.77-4.27-5,.41-9.18,4.49-12.51,7.92-3.59,3.69-6.76,7.74-10,11.71a2.5,2.5,0,0,0,3.53,3.54c7.2-5.87,13.25-13.27,18.4-21,1.46-2.18-1.34-4.55-3.42-3.42-8.29,4.5-16,11-20.93,19.12a2.54,2.54,0,0,0,.39,3,2.6,2.6,0,0,0,3,.39c6.86-3.15,11-10.6,15.13-16.55,1.47-2.14-1.37-4.61-3.42-3.43-6.11,3.51-10.4,9.2-14.67,14.64a2.54,2.54,0,0,0-.2,3.28,2.48,2.48,0,0,0,3.23.64c4.92-3.76,10.41-8.86,11.73-15.19a2.54,2.54,0,0,0-2.41-3.17c-13.46.22-16.46,18.32-17,28.61a47.61,47.61,0,0,0,.14,8,2.53,2.53,0,0,0,3.16,2.41c6.1-1.91,8-9.51,11.34-14.18l-4.57-1.92c-1.1,7-5.56,13-5.27,20.3a2.51,2.51,0,0,0,4.65,1.26c2.23-3.44,3.14-7.43,4.79-11.13l-4.66-1.27c-.21,3.39-1.69,7-1.92,10.56-.16,2.5,3.5,3.39,4.66,1.27,3.48-6.4,3.09-14,3.41-21a2.5,2.5,0,0,0-2.17-2.46,2.53,2.53,0,0,0-2.74,1.79c-1.53,4.08-1.85,8.42-2.73,12.65h4.82c-.51-3.54-.41-7.14-.92-10.69a2.46,2.46,0,0,0-2.74-1.79,2.51,2.51,0,0,0-2.17,2.45c0,.95-.09,1.89-.13,2.84a2.53,2.53,0,0,0,3.16,2.41c7.12-1.19,12.1-7.74,17-12.44,5.66-5.44,13.41-7.66,19.58-12.38a2.55,2.55,0,0,0,0-4.32c-9.49-6.56-20.29,4.21-26.37,10.64-1.71,1.8-3.36,3.66-5.1,5.45-2.25,2.31,1.18,5.71,3.54,3.53a76,76,0,0,0,6.27-6.79c1.88-2.22,3.81-4.81,6.21-6.49,4.7-3.29,10.34-4.47,15.76-6l-2.43-4.18c-2.29,2-5.83,3.38-8.89,4.44-3.39,1.17-6.86,2.1-10.28,3.19l1.92,4.57c5.91-4,12.42-8.22,19.76-8.6,2.25-.12,3.69-3.56,1.26-4.66a17.87,17.87,0,0,0-13.79-.36c-4.41,1.59-8.35,4.12-12.45,6.34-2.45,1.32-.78,5.51,1.93,4.57,7-2.44,13.94-5.11,21-7.54a2.5,2.5,0,0,0-1.33-4.82,49.8,49.8,0,0,1-8.8.56,63.2,63.2,0,0,0-9.72.69,2.5,2.5,0,0,0,.66,4.91l3.54.18c2.76.13,3.49-4.51.67-4.92-12.6-1.8-20.31,10.11-24.07,20.46a50.9,50.9,0,0,0-2.31,8.59l.64-1.1a5.9,5.9,0,0,0-1.54,3.86,2.45,2.45,0,0,0,1.53,2.28,2.61,2.61,0,0,0,2.74-.51c.94-.76,1.85-1.14,2.12-2.46a2.57,2.57,0,0,0-1.74-3.08,2.53,2.53,0,0,0-3.08,1.75c.09-.42,1-1,.13-.49a7.76,7.76,0,0,0-1,.74l4.27,1.77a.91.91,0,0,1,.14-.41c0-.32-.24.32-.08.09a4.87,4.87,0,0,0,.87-2.25c.25-1.22.54-2.43.88-3.63a48.55,48.55,0,0,1,2.68-7.37c2.15-4.62,5.1-9.32,9.37-11.85a10.09,10.09,0,0,1,3.52-1.41,10.69,10.69,0,0,1,3.57-.15l.66-4.91-3.54-.18.67,4.92c6.13-1,12.39-.09,18.52-1.26l-1.33-4.82c-7,2.43-13.94,5.1-21,7.53l1.92,4.57c6.14-3.32,13.89-9.3,21.2-6l1.26-4.65c-8.3.44-15.56,4.73-22.28,9.28-2.23,1.51-.92,5.48,1.93,4.57,3.65-1.17,7.36-2.15,11-3.43s7.44-2.85,10.41-5.48c1.9-1.7-.12-4.83-2.44-4.18-5.82,1.63-11.91,3-16.95,6.49-5.33,3.72-8.75,9.69-13.5,14.07l3.54,3.53c4-4.13,7.72-8.58,12.24-12.22a31,31,0,0,1,3.47-2.41,14.07,14.07,0,0,1,3.46-1.58l.88-.23c.09,0,1-.16.59-.11a9.63,9.63,0,0,1,1.86,0c.18,0,.16,0,0,0a4.1,4.1,0,0,1,.48.1c.33.09.65.17,1,.29l.11,0,.47.24c.32.18.63.38.93.59v-4.32c-6.26,4.79-14,7.09-19.88,12.5-2.51,2.31-4.77,4.87-7.3,7.16-2.36,2.13-5,4.12-8.19,4.66l3.17,2.41c0-.95.09-1.89.13-2.84l-4.91.67c.51,3.54.41,7.14.92,10.69.35,2.47,4.33,2.31,4.82,0,.89-4.23,1.2-8.57,2.73-12.65l-4.91-.66c-.28,6.07.28,12.95-2.73,18.47l4.66,1.26c.21-3.39,1.7-7,1.92-10.56.15-2.38-3.64-3.53-4.66-1.26-1.65,3.69-2.57,7.71-4.78,11.14l4.66,1.26c-.27-6.71,4.07-12.48,5.1-19a2.51,2.51,0,0,0-4.57-1.93,81.14,81.14,0,0,0-4.19,7.16,21.68,21.68,0,0,1-2,3,8.41,8.41,0,0,1-1.23,1.23,8.62,8.62,0,0,1-.95.49l3.17,2.41a43.3,43.3,0,0,1-.21-6.34c0-1.35.12-2.7.25-4,.14-1.54.25-2.48.47-3.79a46.23,46.23,0,0,1,2.11-8.43,20.72,20.72,0,0,1,1.55-3.41c.29-.52.6-1,.94-1.53l.41-.58c-.17.22.12-.15.16-.19l.37-.43a13,13,0,0,1,1.42-1.36c-.39.32.39-.26.53-.35s.49-.29.74-.42l.38-.19c.61-.29-.47.15.18-.07.31-.1.61-.2.93-.28.13,0,1.06-.19.52-.13.38,0,.76-.06,1.14-.07l-2.41-3.16c-1,5-5.54,9.23-9.44,12.2l3,3.93c4-5.06,8-10.58,13.66-13.85l-3.42-3.42c-3.64,5.27-7.26,12-13.34,14.76l3.42,3.42c4.54-7.36,11.59-13.23,19.14-17.32l-3.42-3.42a90.5,90.5,0,0,1-17.61,19.94l3.53,3.54c3.06-3.71,6-7.49,9.33-11a45.72,45.72,0,0,1,5.28-4.92,19.35,19.35,0,0,1,2.73-1.73c.09,0,.72-.31.27-.13.18-.07.36-.14.53-.19s.42-.12.63-.18c.63-.18-.24,0,.24,0l-1.77-4.27c-5.88,6.08-10.2,14-17.44,18.64l3.42,3.42a79.53,79.53,0,0,1,8.15-9.87,48.24,48.24,0,0,1,4.94-4.54,21.07,21.07,0,0,1,2.5-1.69,8.61,8.61,0,0,1,2.25-1l-2.83-3.67a230.15,230.15,0,0,1-20,25.51l3.93,3a94.11,94.11,0,0,1,8.86-13.16c3.22-4,6.83-7.91,11.28-10.51l-3.42-3.42c-3,4.9-5.79,9.88-9.09,14.56a52.94,52.94,0,0,1-5.54,6.77,25.69,25.69,0,0,1-2.76,2.47,16.87,16.87,0,0,1-1.66,1.08c-.23.13-.47.26-.71.37l-.48.23q.3-.13-.12,0l2.83,3.68a111.92,111.92,0,0,1,11.83-14.75c4.16-4.3,9-8.76,14.9-10.46l-2.43-4.18c-8.59,7.86-15.41,17.32-23.24,25.88l3.93,3a149.18,149.18,0,0,1,13-15.32c4.61-4.57,10-9.18,16.6-10.46l-1.93-4.57c-12.42,8-19.64,21.12-30.36,30.93l3.93,3a146.87,146.87,0,0,1,10.09-12.71c4-4.41,8.29-8.72,13.34-11.89a22.18,22.18,0,0,1,7.69-3.24l-2.43-4.18c-8.63,9.95-18.55,18.84-25.92,29.83-1.57,2.35,2,5.15,3.92,3,6.86-7.66,12.32-16.54,20.28-23.18,2.2-1.84-.64-5.36-3-3.93A101,101,0,0,0,1310,309a31.36,31.36,0,0,0-4.48,3.8,38.64,38.64,0,0,0-2.73,3.53c-1.73,2.47-3.3,5.07-5.15,7.45-1.53,1.95-3.51,4.14-5.65,5l2.82,3.67a123.67,123.67,0,0,1,10.54-17.08,50.62,50.62,0,0,1,7-7.7,17.1,17.1,0,0,1,7.24-4.07l-2.43-4.18c-9.49,10-22.53,19-25.6,33.3a2.51,2.51,0,0,0,4.57,1.92c2.72-4.19,5.3-8.47,8.25-12.51,3.07-4.21,6.65-8.55,11-11.26a14,14,0,0,1,3.31-1.58,8.66,8.66,0,0,1,3.5-.47l-2.5-2.5c0,.48.08.15-.08.32-2.21,2.34,1.32,5.88,3.53,3.54Z"/><path class="cls-8" d="M1330.22,297.21c4,5.17,8,10.8,9.85,17.15l4.18-2.43c-2.19-2.07-3.45-4.95-4.82-7.6a31.79,31.79,0,0,0-5.78-8.53c-2-1.92-5.48.57-3.93,3,4.41,7,9,14,11.47,22l4.57-1.92c-3.86-5.78-5.58-12.56-8.34-18.86-1.15-2.63-5.33-.75-4.57,1.93,2.05,7.2,5,14.11,6.08,21.59l4.82-1.33c-2.55-6.66-3.44-14.32-7.85-20.13a2.51,2.51,0,0,0-4.57,1.93c1.82,7.25,4.26,14.33,6.08,21.59l4.18-2.44c-5.25-5.15-6.9-12.74-10-19.16-1.08-2.2-4.81-1.16-4.66,1.27.47,7.53,4.24,14,6.94,20.87a2.58,2.58,0,0,0,3.08,1.74,2.53,2.53,0,0,0,1.75-3.07c-1.72-6.83-4.23-13.41-6.15-20.18-.75-2.64-5.06-2.22-4.91.67.43,8.36,4.09,15.93,6.81,23.71l4.57-1.93q-3.86-8.7-7.7-17.41a2.52,2.52,0,0,0-4.32,0c-1.67,3.63-1.14,7.8,0,11.54a26.43,26.43,0,0,0,5.24,10.18c1.74,2,4.72-.14,4.18-2.43a142.47,142.47,0,0,0-4.9-16.57,2.58,2.58,0,0,0-2.41-1.83,2.52,2.52,0,0,0-2.41,1.83c-1,5.12.81,10.06,2.2,14.93.88,3.09,5.69,1.78,4.82-1.33-1.17-4.14-2.28-8.54-4.68-12.17a2.54,2.54,0,0,0-4.57.6c-1.1,3.32.69,6.84,2,9.82,1.16,2.62,5.35.75,4.57-1.93a44.43,44.43,0,0,0-2.14-5.66c-.91-2-4-1.3-4.57.6a23,23,0,0,0-.44,10.54l4.82-1.33c-.58-2.93-1.15-6-3.14-8.32a2.5,2.5,0,0,0-3.92.51,10.49,10.49,0,0,0-1.23,7.56,2.5,2.5,0,0,0,4.82-1.33c-.55-2.9-.57-5.85-1.72-8.6a2.54,2.54,0,0,0-4.57-.6c-1.58,2.27-1.93,4.87-2.06,7.57h5a15.65,15.65,0,0,0-1.53-6.29,2.51,2.51,0,0,0-2.82-1.15,2.62,2.62,0,0,0-1.84,2.41,6,6,0,0,1-.47,1.41,8.76,8.76,0,0,0-.4,2.1c-.28,2.82,4.27,3.38,4.91.66.74-3.15,3.11-6.48,6.48-7.09l-3.07-1.75a5.21,5.21,0,0,1-.73,3.72,2.53,2.53,0,0,0,2.16,3.76l4.25.2-2.41-1.84c1.05,2.58.37,5.19.22,7.87-.09,1.48,1.69,3,3.16,2.41a14.82,14.82,0,0,0,4-1.92c1.78-1.48.2-4.18-1.77-4.27l-2.84-.13a2.51,2.51,0,0,0-2.15,3.76,26.75,26.75,0,0,0,7,6.87l2.53-4.32a12.81,12.81,0,0,0-5.48-1.25c-2.53-.13-3.34,3.44-1.27,4.65,1.06.62,2.12,1.63,3.37,1.8l-.6-4.56a2.94,2.94,0,0,1-1.11.28c-1.05.2.18-.24-.08.07-.22-.21-.24-.24-.07-.08a.7.7,0,0,1,.13.24l-3.17,2.41a20.26,20.26,0,0,1,4.82,1.69,6.49,6.49,0,0,0,5.45,0c1.84-.8,3.31-1.93,3.68-4a12.42,12.42,0,0,0,.16-1.35c.06-.69,0,.18.06-.36,0-.23.17-.22,0-.11s-.29.4-.44.54-.17-.09,0,0c-.15-.09.37,0,.56,0l-2.41-3.16c-.13.71-.67,1.33-.81,2.09h4.83c-.45-3.29.41-6.68.59-10h-5c0,.71-.07,1.42-.1,2.13h5c.27-6.44-.8-12.82-1.22-19.23l-4.91.67c.56,2.63,1.69,5.21,1.63,7.93l4.27-1.77c-3.16-3.57-3.89-8.81-5.73-13.08a18,18,0,0,0-1.61-3.11c-1-1.43-2.92-1.46-4.51-1.64-2.52-.3-5.28-.18-7.66-1.21l-1.26,4.66c.94.06,2.27.67,3.43.39,1.49-.36,2.32-1.58,3.05-2.84l-4.66-1.26a11.49,11.49,0,0,0,2.56,8.24l1.1-4.18c-3.33,1-5.64,3.58-4.78,7.2l3.07-3.08c-.23,0-.7-.6-1-.88a2.51,2.51,0,0,0-3.29-.19,2.55,2.55,0,0,0-.64,3.22c.71,1.66,1.18,3.41,1.89,5.06a2.51,2.51,0,0,0,3.42.9,2.56,2.56,0,0,0,.9-3.42c-.71-1.65-1.19-3.4-1.89-5.06l-3.93,3a6.07,6.07,0,0,0,3.16,2.16,2.53,2.53,0,0,0,3.08-3.07c-.12-.5-.05-.39-.07-.21.05-.49-.06-.06.1-.21a3.17,3.17,0,0,1,1.26-.63,2.54,2.54,0,0,0,1.1-4.18c-1.09-1.25-1.15-3.1-1.09-4.7.08-2.5-3.45-3.38-4.66-1.27-.14.25-.28.5-.44.73s.15.07-.1.14c.28-.08.48-.33.82-.38.18,0,.74.12.43,0a9.11,9.11,0,0,0-2.87-.49c-2.38-.16-3.55,3.67-1.26,4.66,3.84,1.66,7.88,1.27,11.86,2.2l-1.49-1.15c3.43,5.45,3.75,12.26,8.12,17.21,1.49,1.69,4.22.29,4.27-1.77.07-3.2-1.16-6.18-1.81-9.26-.58-2.73-5.1-2.16-4.91.66.42,6.41,1.49,12.79,1.22,19.23-.14,3.22,4.84,3.2,5,0,0-.71.07-1.42.1-2.13.15-3.22-4.82-3.2-5,0-.21,3.82-.93,7.47-.42,11.3.33,2.43,4.41,2.34,4.83,0,.12-.72.67-1.34.8-2.09a2.54,2.54,0,0,0-2.41-3.17c-2.11-.05-4.14.74-4.88,2.88a8.46,8.46,0,0,0-.34,2.12c0,.55.09-.26-.07.39-.09.35-.06,0,0-.07-.32.21,0-.1.12-.12s-.31.16-.41.22l-.45.24c-.07,0-1,.27-.5.21a3,3,0,0,1-.52,0c-.36,0,.43.09.08,0l-.38-.11c-.26-.1.36.17-.08,0a23.91,23.91,0,0,0-5.62-2,2.54,2.54,0,0,0-3.16,2.42c.06,4.6,5.25,5.68,8.65,3.8,1.74-.95,1.6-4.25-.59-4.57-.19,0-.26-.05,0,0a6.41,6.41,0,0,1-.62-.38c-.5-.33-1-.66-1.5-1l-1.26,4.66a6.93,6.93,0,0,1,3,.57c2.92,1.49,5.07-2.43,2.53-4.32a20,20,0,0,1-5.22-5.08l-2.16,3.77,2.84.13-1.77-4.27s-.19,0-.36.11c-.49.17-1,.33-1.44.53l3.17,2.41c.18-3.13.83-6.17-.4-9.2a2.61,2.61,0,0,0-2.41-1.83l-4.25-.2,2.16,3.76a10.5,10.5,0,0,0,1.23-7.57,2.57,2.57,0,0,0-3.08-1.74c-5,.89-8.86,5.88-10,10.59l4.91.66a5.92,5.92,0,0,1,.47-1.4,8.84,8.84,0,0,0,.4-2.11l-4.65,1.26a9.85,9.85,0,0,1,.84,3.77c0,3.23,4.84,3.2,5,0a8.94,8.94,0,0,1,1.37-5.05l-4.57-.59c1.16,2.75,1.18,5.7,1.73,8.6l4.82-1.33a5.22,5.22,0,0,1,.72-3.71l-3.92.51c1.24,1.46,1.48,4.24,1.85,6.11a2.53,2.53,0,0,0,3.08,1.75,2.56,2.56,0,0,0,1.74-3.08,17.37,17.37,0,0,1,.44-7.88l-4.57.6a35.57,35.57,0,0,1,1.64,4.46l4.57-1.92c-.76-1.72-2.13-4.07-1.51-6l-4.56.59c2.16,3.29,3.11,7.23,4.17,11l4.82-1.33c-1.09-3.83-3-8.22-2.2-12.27h-4.82a142.47,142.47,0,0,1,4.9,16.57l4.17-2.43a16.85,16.85,0,0,1-2.07-3.23,25.22,25.22,0,0,1-1.78-4.42,20,20,0,0,1-.92-4.59,12.38,12.38,0,0,1,0-2.11c0,.24.12-.59.15-.7s.35-1,.19-.61H1327l7.7,17.4c1.14,2.58,5.5.75,4.57-1.92-2.54-7.29-6.23-14.55-6.63-22.38l-4.91.66c1.92,6.77,4.42,13.35,6.14,20.18l4.83-1.33c-2.5-6.35-6.34-12.6-6.77-19.54l-4.66,1.26c3.37,6.89,5.18,14.63,10.82,20.17a2.52,2.52,0,0,0,4.18-2.43c-1.82-7.26-4.26-14.34-6.08-21.59l-4.57,1.92c4.15,5.46,4.94,12.67,7.35,18.94a2.5,2.5,0,0,0,4.82-1.33c-1-7.48-4-14.39-6.08-21.59l-4.57,1.92c2.76,6.32,4.47,13.07,8.34,18.86,1.5,2.25,5.47.91,4.57-1.93-2.64-8.35-7.32-15.8-12-23.16l-3.93,3c4.71,4.55,5.84,11.62,10.6,16.12,1.78,1.67,4.9,0,4.18-2.43-2.1-7.23-6.58-13.48-11.14-19.35a2.5,2.5,0,0,0-3.53,0,2.55,2.55,0,0,0,0,3.53Z"/><path class="cls-8" d="M1327.7,298.15c.67,3.44,2.58,6.42,4.46,9.32l2.15-3.76c.27,0,.26,0,0-.06.21.07.17,0-.1-.1a1.49,1.49,0,0,1-.4-.33,11,11,0,0,1-1.17-1.38c-.8-1.15-1.48-2.37-2.2-3.57l-3.42,3.42c4.49,2.93,9.22,6.88,11.64,11.77,1.16,2.35,4.55,1,4.66-1.26,0-.71.06-1.42.1-2.13l-4.91.66c.81,2.34.75,4.77,1,7.2a2.5,2.5,0,0,0,5,0c0-.33,0-1.1.34-1.32l-3.67-1.49c.3,1.06.63,2.11.85,3.18a6.54,6.54,0,0,1,.13,1.15c0,.09,0,.67,0,.35,0,.31-.2.25,0,0l4.18,1.1c0,.39.12,0,.21-.23s.28,0,0,0l-2.41-1.84a8,8,0,0,1-.27,4.34l4.18-1.1a5.24,5.24,0,0,1-.64-1.8c-.78-2.77-4.77-2.12-4.91.67-.07,1.41-.13,2.83-.2,4.24h5a121.71,121.71,0,0,0-.32-15.63l-4.92.66c.64,1.85,1.45,4,2.08,5.56.26.65.57,1.29.85,1.94.12.28.14.31,0,.1.06.14.11.29.16.43.28.72-.07,0,.09-.42l.64-1.1-.07.06,1.11-.64h1c-3.14-.67-4.48,4.15-1.33,4.82a2.87,2.87,0,0,0,3.56-1.92,5.27,5.27,0,0,0-.63-3.4l-.52-1.17s-.34-.79-.11-.22c-.12-.31-.23-.61-.36-.91-.6-1.47-1.12-3-1.63-4.47a2.53,2.53,0,0,0-2.75-1.79,2.46,2.46,0,0,0-2.16,2.46,121.71,121.71,0,0,1,.32,15.63c-.15,3.22,4.85,3.21,5,0,.07-1.41.13-2.83.2-4.24l-4.91.66a10.62,10.62,0,0,0,1.93,4c1.19,1.48,3.76.6,4.17-1.1a13.09,13.09,0,0,0,.27-7,2.54,2.54,0,0,0-2.41-1.84c-3.52.08-5.5,3.34-5.06,6.59.26,1.9,3,2.34,4.18,1.1,2.5-2.62,1.14-6.52.27-9.55a2.51,2.51,0,0,0-3.67-1.49,6.88,6.88,0,0,0-2.82,5.63h5c-.25-2.86-.19-5.78-1.14-8.53a2.51,2.51,0,0,0-4.91.67c0,.71-.07,1.42-.1,2.13l4.66-1.27c-2.78-5.62-8.28-10.18-13.44-13.56-2.12-1.39-4.67,1.33-3.42,3.42,1.94,3.25,4,7.49,8.23,7.92,1.89.19,3.13-2.27,2.16-3.76-1.65-2.56-3.36-5.09-4-8.13a2.51,2.51,0,0,0-3.07-1.74,2.55,2.55,0,0,0-1.75,3.07Z"/><path class="cls-8" d="M1316.54,336.37c0,.55-.07,1.1-.13,1.65,0,.24-.05.47-.08.71.06-.52,0,.16,0,.27-.16,1.05-.35,2.09-.56,3.13-.39,2-.82,3.92-1.11,5.91a2.81,2.81,0,0,0,.26,1.93,2.5,2.5,0,0,0,4.57-.6c.22-.78.5-1.54.79-2.3-.19.49.08-.19.1-.23s.16-.34.23-.51l.54-1.12c.69-1.43,1.43-2.83,2.06-4.28l-4.66-1.27a38.91,38.91,0,0,1-.3,6.38,2.5,2.5,0,0,0,4.91.66c.34-1.15.46-2.37.88-3.5l-4.91-.67c0,.13-.15.8,0,.36a.85.85,0,0,1,.19-.54c.28-.32.33-.38.14-.19a2.5,2.5,0,1,0,3.53,3.54,4.48,4.48,0,0,0,1.16-3.17,2.48,2.48,0,0,0-2.17-2.45,2.51,2.51,0,0,0-2.74,1.79c-.42,1.13-.54,2.35-.88,3.5l4.91.67a38.91,38.91,0,0,0,.3-6.38,2.59,2.59,0,0,0-1.83-2.41,2.52,2.52,0,0,0-2.82,1.15c-1.4,3.22-3.28,6.24-4.24,9.64l4.83,1.33c.61-4.35,1.86-8.59,2.09-13a2.51,2.51,0,0,0-2.5-2.5,2.56,2.56,0,0,0-2.5,2.5Z"/><path class="cls-8" d="M1323,327.06a15.56,15.56,0,0,0-3,3.94,1.71,1.71,0,0,0-.3.92,1.89,1.89,0,0,0,0,1l.26.6a1.87,1.87,0,0,0,.64.7,1.23,1.23,0,0,0,.55.32,1.88,1.88,0,0,0,1,.22l.67-.09a2.52,2.52,0,0,0,1.1-.65l3.34-3-4.26-1.77,0,.28.09-.66a1.23,1.23,0,0,1-.07.32l.25-.6a.47.47,0,0,1-.06.09l.4-.5,0,0,.51-.39,0,0,.6-.26h0l.66-.09h0l.67.09h0l.6.25,0,0,.51.39,0,0a2.52,2.52,0,0,0-1.76-.73,1.9,1.9,0,0,0-1,.22,1.83,1.83,0,0,0-.8.51,2.51,2.51,0,0,0-.73,1.77,2.61,2.61,0,0,0,3.93,2.21,4,4,0,0,0,.57-.44,2.87,2.87,0,0,0,.7-1.19,5,5,0,0,0,.19-1.27l-.09-.66-.26-.6-.39-.51a1.83,1.83,0,0,0-.8-.51,1.31,1.31,0,0,0-.63-.18,1.27,1.27,0,0,0-.67,0,1.31,1.31,0,0,0-.63.18,1.83,1.83,0,0,0-.8.51l-3.34,3,3.92,3a15.81,15.81,0,0,1,1.23-1.9l-.39.51a12.87,12.87,0,0,1,1.42-1.53,1.92,1.92,0,0,0,.52-.8,2.32,2.32,0,0,0,0-1.93,2,2,0,0,0-.52-.81,2.55,2.55,0,0,0-1.77-.73l-.66.09a2.45,2.45,0,0,0-1.1.64Z"/><path class="cls-8" d="M1325.52,332.68a17.68,17.68,0,0,0-2.13,9,2.73,2.73,0,0,0,.73,1.77,2.57,2.57,0,0,0,1.77.73,2.53,2.53,0,0,0,2.5-2.5,10.51,10.51,0,0,1,.06-2.31l-.09.66a17.45,17.45,0,0,1,1.22-4.3l-.25.6c.16-.38.33-.75.51-1.12a2.73,2.73,0,0,0,.25-1.92,2.58,2.58,0,0,0-1.15-1.5,2.53,2.53,0,0,0-3.42.9Z"/><path class="cls-8" d="M1230.76,408.31c6.59,2.77,14,.15,20-2.84,1.35-.68,2.66-1.51,4-2.11A9.44,9.44,0,0,1,1256,403c.36-.08-.11-.12.18,0s-.34,0,.12,0c-.12,0-.11,0-.35-.21.24.18.22.32,0,0,.09.16.18.31.26.47-.23-.45,0,0,.07.25a19.88,19.88,0,0,1,.62,3.07,64.82,64.82,0,0,0,2,9.36c1.11,3.71,2.49,7.32,3.8,11a90.19,90.19,0,0,1,3.3,11c.83,3.81,1.51,7.65,2.16,11.5,1.46,8.7,2.83,17.44,5.51,25.86,1,3.06,5.8,1.75,4.82-1.33-4.88-15.31-5.13-31.69-10.43-46.88-2.46-7-5.16-13.84-6.21-21.25-.31-2.15-.56-4.68-2.12-6.34-1.78-1.89-4.38-1.71-6.6-.8-3.46,1.43-6.56,3.5-10.14,4.68s-7.33,1.67-10.92.16a2.52,2.52,0,0,0-3.08,1.74,2.58,2.58,0,0,0,1.75,3.08Z"/><path class="cls-8" d="M1276,443.31a3.08,3.08,0,0,1,.33.59l-.13-.3a12.6,12.6,0,0,0,1.08,2.79,1.32,1.32,0,0,0,.74.57,1.27,1.27,0,0,0,1-.12,1.3,1.3,0,0,0,.57-.75,1.2,1.2,0,0,0-.13-1,3.46,3.46,0,0,1-.32-.6l.12.3a13,13,0,0,0-1.07-2.78,1.31,1.31,0,0,0-.75-.58,1.27,1.27,0,0,0-1.54.87,1.26,1.26,0,0,0,.13,1Z"/><path class="cls-8" d="M1283.3,440.43a2.16,2.16,0,0,0-1.12-.86,1.32,1.32,0,0,0-.48-.06c-.14,0-.56.07-.25,0s-.14,0-.1,0a1.71,1.71,0,0,0-.72.24,2.85,2.85,0,0,0-1.15,2,2.72,2.72,0,0,0,.53,2.45,1.86,1.86,0,0,0,2.32.11,6.22,6.22,0,0,0,1.34-1.22l-2.09-.55c.14.59.23,1.18.39,1.77a3.77,3.77,0,0,0,1,1.94,1.25,1.25,0,0,0,1.77-1.76,1.59,1.59,0,0,1-.13-.13c-.15-.13.18.29.06.08s-.12-.24-.19-.36c.18.34.08.18,0,.09a1.55,1.55,0,0,0-.08-.23c0-.14-.08-.28-.11-.42-.14-.54-.23-1.1-.36-1.64a1.26,1.26,0,0,0-2.09-.55c-.14.16-.28.32-.43.47l-.27.25-.1.09c-.15.13.3-.21.08-.06l-.28.17c-.15.09.36-.12.13-.06s-.21,0,.18,0c-.2,0,.21,0,.21,0-.21,0,.31.16.17.07.2.17.27.22.18.14s0,0,.13.17l0-.06.08.18c0-.07,0-.13,0-.2s0-.07,0,.16c0-.05,0-.09,0-.14s0-.2,0-.31c0,.51,0,.05,0-.1s.08-.27.12-.4c-.14.42,0,.07.07-.05-.15.19-.19.23-.11.15a.13.13,0,0,1,.07-.06c-.21.14-.25.18-.15.12-.24.09-.3.12-.18.08s0,0-.21,0a1.2,1.2,0,0,0,.38,0,.78.78,0,0,1-.43,0q-.32-.15-.15-.06c.17.1-.27-.23-.09-.05s-.21-.3-.13-.18a1.35,1.35,0,0,0,.74.57,1.25,1.25,0,0,0,1.42-1.83Z"/><path class="cls-8" d="M1287.45,442.15a.1.1,0,0,1,0,0l-.2.25a1.07,1.07,0,0,1,.19-.18l-.26.19a1.92,1.92,0,0,1,.31-.18l-.3.13a1.71,1.71,0,0,1,.3-.09l-.33,0h.22l-.34,0,.17,0-.3-.12.12.07-.25-.2.13.15-.2-.25a.42.42,0,0,1,.09.14l-.12-.3a.75.75,0,0,1,0,.16l0-.34a.6.6,0,0,1,0,.19l0-.34a1.2,1.2,0,0,1-.08.27l.13-.3a2.92,2.92,0,0,1-.29.48l.19-.26a12.21,12.21,0,0,1-1,1.11,3.59,3.59,0,0,0-1,1.38,1.19,1.19,0,0,0,.06.81,1.48,1.48,0,0,0,.51.6,2.46,2.46,0,0,0,2,.25c.41-.1.79-.28,1.2-.38a1.26,1.26,0,0,0,.87-1.53,1.29,1.29,0,0,0-1.54-.88c-.47.12-.92.34-1.41.42l.33-.05a1.41,1.41,0,0,1-.41,0l.33,0a.86.86,0,0,1-.23-.06l.3.12a1,1,0,0,1-.17-.1l.57,1.41,0,0-.13.29a1.58,1.58,0,0,1,.15-.24l-.19.25a9,9,0,0,1,.74-.77,10.54,10.54,0,0,0,1-1.12,2.5,2.5,0,0,0,.55-1.45,1.94,1.94,0,0,0-1.37-1.85,2.27,2.27,0,0,0-1.58.19,2.5,2.5,0,0,0-1,.87,1.24,1.24,0,0,0-.13,1,1.26,1.26,0,0,0,1.54.88,1.48,1.48,0,0,0,.75-.58Z"/><path class="cls-8" d="M1290.28,442.45v0l0-.33c0,.26,0,.53,0,.8a2.06,2.06,0,0,0,.28,1,1.76,1.76,0,0,0,1.07.78,2,2,0,0,0,1,0,2.49,2.49,0,0,0,.45-.18l.16-.1a3.79,3.79,0,0,0,.39-.31c.12-.12.22-.27.33-.4s.15-.23.22-.36a3.62,3.62,0,0,0,.39-1.4l0,.33a3.44,3.44,0,0,0,.06-.72,4,4,0,0,0-.07-.48,1.88,1.88,0,0,0-.12-.3,2.15,2.15,0,0,0-.4-.64l-.11-.1a3.38,3.38,0,0,0-.36-.27,2.05,2.05,0,0,0-1.13-.26,2.32,2.32,0,0,0-.46.07,1.94,1.94,0,0,0-.42.17,1.75,1.75,0,0,0-.49.35,1.78,1.78,0,0,0-.22.26,1.73,1.73,0,0,0-.19.28,2.54,2.54,0,0,0-.27.71,1,1,0,0,0,0,.5,1,1,0,0,0,.15.47,1.27,1.27,0,0,0,.75.57,1.24,1.24,0,0,0,1-.13,1.18,1.18,0,0,0,.57-.74,1.19,1.19,0,0,1,.1-.32l-.13.3a1.3,1.3,0,0,1,.14-.26l-.19.26a1.07,1.07,0,0,1,.18-.19l-.25.2a.52.52,0,0,1,.19-.11l-.29.12a.66.66,0,0,1,.2-.06l-.33.05h.23l-.33-.05.21.06-.3-.12a.69.69,0,0,1,.19.1l-.26-.19a.67.67,0,0,1,.15.14l-.2-.25a.72.72,0,0,1,.11.19l-.12-.3a2,2,0,0,1,.07.26l0-.33a1.09,1.09,0,0,1,0,.36l0-.33c0,.17,0,.34-.07.5l0-.33a2.41,2.41,0,0,1-.16.54l.13-.3a2.52,2.52,0,0,1-.28.48l.19-.25a1.52,1.52,0,0,1-.25.26l.26-.2a1,1,0,0,1-.23.13l.3-.12-.2.05.33,0a.74.74,0,0,1-.21,0l.33.05-.16,0,.3.13-.08-.06.25.2-.1-.11.19.26a.52.52,0,0,1-.06-.13l.12.3a1.05,1.05,0,0,1,0-.19l0,.33a2.57,2.57,0,0,1,0-.48,2.26,2.26,0,0,0,0-.73.85.85,0,0,0-.22-.42,1.13,1.13,0,0,0-.82-.47.91.91,0,0,0-.49,0,1.28,1.28,0,0,0-.75.57l-.13.3a1.27,1.27,0,0,0,0,.67Z"/><path class="cls-8" d="M1296.25,443.44a12.26,12.26,0,0,0,3.28-1.13,1.25,1.25,0,1,0-1.26-2.16c-.23.12-.47.23-.7.33l.3-.12a12.16,12.16,0,0,1-2.28.67,1.25,1.25,0,0,0-.3,2.29,1.39,1.39,0,0,0,1,.12Z"/><path class="cls-8" d="M1300.24,439c0,1.43.22,2.85.33,4.28a1.32,1.32,0,0,0,.37.88,1.24,1.24,0,0,0,2.13-.88c-.11-1.43-.31-2.85-.33-4.28a1.25,1.25,0,0,0-2.5,0Z"/><path class="cls-8" d="M1307.26,439.12a2.06,2.06,0,0,0-.84-1.62,1.85,1.85,0,0,0-1.47-.2,2.67,2.67,0,0,0-1,.52,2.52,2.52,0,0,0-.74.85l.19-.25a4.08,4.08,0,0,0-.73,1.4,3,3,0,0,0,0,1.66,1.88,1.88,0,0,0,1.77,1.35,2.37,2.37,0,0,0,1.72-.85c.31-.33.55-.73.88-1l-2.09-.55c0,.08,0,.16,0,.25l0-.34a5.91,5.91,0,0,1-.06,1.33,5.32,5.32,0,0,0,.06,1.69,1.23,1.23,0,0,0,.57.75,1.25,1.25,0,0,0,1.84-1.41,1.55,1.55,0,0,1,0-.21l0,.33a6.23,6.23,0,0,1,0-1.43,4.89,4.89,0,0,0-.06-1.62,1.26,1.26,0,0,0-.87-.88,1.28,1.28,0,0,0-1.22.33c-.43.4-.71.94-1.18,1.31l.26-.2a1.17,1.17,0,0,1-.28.17l.3-.13-.18.05.34-.05h-.11l.34.05a.79.79,0,0,1-.22-.06l.3.13-.12-.07.26.2a.68.68,0,0,1-.12-.12l.2.26a1,1,0,0,1-.08-.14l.12.29a.86.86,0,0,1-.06-.23l0,.33a1.55,1.55,0,0,1,0-.43l0,.34a2.77,2.77,0,0,1,.22-.76l-.13.3a2.09,2.09,0,0,1,.26-.46l-.2.25c.14-.16.23-.33.36-.49l-.2.25a1.53,1.53,0,0,1,.29-.28l-.26.19a2.14,2.14,0,0,1,.38-.23l-.3.13a1.71,1.71,0,0,1,.3-.09l-.33.05h.18l-.33,0,.14,0-.3-.13.1.06-.26-.19.09.08-.2-.25a.75.75,0,0,1,.07.12l-.13-.3a.94.94,0,0,1,.06.24l0-.33s0,.06,0,.09a1.34,1.34,0,0,0,.36.89,1.29,1.29,0,0,0,.89.36,1.27,1.27,0,0,0,1.25-1.25Z"/><path class="cls-8" d="M1308.73,439.12l1.73.08-1.25-1.25c0,.18,0,.35,0,.53l0-.33a7.46,7.46,0,0,0-.11,3.45,1.36,1.36,0,0,0,.58.75,1.29,1.29,0,0,0,1,.13,1.26,1.26,0,0,0,.87-1.54,2.16,2.16,0,0,1-.1-.44l0,.34a4.73,4.73,0,0,1,0-1.19l0,.33c.09-.67.24-1.35.28-2a1.26,1.26,0,0,0-.37-.88,1.37,1.37,0,0,0-.88-.37l-1.73-.08a1.26,1.26,0,0,0-1.25,1.25,1.28,1.28,0,0,0,1.25,1.25Z"/><path class="cls-8" d="M1312.12,438.91a3,3,0,0,0,0,1.36.88.88,0,0,0,.05.15,3.17,3.17,0,0,0,.19.42,2.35,2.35,0,0,0,.36.47,2.55,2.55,0,0,0,1,.6,3.11,3.11,0,0,0,.61.1h.33a3.29,3.29,0,0,0,1.22-.35,2.85,2.85,0,0,0,1-1,2.28,2.28,0,0,0,.35-1.13.6.6,0,0,0,0-.19,2.37,2.37,0,0,0-.25-.91,2.17,2.17,0,0,0-.38-.52,2.55,2.55,0,0,0-.55-.43,3.32,3.32,0,0,0-.68-.27,3.39,3.39,0,0,0-.78-.08,3.29,3.29,0,0,0-.82.15,1.3,1.3,0,0,0-.75.57,1.24,1.24,0,0,0-.12,1,1.2,1.2,0,0,0,.57.75,1.29,1.29,0,0,0,1,.13,2.25,2.25,0,0,1,.35-.09l-.33,0a1.77,1.77,0,0,1,.46,0l-.34,0a1.51,1.51,0,0,1,.38.1l-.29-.12a1.22,1.22,0,0,1,.29.17l-.25-.19a1.19,1.19,0,0,1,.2.19l-.2-.25a1.64,1.64,0,0,1,.14.22l-.13-.29a.86.86,0,0,1,.06.23l0-.33a1,1,0,0,1,0,.25l0-.33a.87.87,0,0,1-.08.26l.13-.3a2.91,2.91,0,0,1-.17.3l.19-.26a3.33,3.33,0,0,1-.25.28l.25-.2a1.45,1.45,0,0,1-.38.22l.3-.12a1.62,1.62,0,0,1-.43.12l.33-.05a1.55,1.55,0,0,1-.43,0l.34.05a1.89,1.89,0,0,1-.34-.09l.3.12a1.17,1.17,0,0,1-.27-.15l.25.19a1.14,1.14,0,0,1-.19-.19l.2.25a.8.8,0,0,1-.13-.22l.13.3a.9.9,0,0,1-.08-.28l0,.33a2.54,2.54,0,0,1,0-.39l0,.33,0-.17a1.31,1.31,0,0,0-.12-1,1.34,1.34,0,0,0-.75-.57,1.24,1.24,0,0,0-1,.13,1.23,1.23,0,0,0-.58.74Z"/><path class="cls-8" d="M1269,420.35a9.5,9.5,0,0,0,.68,2.2c.29.72.52,1.45.74,2.2.5,1.72,1,3.43,1.5,5.15a2.5,2.5,0,1,0,4.83-1.33c-.49-1.72-1-3.43-1.51-5.15a21,21,0,0,0-.74-2.2,9.35,9.35,0,0,1-.68-2.2,2.5,2.5,0,0,0-3.07-1.74,2.51,2.51,0,0,0-1.5,1.15,3,3,0,0,0-.25,1.92Z"/><path class="cls-8" d="M1272.64,421.35c.25-.07.51-.12.76-.18s-.46,0,0,0l.53,0c.31,0,.62,0,.93,0a2.25,2.25,0,0,0,.44,0c0,.06-.42-.07-.13,0l.3.06.46.13.22.07-.19-.07a2.06,2.06,0,0,0,.39.21c.17.09,0,.13-.13-.11a1,1,0,0,0,.19.17c.26.23-.22-.37-.11-.14a2.53,2.53,0,0,0,.13.22s-.17-.49-.12-.26a.58.58,0,0,0,0,.14c0,.09,0,.19.07.29.1.42,0-.41,0-.11,0,.12,0,.23,0,.34s0,.48,0,.72,0,.26,0,.39,0,.09,0,.14c0,.24.06-.44,0-.2s-.08.53-.14.79a13.57,13.57,0,0,1-.42,1.58c-.08.24-.16.47-.25.7a1.51,1.51,0,0,0-.14.35s.18-.4.1-.24l-.09.2c-.11.23-.22.45-.34.66s-.11.18-.17.27-.32.28.09-.09a1.22,1.22,0,0,0-.15.17c-.22.25.15-.11.18-.13-.28.2.46-.14.26-.09a1.92,1.92,0,0,1,1.2.17,2.09,2.09,0,0,0-1.45-.19,2,2,0,0,0-1.12.86,1.91,1.91,0,0,0,.67,2.57c3.07,1.3,4.52-2.91,5.09-5.14a11.24,11.24,0,0,0,.44-3.91,4.83,4.83,0,0,0-.62-2.1,4.55,4.55,0,0,0-2.34-1.75,9.06,9.06,0,0,0-5.57-.1,1.87,1.87,0,1,0,1,3.61Z"/><path class="cls-8" d="M1284.09,427a4.41,4.41,0,0,0,2.3-1.78,4.81,4.81,0,0,0,.94-2.55,2.83,2.83,0,0,0-1.51-2.68,3.12,3.12,0,0,0-3,0,5.31,5.31,0,0,0-2.19,3.33,7.86,7.86,0,0,0,0,4.14,4.11,4.11,0,0,0,1.57,2.26,3.73,3.73,0,0,0,2.79.48,1.86,1.86,0,0,0,1.12-.86,2,2,0,0,0,.19-1.44,1.9,1.9,0,0,0-.86-1.12,2.14,2.14,0,0,0-1.45-.19c.76-.11.3,0,.11,0-.45,0,.5.12.16,0a2,2,0,0,0-.23-.06c.58.1.45.21.29.11l-.15-.09c-.22-.11.4.37.24.19l-.1-.09-.09-.1c-.14-.13.21.28.21.27s-.11-.16-.15-.24l-.07-.13c-.12-.23.21.56.1.22a3.47,3.47,0,0,1-.16-.55l0-.16c-.05-.28.07.56,0,.28l0-.34a5.61,5.61,0,0,1,0-.71,2.83,2.83,0,0,0,0-.29c0-.16.08-.43,0,.26l0-.24a7,7,0,0,1,.38-1.34c.08-.21-.25.55-.06.15,0-.09.09-.18.14-.27a2.13,2.13,0,0,1,.16-.25c.24-.35-.34.37-.1.12l.18-.18c.12-.12.3-.12-.25.19a.33.33,0,0,1,.1-.06c.2-.11.3,0-.25.08l.1,0c.22-.06.21.07-.32,0,.24,0,.31.09-.2-.05l.14,0c.24.05.11.16-.2-.1l.15.09c-.32-.13-.39-.33-.23-.15-.37-.4-.26-.38-.18-.21-.27-.51-.17-.41-.1-.2s-.13.31-.05-.34v.22c0,.29.12-.53,0-.26,0,.09,0,.17-.07.25a1.06,1.06,0,0,0-.06.19c.1-.48.17-.38.08-.2s-.15.28-.24.42l-.12.17c-.16.24.36-.42.08-.11a1.79,1.79,0,0,1-.27.28c0,.05-.1.08-.14.13.4-.41.31-.23.14-.13l-.14.08c.41-.28.43-.16.21-.1a1.87,1.87,0,1,0,1,3.61Z"/><path class="cls-8" d="M1291.39,418.88a5,5,0,0,0-2.42,2.56,3.58,3.58,0,0,0,1.06,3.8,5.12,5.12,0,0,0,1.21.91l.45.26c.26.15-.37-.31-.17-.12s.07.06-.16-.22c.09.16.06.08-.09-.25l0,.08c0,.18,0,.11,0-.24v.2l0-.33a.84.84,0,0,1,0,.17c.14-.3.16-.37.07-.19a2.2,2.2,0,0,0-.17.25c.28-.46.1-.14,0,0l-.26.25c-.13.11-.37.23.07-.05l-.27.19a1.88,1.88,0,0,0,1.89,3.24,5.17,5.17,0,0,0,2.35-2.84,3.11,3.11,0,0,0-1.6-3.51l-.47-.26c-.17-.1-.21-.26.11.1l-.19-.18a4.09,4.09,0,0,1-.36-.37s.29.38,0,0,.13.39,0,.09,0,.54,0,.07c0-.3-.13.47,0,.18s-.09.11-.07.14.17-.27.18-.29c-.22.4-.2.25-.06.11a2.39,2.39,0,0,1,.23-.22c.3-.29-.34.22,0,0a6.16,6.16,0,0,1,.55-.33,1.89,1.89,0,0,0,.67-2.57,1.92,1.92,0,0,0-2.56-.67Z"/><path class="cls-8" d="M1294.82,424.82l0,0-.26-.6a2.78,2.78,0,0,1,.19.74l-.08-.66a11,11,0,0,1,0,1.9,2,2,0,0,0,.21,1,2,2,0,0,0,.52.8,2.83,2.83,0,0,0,1.77.74l.66-.09A2.55,2.55,0,0,0,1299,428l.39-.5a2.53,2.53,0,0,0,.34-1.26c0-.48,0-1,0-1.45a11.53,11.53,0,0,0-.16-1.3,5.64,5.64,0,0,0-.43-1.19,1.88,1.88,0,0,0-.64-.7,2,2,0,0,0-.86-.45,2.88,2.88,0,0,0-1.92.25,2.5,2.5,0,0,0-1.15,1.5l-.09.66a2.53,2.53,0,0,0,.34,1.26Z"/><path class="cls-8" d="M1297,421.89h0l-.5-.07a.94.94,0,0,1,.22.07l-.45-.19.26.12.09.05h0a1.83,1.83,0,0,0,.95.26,1.36,1.36,0,0,0,.72-.16,1.52,1.52,0,0,0,.61-.39l.29-.38a1.84,1.84,0,0,0,.25-.94,2.07,2.07,0,0,0-.06-.5l-.19-.45a3.8,3.8,0,0,0-.29-.38h0l-.38-.29h0l-.08-.05a2.15,2.15,0,0,0-1.44-.19,1.37,1.37,0,0,0-.64.34,1.33,1.33,0,0,0-.48.52l-.19.45a1.89,1.89,0,0,0,0,1l.19.45a1.87,1.87,0,0,0,.67.67l.09.05-.38-.29h0l-.55-1.32h0l1.88-1.88h0l.5.07h0l.45.19-.19-.09-.15-.08-.6-.25-.08,0a2.51,2.51,0,0,0-.55-.07,2.1,2.1,0,0,0-1.32.54,1.33,1.33,0,0,0-.39.61,1.36,1.36,0,0,0-.16.72l.06.5a1.86,1.86,0,0,0,.49.83l.38.29a1.92,1.92,0,0,0,.94.26Z"/><path class="cls-8" d="M1306.74,419.45c-.57-1.34-2.31-1.65-3.56-1.28a4.58,4.58,0,0,0-2.92,2.5,3.6,3.6,0,0,0,1.07,4.35,3.08,3.08,0,0,0,3.5-.38,8.27,8.27,0,0,0,2.42-2.74l-3.5-.95c0,.69.12,1.37.21,2.05l.18,1.33c.06.4,0-.19,0,.25,0,.16,0,.32,0,.47,0,.35.08.7.1,1s0,.55,0,.8c0-.07.09-.53,0-.21a1.43,1.43,0,0,0,0,.22,5.12,5.12,0,0,1-.15.56q-.07.27-.18.54c-.1.29,0,0,0-.11a2.55,2.55,0,0,0-.13.29,4.76,4.76,0,0,1-.28.49c0,.06-.26.37-.05.09s0,0,0,0l-.2.19c0-.15.43-.24.1-.09s.41-.09,0,0c.59-.13.35,0,.17-.05.58.05.32.06.15,0s.37.25.08,0c-.09-.07-.38-.29,0,0a1.91,1.91,0,0,0-2.65,0,1.9,1.9,0,0,0,0,2.65,3.54,3.54,0,0,0,4.16.59,5.73,5.73,0,0,0,2.21-3,7.15,7.15,0,0,0,.5-3.24c-.08-.92-.21-1.84-.34-2.75,0-.12,0-.25,0-.37,0,.16,0,.17,0,0s-.06-.42-.08-.64c0-.41-.08-.82-.11-1.23A1.87,1.87,0,0,0,1304,420c-.08.14-.16.28-.25.41l-.15.22c-.24.35.26-.3,0,0a7.93,7.93,0,0,1-.85.89c-.26.23-.08,0,.07,0-.07,0-.16.12-.23.16s-.16.08-.23.13c-.26.19.48-.15.12-.05s.4,0,.21,0a1.17,1.17,0,0,1,.6.18c-.24-.13.38.34.17.12l.2.25c-.09-.16-.06-.09.07.21a1.92,1.92,0,0,0-.09-.32c-.1-.36,0,.36,0,0s0,.08,0,.1.07-.28.09-.28c-.14.3-.16.36-.07.19l.08-.13c0-.13-.33.33,0,.07a2,2,0,0,0,.21-.2c.11-.1,0-.05-.19.13a.91.91,0,0,0,.16-.11l.26-.14c.26-.17-.43.11-.11,0l.26-.08c.3-.09.08.13-.16,0h.23c-.3.1-.48-.1-.22,0a1.09,1.09,0,0,1-.52-.3c.08.08-.28-.46-.13-.12a1.88,1.88,0,0,0,2.57.67,1.93,1.93,0,0,0,.67-2.56Z"/><path class="cls-8" d="M1309.55,421.16l.08.16-.19-.45a2.07,2.07,0,0,1,.12.49l-.06-.5a8,8,0,0,1-.09,1.76,7,7,0,0,0,0,2.09l.19.45a1.53,1.53,0,0,0,.48.53,1.82,1.82,0,0,0,1.14.4,2.29,2.29,0,0,0,1-.26,2,2,0,0,0,.86-1.12c.15-.41.3-.82.46-1.22l-.18.44a5.44,5.44,0,0,1,.65-1.18l-.29.38a2.84,2.84,0,0,1,.6-.6l-.38.29a3.77,3.77,0,0,1,.7-.41l-.44.19a3.26,3.26,0,0,1,.71-.22l-.5.07h.22l-.5-.06.16,0-.45-.19.14.08-.38-.29a.62.62,0,0,1,.14.14l-.3-.38a1,1,0,0,1,.16.28l-.19-.45a3.76,3.76,0,0,1,.21.88l-.07-.5a15.15,15.15,0,0,0,.29,2.13,2,2,0,0,0,.86,1.12,1.89,1.89,0,0,0,1.45.19,1.91,1.91,0,0,0,1.31-2.31,2.88,2.88,0,0,1-.1-.51l.07.5c-.09-.68-.13-1.37-.27-2a3,3,0,0,0-1.42-2.08,2.77,2.77,0,0,0-2-.2,5.88,5.88,0,0,0-1.38.56,5.22,5.22,0,0,0-1.89,1.9,14.8,14.8,0,0,0-1,2.46h3.62s0-.06,0-.09l.07.5a9.18,9.18,0,0,1,.13-2.09,4.46,4.46,0,0,0-.45-2.76,1.89,1.89,0,0,0-1.12-.86,1.87,1.87,0,0,0-1.44.19,1.89,1.89,0,0,0-.67,2.56Z"/><path class="cls-8" d="M1344.25,345.81c.28.27.55.54.81.84.12.14.34.55,0,0,.07.12.17.24.25.37a2.5,2.5,0,0,1,.21.35c.13.24.11.47,0-.14,0,.13.25.51.18.64,0,0,0-.76,0-.26,0,0,0,.29,0,.29s.18-.79,0-.28c0,.07-.05.15-.07.23-.13.45.23-.45.1-.23l-.14.27a6.49,6.49,0,0,1-.36.55c-.22.33.08-.12.15-.19a2.88,2.88,0,0,0-.22.27c-.16.19-.32.38-.49.56-.35.41-.71.8-1.06,1.21a16.58,16.58,0,0,0-2.34,3.36,2.55,2.55,0,0,0,.9,3.42,2.52,2.52,0,0,0,3.42-.9,13.11,13.11,0,0,1,1-1.72l.18-.24c-.24.31-.28.37-.12.16l.27-.33.55-.63a21.68,21.68,0,0,0,2.34-2.9,5.55,5.55,0,0,0,.69-4.13,8.78,8.78,0,0,0-2.69-4.12,2.5,2.5,0,1,0-3.54,3.54Z"/><path class="cls-8" d="M1348.94,342.77a16.68,16.68,0,0,0,2.46.86,15.33,15.33,0,0,1,2,.63l-.6-.25a5.36,5.36,0,0,1,.92.48,2.55,2.55,0,0,0,1.93.25,2.49,2.49,0,0,0,1.74-3.07,2.71,2.71,0,0,0-1.14-1.5,11,11,0,0,0-2.87-1.19,20.17,20.17,0,0,1-2.37-.72l.6.25-.14-.06a1.79,1.79,0,0,0-.93-.29,1.85,1.85,0,0,0-1,0,2.58,2.58,0,0,0-1.5,1.15,2.55,2.55,0,0,0-.25,1.93,2.44,2.44,0,0,0,1.15,1.49Z"/><path class="cls-8" d="M1272.7,506.41c-5.06,3.29-10.92,5.26-15.76,8.89a31.65,31.65,0,0,0-6.08,5.65,51.16,51.16,0,0,0-4,6.48c-1.57,2.82,2.75,5.34,4.32,2.53a43.94,43.94,0,0,1,3.59-6,25.24,25.24,0,0,1,5.35-4.86c4.71-3.33,10.25-5.26,15.08-8.4,2.69-1.75.19-6.08-2.52-4.32Z"/><path class="cls-8" d="M1245.49,530.9c1.17,2.85.44,6.67.1,9.82-.45,4.08-.89,8.1-1.7,12.13-1,4.63-2.18,9.2-3.59,13.72-1.35,4.34-3.33,8.43-4.87,12.7a25.94,25.94,0,0,0-1.74,7.25c-.1,2,.39,4.47-.55,6.3-1.47,2.86,2.84,5.39,4.31,2.53a14,14,0,0,0,1.22-6.43,22,22,0,0,1,.07-2.93,23.06,23.06,0,0,1,.82-3.3c1.39-4.55,3.58-8.79,5.09-13.3a128.24,128.24,0,0,0,5.83-27.67c.4-3.83,1.36-8.45-.17-12.14a2.58,2.58,0,0,0-3.07-1.75,2.52,2.52,0,0,0-1.75,3.07Z"/><path class="cls-8" d="M1232.33,595.25c1.31,4.56-1.41,9.33-2.76,13.57a25.33,25.33,0,0,0-1.31,7.51c0,2.79.5,5.55.49,8.34,0,5.41-3.65,10-3.67,15.38,0,4.88,3.69,8.46,4.33,13.12a48.41,48.41,0,0,1,.73,6,5.3,5.3,0,0,1-.3,2.35c.12-.29-.29.4-.31.42a2.1,2.1,0,0,1-.61.44c-1.57.64-3.41.39-5.22.39a16.71,16.71,0,0,0-6.35,1.28c-4.13,1.67-7.13,4.67-9.85,8.12a43.94,43.94,0,0,1-5.17,5.22,51.86,51.86,0,0,1-6.16,4.82,23.69,23.69,0,0,1-5.92,3.09,39.82,39.82,0,0,1-4.57,1.06,18.72,18.72,0,0,1-2.4.27,13.77,13.77,0,0,1-2.4,0c.52.07-.52-.14-.69-.17s-.56-.23,0,0c-.17-.08-.32-.17-.48-.26-.43-.24.08.07.09.08l-.24-.24.19.23c-.14,0-.15-.52-.1-.16.07.54,0-.85,0,0a2.57,2.57,0,0,0-2.5-2.5,2.53,2.53,0,0,0-2.5,2.5c.66,8.1,12.39,5.42,17.4,3.85s9.75-5.42,13.67-8.92a47.1,47.1,0,0,0,5.56-5.65,28.9,28.9,0,0,1,4.51-4.8,14.7,14.7,0,0,1,5.2-2.51c1.88-.5,3.87-.24,5.88-.34,2.29-.13,4.68-.64,6.31-2.38a8.88,8.88,0,0,0,2-6.55,59.86,59.86,0,0,0-.85-6.72,24.79,24.79,0,0,0-2.71-7.2c-1-2.1-1.82-4.2-1.31-6.57.59-2.72,1.83-5.22,2.63-7.87a25.92,25.92,0,0,0,.62-10,25.61,25.61,0,0,1,.47-8.9c1.51-5.82,5-11.4,3.17-17.6-.89-3.09-5.72-1.78-4.82,1.32Z"/><path class="cls-8" d="M1282.06,605.61c2.42,2.1,5.44,2.78,8.54,3.14a75.89,75.89,0,0,0,8.26.4c1,0,2-.06,3,0l.66,0c.67,0-.49-.14.13,0a5.18,5.18,0,0,1,.53.14c-.9-.28.67.1-.18-.12.08,0,.51.55.13.07a2.82,2.82,0,0,1,.24.36,3.86,3.86,0,0,1,.47,1.18c.54,1.81,1,3.66,1.36,5.52a63,63,0,0,1,1,21.3,68.63,68.63,0,0,0-1.13,10.88c0,3.18,1,6.25,1.57,9.35,1.09,5.34,2.21,11.17-.74,16.09-2.49,4.17-6.55,6.71-11,8.1a58.93,58.93,0,0,1-14.67,2.11,52.87,52.87,0,0,1-5.63-.06c-.43,0-.86,0-1.28-.09l-.77-.08c-.84-.09.47.09-.36,0-.49-.08-1-.18-1.48-.3-.23-.06-.46-.12-.69-.2s-1-.38-.47-.15l-.58-.3c-.12-.07-.59-.45-.17-.08a5.44,5.44,0,0,1-.42-.41c.4.43-.06-.14-.14-.3.27.58,0,0,0-.16-.07.62,0-.29,0-.43,0-.48.08-.14,0,0a2.06,2.06,0,0,1,.52-.6,21.12,21.12,0,0,1,3.09-1.93,26.6,26.6,0,0,0,4.49-3.79c2.77-2.72,5.77-5.82,7.17-9.5,1.23-3.23,1-6.79,1.92-10.11.81-3.12-4-4.45-4.82-1.33s-.69,6.49-1.73,9.57a13.16,13.16,0,0,1-2.73,4.21,54.13,54.13,0,0,1-3.8,4.07,18.18,18.18,0,0,1-3.49,2.83,19.46,19.46,0,0,0-3.64,2.44,6.13,6.13,0,0,0-1.19,7.5c2.36,4.05,8.37,4.14,12.47,4.24a75.81,75.81,0,0,0,15-1.16c5.4-1,10.72-3,14.83-6.68a21.46,21.46,0,0,0,5.14-7.18,19.35,19.35,0,0,0,1.29-9.23,73.3,73.3,0,0,0-1.6-10.09c-.31-1.46-.73-2.94-.94-4.42a24,24,0,0,1,0-5.49c.35-3.86,1.2-7.66,1.43-11.53a67.41,67.41,0,0,0-.6-11.71,80.53,80.53,0,0,0-2.23-11.54c-.69-2.49-1.83-4.92-4.51-5.7-2.19-.63-4.68-.2-6.92-.29a46.6,46.6,0,0,1-8.59-.68,7.59,7.59,0,0,1-3.2-1.36,2.56,2.56,0,0,0-3.54,0,2.54,2.54,0,0,0,0,3.54Z"/><path class="cls-8" d="M1283,616.83c.68,2.57.32,5.43.12,8.06-.25,3.22-.4,6.43-.68,9.64-.59,6.81-1.55,13.58-1.89,20.4-.16,3.22,4.84,3.21,5,0,.35-7,1.34-13.91,1.93-20.87.28-3.25.44-6.51.68-9.76a27.06,27.06,0,0,0-.33-8.8c-.82-3.11-5.64-1.79-4.83,1.33Z"/><path class="cls-8" d="M1295.13,483.76a35.09,35.09,0,0,0-8.22,3.62,2.5,2.5,0,0,0,2.53,4.32c1.66-1,3.27-2.1,4.93-3.11.83-.51,1.67-1,2.54-1.46.43-.23.87-.45,1.31-.65l.34-.16.12-.05.13,0,.43-.17-1.93-4.57c-2.11,1-3.9,2.49-6,3.44a2.51,2.51,0,0,0-.9,3.42,2.57,2.57,0,0,0,3.42.9c2.12-.95,3.91-2.48,6-3.44a2.5,2.5,0,0,0-1.92-4.57c-4,1.51-7.38,4-11,6.15l2.53,4.32a16.91,16.91,0,0,1,1.7-1l.9-.44.42-.19c.1,0,.66-.33.09,0a31.54,31.54,0,0,1,3.91-1.44,2.5,2.5,0,0,0-1.33-4.82Z"/><path class="cls-8" d="M1285.6,480h0l.09-.66,0,0,.26-.6-.06.1.39-.5a1.84,1.84,0,0,1-.25.23l.51-.4a11.5,11.5,0,0,1-2,1.14c-.67.33-1.36.63-2,.94l3,3.92.09-.07-.51.39a2.08,2.08,0,0,1,.36-.2l-.6.26a8.11,8.11,0,0,1,1.07-.3,10.24,10.24,0,0,0,1.79-.62l-3-3.93a19.22,19.22,0,0,0-2,2.5l.39-.5a4.8,4.8,0,0,1-.76.8l.5-.39a2.34,2.34,0,0,1-.43.26l3,3.93.18-.15-.51.39c.52-.39,1-.75,1.56-1.15a5.8,5.8,0,0,0,1.38-1.62,2.6,2.6,0,0,0,.26-1.93,2.53,2.53,0,0,0-1.15-1.49,2.56,2.56,0,0,0-1.93-.26,2.6,2.6,0,0,0-1.49,1.15,3.62,3.62,0,0,1-.27.41l.39-.51a5.29,5.29,0,0,1-.8.77l.5-.39c-.55.42-1.14.78-1.66,1.24a2.52,2.52,0,0,0-.73,1.77,2.6,2.6,0,0,0,.54,1.52,2.38,2.38,0,0,0,1.3.89l.66.09a2.43,2.43,0,0,0,1.26-.34,4.57,4.57,0,0,0,1-.75,3.52,3.52,0,0,0,.53-.56c.48-.59.91-1.21,1.37-1.81l-.39.5a7.49,7.49,0,0,1,.76-.84,2.48,2.48,0,0,0,.73-1.76,2.6,2.6,0,0,0-.54-1.52,2.38,2.38,0,0,0-1.3-.89l-.66-.09a2.43,2.43,0,0,0-1.26.34l-.08,0,.59-.25a10.8,10.8,0,0,1-1.57.45,5.63,5.63,0,0,0-.9.31,4.38,4.38,0,0,0-1.26.79,2.52,2.52,0,0,0-.73,1.76,2.6,2.6,0,0,0,.54,1.52,2.4,2.4,0,0,0,1.3.9l.66.08a2.43,2.43,0,0,0,1.26-.34c.91-.4,1.81-.8,2.69-1.25a11.77,11.77,0,0,0,1.24-.72,6.86,6.86,0,0,0,.84-.67,3.55,3.55,0,0,0,.48-.62,2.79,2.79,0,0,0,.37-1.35,2.51,2.51,0,0,0-.73-1.77,2.57,2.57,0,0,0-1.77-.73,2.53,2.53,0,0,0-1.77.73l-.39.51a2.43,2.43,0,0,0-.34,1.26Z"/><path class="cls-8" d="M1344.17,499.94l0,0-.26-.59a3.63,3.63,0,0,1,.22.92l-.09-.66a28.64,28.64,0,0,1,0,4.9,2.6,2.6,0,0,0,.34,1.27,2.49,2.49,0,0,0,1.2,1,2.56,2.56,0,0,0,2.73-.52l.07-.06-.5.39a11.73,11.73,0,0,1,1.43-.81,6,6,0,0,0,2.15-2l-4.66-1.27a1.11,1.11,0,0,1,0,.19l.09-.66a.84.84,0,0,1-.08.31l.26-.59-.07.11.39-.51a.12.12,0,0,1-.05.05l.51-.39-.11.06.6-.25a3.45,3.45,0,0,0-1.29.73,2.94,2.94,0,0,0-.81,2,2.51,2.51,0,0,0,.73,1.77,2.51,2.51,0,0,0,3.54,0,2.81,2.81,0,0,0,.73-1.77v0l-.09.67,0-.11-.25.6,0-.05-.39.5,0,0-.51.39.07,0-.6.25a3.12,3.12,0,0,0,1.55-1.05,3.58,3.58,0,0,0,.7-2.13l-.09-.66a1.89,1.89,0,0,0-.45-.85,2.4,2.4,0,0,0-1.3-.9,2.59,2.59,0,0,0-2.82,1.15,2,2,0,0,1-.16.24l.39-.51a3.2,3.2,0,0,1-.52.52l.5-.4a9.54,9.54,0,0,1-1.18.72,6.43,6.43,0,0,0-1.4.93l4.27,1.76c.05-1.06.1-2.13.08-3.2,0-.54,0-1.07-.09-1.6s-.09-.84-.18-1.25a7.41,7.41,0,0,0-.4-1.08,2.51,2.51,0,0,0-3.42-.9,2.5,2.5,0,0,0-1.15,1.5l-.09.66a2.43,2.43,0,0,0,.34,1.26Z"/><path class="cls-8" d="M1336.7,488.94c1.55,2.3,1.52,4.81,1.37,7.55s-.48,5.67.26,8.45c.59,2.25,4.4,2.52,4.82,0a22.85,22.85,0,0,0-1.18-11.89c-1.32-3.54-3.1-6.85-4.22-10.46-1-3.07-5.78-1.76-4.82,1.33,2,6.6,6.57,12.57,5.4,19.69h4.82a12.27,12.27,0,0,1-.28-3.66c.05-1.47.19-2.94.25-4.41.11-3.17-.28-6.44-2.1-9.12a2.56,2.56,0,0,0-3.42-.9,2.52,2.52,0,0,0-.9,3.42Z"/><path class="cls-8" d="M1316.2,319.82a27.52,27.52,0,0,0-5,6.68,2.5,2.5,0,0,0,3.42,3.42,11,11,0,0,0,4.73-8.38,2.49,2.49,0,0,0-1.54-2.29,2.58,2.58,0,0,0-2.73.52c-2.36,1.88-3.76,4.77-4.75,7.56a46.82,46.82,0,0,0-1.91,8.17,2.57,2.57,0,0,0,1.75,3.08,2.53,2.53,0,0,0,3.07-1.75,48.06,48.06,0,0,1,1.78-7.77c.1-.3.2-.6.31-.89s.13-.32.19-.49-.16.37,0-.07c.28-.61.58-1.21.92-1.8.16-.28.34-.55.52-.82.08-.11.16-.21.23-.32-.33.5,0,0,.08-.08a9.46,9.46,0,0,1,1.32-1.29l-4.27-1.76a2.4,2.4,0,0,1,0,.37c.06-.36.06-.39,0-.1s-.11.51-.18.77-.17.52-.27.78c.21-.54-.09.16-.14.27s-.25.44-.39.65l-.24.36c.17-.22.16-.21,0,0s-.4.44-.61.64l-.34.3c.21-.16.2-.15,0,0l3.42,3.42c.62-1.1,1.29-2.17,2-3.2l.52-.71c-.24.31.33-.39.38-.45a17.28,17.28,0,0,1,1.25-1.32,2.51,2.51,0,0,0,0-3.53,2.54,2.54,0,0,0-3.53,0Z"/><path class="cls-8" d="M1286.28,333.12c.07.27.09,1,.07.17,0,.22,0,.44.05.66,0,.52,0,1.05,0,1.58-.07,1.16-.22,2.32-.3,3.49-.16,2.41,0,5.21,1.89,7a2.5,2.5,0,1,0,3.54-3.54l-.25-.25c-.29-.24.25.43.15.19,0-.09-.11-.17-.15-.25-.14-.26-.06-.39,0,.16,0-.2-.13-.4-.18-.6l-.06-.32a1.79,1.79,0,1,0,0,.2c0-.5-.07-1.06-.06-1.57s.06-1.08.1-1.62c.18-2.18.56-4.44,0-6.6a2.5,2.5,0,1,0-4.82,1.33Z"/><path class="cls-8" d="M1314.14,346.74a10,10,0,0,0,4,3.7l-1.24-2.16a12.3,12.3,0,0,0,.52,2.82l3.68-2.82c-2.66-1.77-5.62-3.79-8.83-4.34a6.33,6.33,0,0,0-4.06.32l-.54.27c-.41.21.28.09-.12.05,0,0,.79,0,.72.07s-.75-.84-.81-.91c-1.28-1.6-3.62-.47-4.18,1.1a18.43,18.43,0,0,0-.85,5.42l3.16-2.41a14.64,14.64,0,0,1-5-1.48,14.4,14.4,0,0,1-3.77-3.67c-1.58-2-4.87.18-4.18,2.43,1,3.4,3.51,5.8,5.19,8.83l3.93-3c-2-2.19-5-4.25-5.89-7.2s-5.77-1.76-4.82,1.33c1.22,3.93,4.48,6.49,7.17,9.4,2,2.13,5.29-.59,3.93-3-1.44-2.59-3.8-4.74-4.68-7.63l-4.18,2.44a17.44,17.44,0,0,0,4.77,4.45,17.64,17.64,0,0,0,6.17,2,2.55,2.55,0,0,0,3.17-2.41,13.84,13.84,0,0,1,.67-4.09l-4.18,1.1a5.06,5.06,0,0,0,4.11,2.26,5.25,5.25,0,0,0,2.07-.63c.11-.06.77-.41.23-.14.4-.2-.34-.11.17-.06a7.8,7.8,0,0,0,.79.11l.65.18a12.8,12.8,0,0,1,2.23.93,46.84,46.84,0,0,1,4.4,2.67c1.86,1.24,4.23-.8,3.67-2.82-.09-.33-.17-.67-.25-1,0,0-.16-.88-.08-.31a3.31,3.31,0,0,0-.35-1.43c-.71-1.22-2.38-1.5-3.06-2.8-1.49-2.86-5.8-.33-4.32,2.52Z"/><path class="cls-8" d="M1289.05,349.23a28.07,28.07,0,0,0,4.18,4.33,16.35,16.35,0,0,0,6.17,3.5,2.5,2.5,0,1,0,1.33-4.82l-.67-.2-.31-.12c-.4-.14.44.21.16.08-.44-.21-.87-.43-1.28-.67s-.86-.54-1.27-.84a3.15,3.15,0,0,1-.29-.22c-.36-.26.33.27.09.08s-.42-.34-.62-.52a27.55,27.55,0,0,1-4-4.13,2.52,2.52,0,0,0-1.77-.74,2.58,2.58,0,0,0-1.77.74,2.52,2.52,0,0,0-.73,1.76,2.92,2.92,0,0,0,.73,1.77Z"/><g class="cls-9"><path class="cls-8" d="M1539,320.14l-11.44-16.52a173.8,173.8,0,0,0-20.11-24.13L1501,273a10,10,0,0,0-14.14,0l-1.77,1.75a10,10,0,0,1-14.11,0l-14.15-14.11,46-45.94,14.11,14.14a10,10,0,0,1,0,14.11l-1.75,1.78a10,10,0,0,0,0,14.14l6.5,6.52a174.43,174.43,0,0,0,24.13,20.1l16.51,11.45A16.68,16.68,0,1,1,1539,320.14Zm0,0"/><path class="cls-10" d="M1564.55,322.45a17.35,17.35,0,0,0,2.23-2.77,16.68,16.68,0,0,1-22.73-4.53l-11.45-16.52a175.27,175.27,0,0,0-20.13-24.12L1506,268a10,10,0,0,0-14.14,0l-1.76,1.76a10,10,0,0,1-14.13,0l-14.14-14.14,40.94-40.93-45.94,45.93,14.14,14.13a10,10,0,0,0,14.13,0l1.76-1.77a10,10,0,0,1,14.14,0l6.51,6.52a174.56,174.56,0,0,1,20.13,24.12L1539,320.16a16.69,16.69,0,0,0,25.51,2.29Zm0,0"/></g><path class="cls-11" d="M1502.73,214.69l-30-30-28.27,28.26-7.06,7.07-10.6,10.6,30,30Zm0,0"/><path class="cls-12" d="M1431.77,225.57l30,30-5,5-30-30Zm0,0"/><path class="cls-11" d="M1554,316.84a5,5,0,1,1,5-5,5,5,0,0,1-5,5Zm0,0"/><path class="cls-12" d="M1439.14,218.21l22.66,22.65-3.53,3.54-22.66-22.66Zm0,0"/><path class="cls-13" d="M1446.21,211.14l17.66,17.66-3.53,3.54-17.66-17.67Zm0,0"/><g class="cls-14"><path class="cls-8" d="M1690.2,381.65a51.36,51.36,0,0,0,83.31-4c7.31-11.28.48-25.22-11.07-28.46A45.29,45.29,0,0,1,1731,317.76c-3.23-11.62-17.29-18.43-28.62-11-26.14,17-30.33,52.27-12.19,74.93"/><path class="cls-15" d="M1730.51,401.35a49.4,49.4,0,0,1-20.1-4.33,51.65,51.65,0,0,0,42.38-1.07,49.24,49.24,0,0,1-22.28,5.4M1683.69,371a49,49,0,0,1-.19-42.15,51.92,51.92,0,0,0,.19,42.15"/><path class="cls-8" d="M1730.38,401.05a51.26,51.26,0,0,1-20-4,54.25,54.25,0,0,1-26.72-26,51.92,51.92,0,0,1-.19-42.15q1.17-2.55,2.65-5.09l8-8a5.78,5.78,0,0,1,8.38.22,6,6,0,0,1-.45,8.14l-17.41,17.42a4.89,4.89,0,0,0,.2,7l.06,0,0,.06a5.14,5.14,0,0,0,3.68,1.58,4.62,4.62,0,0,0,3.33-1.38l16.6-16.59a5.73,5.73,0,0,1,4.07-1.69,5.8,5.8,0,0,1,4.3,1.9,6,6,0,0,1-.44,8.18l-15.61,15.61a5.07,5.07,0,0,0,0,7.19l0,.06.21.26a4.88,4.88,0,0,0,6.86,0l17.56-17.57a5.79,5.79,0,0,1,8.38.21,6,6,0,0,1-.48,8.16L1711,377.17a4.55,4.55,0,0,0,.21,6.65l.29.29a4.72,4.72,0,0,0,3.41,1.43,4.8,4.8,0,0,0,3.41-1.41l26.79-26.79a5.77,5.77,0,0,1,8.27,8l-22.85,22.85a6,6,0,0,0-.44,8.15,5.77,5.77,0,0,0,8.36.23l22.14-22.14a5.79,5.79,0,0,1,8.38.21,6,6,0,0,1-.45,8.14l-9.52,9.52a56.83,56.83,0,0,1-6.17,3.61,51.7,51.7,0,0,1-22.41,5.1"/></g><path class="cls-16" d="M1707.24,316.24a10,10,0,1,1-10,9.95,10,10,0,0,1,10-9.95Z"/><path class="cls-17" d="M1704.61,318.86a4.71,4.71,0,1,1-4.71,4.7,4.7,4.7,0,0,1,4.71-4.7Z"/><path class="cls-18" d="M1694.64,339.71a10,10,0,1,1-10,10,10,10,0,0,1,10-10Z"/><path class="cls-19" d="M1707.24,365.28a10,10,0,1,1-10,10,10,10,0,0,1,10-10Z"/><path class="cls-20" d="M1736.72,374.32a10,10,0,1,1-10,10,10,10,0,0,1,10-10Z"/><path class="cls-21" d="M1760.36,357.59a10,10,0,1,1-10,10,10,10,0,0,1,10-10Z"/><path class="cls-22" d="M1692.09,342a4.71,4.71,0,1,1-4.71,4.71,4.71,4.71,0,0,1,4.71-4.71Z"/><path class="cls-23" d="M1705.06,367.33a4.72,4.72,0,1,1-4.72,4.71,4.71,4.71,0,0,1,4.72-4.71Z"/><path class="cls-24" d="M1734,377.49a4.71,4.71,0,1,1-4.71,4.71,4.71,4.71,0,0,1,4.71-4.71Z"/><path class="cls-25" d="M1758.26,361.12a4.72,4.72,0,1,1-4.72,4.72,4.71,4.71,0,0,1,4.72-4.72Z"/><path class="cls-20" d="M1731.74,338.45a10.51,10.51,0,0,0-6.07,3c-6.83,6.83-.15,9-6.86,20,0,0,16.09-2.92,20-6.86a10.53,10.53,0,0,0,3-6.07l-10.1-10.1Z"/><path class="cls-26" d="M1738.84,354.61a10.5,10.5,0,0,0,3-6.07l-6.76-6.75c-1.68,1.14-4.37,3.53-4.37,7.27,0,5.42-11.9,12.41-11.9,12.41s16.09-2.91,20-6.86Z"/><g class="cls-14"><polygon class="cls-27" points="1772.78 303.49 1732.17 338.88 1741.4 348.11 1776.79 307.51 1772.78 303.49 1772.78 303.49"/><path class="cls-28" d="M1781.31,299a2.37,2.37,0,0,0-3.23-.11l-5.76,5,4.08,4.07,5-5.76a2.36,2.36,0,0,0-.11-3.22Z"/></g><path class="cls-28" d="M1743.82,346.69l-10.23-10.23a1.69,1.69,0,1,0-2.39,2.4l10.23,10.22a1.67,1.67,0,0,0,2.39,0,1.69,1.69,0,0,0,0-2.39Z"/><path class="cls-8" d="M1827.79,48.25H1660a6.21,6.21,0,0,0-6.22,6.21V157H1834V54.46a6.21,6.21,0,0,0-6.21-6.21Z"/><path class="cls-29" d="M1653.82,157v9.32a6.21,6.21,0,0,0,6.22,6.21h167.75a6.21,6.21,0,0,0,6.21-6.21V157Z"/><polygon class="cls-30" points="1768.76 197.36 1719.06 197.36 1722.17 172.51 1765.66 172.51 1768.76 197.36 1768.76 197.36"/><polygon class="cls-31" points="1766.43 178.72 1765.66 172.51 1722.17 172.51 1721.39 178.72 1766.43 178.72 1766.43 178.72"/><path class="cls-30" d="M1743.91,160.09a4.66,4.66,0,1,1-4.66,4.65,4.65,4.65,0,0,1,4.66-4.65Z"/><path class="cls-29" d="M1771.87,200.47H1716a3.1,3.1,0,0,1-3.1-3.11h0a3.1,3.1,0,0,1,3.1-3.1h55.92a3.1,3.1,0,0,1,3.11,3.1h0a3.11,3.11,0,0,1-3.11,3.11Z"/><path class="cls-13" d="M1823.13,147.66H1664.7a1.56,1.56,0,0,1-1.56-1.55v-87a1.56,1.56,0,0,1,1.56-1.55h158.43a1.55,1.55,0,0,1,1.55,1.55v87a1.55,1.55,0,0,1-1.55,1.55Z"/><path class="cls-32" d="M1615.36,259.35l13.33-5.53,2.37,5.71a2.05,2.05,0,0,1-1.11,2.69l-9.52,4a2.06,2.06,0,0,1-2.7-1.11Zm0,0"/><path class="cls-33" d="M1610.61,247.93l1.58,3.81,13.33-5.54-1.58-3.81c-2-4.76,6-12.52,1.22-23.94a17.52,17.52,0,0,0-32.37,13.44c4.35,10.47,15.84,11.28,17.82,16Zm0,0"/><path class="cls-34" d="M1613.8,228.74a3.1,3.1,0,0,0-1.66,4,3.1,3.1,0,1,0-.07,2.52l6.63,16,1.9-.79-6.63-16a3.09,3.09,0,1,0-.17-5.78Zm0,0"/><rect class="cls-35" x="1610.13" y="248.65" width="20.62" height="8.25" transform="translate(27.01 640.99) rotate(-22.56)"/><rect class="cls-32" x="1610.13" y="251.75" width="20.62" height="2.06" transform="translate(27.01 640.99) rotate(-22.56)"/><path class="cls-32" d="M1857.78,327.85l13.34,5.51-2.36,5.71a2,2,0,0,1-2.69,1.12l-9.53-3.93a2.08,2.08,0,0,1-1.12-2.7Zm0,0"/><path class="cls-33" d="M1862.51,316.41l-1.58,3.82,13.34,5.5,1.57-3.81c2-4.76,13.07-4.64,17.8-16.07a17.53,17.53,0,1,0-32.4-13.38c-4.33,10.48,3.23,19.18,1.27,23.94Zm0,0"/><path class="cls-34" d="M1878.33,305.1a2.79,2.79,0,1,1-5.15-2.05,3.09,3.09,0,1,0-.72,5.47l-6.6,16,1.91.79,6.59-16a3.13,3.13,0,0,0,2.32,1.71,3.1,3.1,0,0,0,1.65-5.92Zm0,0"/><rect class="cls-35" x="1861.9" y="316.48" width="8.25" height="20.62" transform="translate(851.65 1926.76) rotate(-67.56)"/><rect class="cls-32" x="1865" y="316.48" width="2.06" height="20.62" transform="matrix(0.38, -0.92, 0.92, 0.38, 851.65, 1926.76)"/><path class="cls-33" d="M1451.22,308.78a1.65,1.65,0,1,0,3.29,0v-1.64h1.65a1.65,1.65,0,0,0,0-3.3h-1.65v-1.65a1.65,1.65,0,0,0-3.29,0v1.65h-1.65a1.65,1.65,0,1,0,0,3.3h1.65Zm0,0"/><path class="cls-33" d="M1607.22,132.78a1.65,1.65,0,1,0,3.29,0v-1.64h1.65a1.65,1.65,0,0,0,0-3.3h-1.65v-1.65a1.65,1.65,0,0,0-3.29,0v1.65h-1.65a1.65,1.65,0,1,0,0,3.3h1.65Zm0,0"/><path class="cls-33" d="M1875.22,200.78a1.65,1.65,0,1,0,3.29,0v-1.64h1.65a1.65,1.65,0,0,0,0-3.3h-1.65v-1.65a1.65,1.65,0,0,0-3.29,0v1.65h-1.65a1.65,1.65,0,1,0,0,3.3h1.65Zm0,0"/><path class="cls-33" d="M1843.22,16.78a1.65,1.65,0,1,0,3.29,0V15.14h1.65a1.65,1.65,0,0,0,0-3.3h-1.65V10.19a1.65,1.65,0,0,0-3.29,0v1.65h-1.65a1.65,1.65,0,1,0,0,3.3h1.65Zm0,0"/><path class="cls-33" d="M1661.22,324.78a1.65,1.65,0,1,0,3.29,0v-1.64h1.65a1.65,1.65,0,0,0,0-3.3h-1.65v-1.65a1.65,1.65,0,0,0-3.29,0v1.65h-1.65a1.65,1.65,0,1,0,0,3.3h1.65Zm0,0"/><path class="cls-33" d="M1830.22,429.78a1.65,1.65,0,1,0,3.29,0v-1.64h1.65a1.65,1.65,0,0,0,0-3.3h-1.65v-1.65a1.65,1.65,0,0,0-3.29,0v1.65h-1.65a1.65,1.65,0,1,0,0,3.3h1.65Zm0,0"/><path class="cls-36" d="M1595.23,717.5a63.63,63.63,0,1,1,55.17,71.08A63.64,63.64,0,0,1,1595.23,717.5Z"/><path class="cls-36" d="M1124.92,207.68a29.17,29.17,0,1,1,25.29,32.59A29.17,29.17,0,0,1,1124.92,207.68Z"/><path class="cls-36" d="M-29.08,1016.68A29.17,29.17,0,0,1,3.51,991.39,29.17,29.17,0,0,1,28.81,1024a29.18,29.18,0,0,1-32.6,25.29A29.17,29.17,0,0,1-29.08,1016.68Z"/><path class="cls-37" d="M1451.64,790.6a36.53,36.53,0,1,1-51.14,7.32A36.53,36.53,0,0,1,1451.64,790.6Z"/><path class="cls-38" d="M1568.43,1053.57a24.68,24.68,0,1,1-34.56,4.94A24.68,24.68,0,0,1,1568.43,1053.57Z"/><path class="cls-38" d="M68.43,270.57a24.68,24.68,0,1,1-34.56,4.94A24.68,24.68,0,0,1,68.43,270.57Z"/><path class="cls-38" d="M1328.54-4.09a35,35,0,1,1-49,7A35,35,0,0,1,1328.54-4.09Z"/><path class="cls-37" d="M1926.64,961.6a36.53,36.53,0,1,1-51.14,7.32A36.53,36.53,0,0,1,1926.64,961.6Z"/><path class="cls-37" d="M167.64,725.6a36.53,36.53,0,1,1-51.14,7.32A36.53,36.53,0,0,1,167.64,725.6Z"/></svg>