<?xml version="1.0" encoding="utf-8"?>
<!-- Generator: Adobe Illustrator 22.0.0, SVG Export Plug-In . SVG Version: 6.00 Build 0)  -->
<svg version="1.1" id="圖層_1" xmlns="http://www.w3.org/2000/svg" xmlns:xlink="http://www.w3.org/1999/xlink" x="0px" y="0px"
	 viewBox="0 0 329.9 259.3" style="enable-background:new 0 0 329.9 259.3;" xml:space="preserve">
<style type="text/css">
	.st0{fill:url(#SVGID_1_);}
	.st1{fill:url(#SVGID_2_);}
	.st2{fill:url(#SVGID_3_);}
	.st3{fill:url(#SVGID_4_);}
	.st4{fill:url(#SVGID_5_);}
	.st5{fill:url(#SVGID_6_);}
	.st6{fill:url(#SVGID_7_);}
	.st7{fill:url(#SVGID_8_);}
	.st8{fill:url(#SVGID_9_);}
	.st9{fill:url(#SVGID_10_);}
	.st10{fill:url(#SVGID_11_);}
	.st11{fill:url(#SVGID_12_);}
	.st12{fill:url(#SVGID_13_);}
	.st13{fill:url(#SVGID_14_);}
</style>
<g>
	
		<linearGradient id="SVGID_1_" gradientUnits="userSpaceOnUse" x1="121.7338" y1="93.7152" x2="149.9261" y2="93.7152" gradientTransform="matrix(1 -3.200000e-03 3.200000e-03 1 -0.221 -2.383)">
		<stop  offset="7.947270e-03" style="stop-color:#98B5D4"/>
		<stop  offset="7.468811e-02" style="stop-color:#98B2D2"/>
		<stop  offset="0.1586" style="stop-color:#99A8CC"/>
		<stop  offset="0.2518" style="stop-color:#9997C2"/>
		<stop  offset="0.3509" style="stop-color:#9A81B5"/>
		<stop  offset="0.3559" style="stop-color:#9A80B4"/>
		<stop  offset="0.6925" style="stop-color:#F48DA1"/>
	</linearGradient>
	<path class="st0" d="M123.3,78c0,0-3.5,3.2,0,5.1c3.5,1.8,14.8,9.6,14.3,17.4c-0.5,7.8,12.8,5,12.4-4.2
		C149.6,87.1,131.2,72.5,123.3,78z"/>
	
		<linearGradient id="SVGID_2_" gradientUnits="userSpaceOnUse" x1="155.5131" y1="89.3004" x2="180.1673" y2="89.3004" gradientTransform="matrix(1 -3.200000e-03 3.200000e-03 1 -0.221 -2.383)">
		<stop  offset="7.947270e-03" style="stop-color:#98B5D4"/>
		<stop  offset="7.468811e-02" style="stop-color:#98B2D2"/>
		<stop  offset="0.1586" style="stop-color:#99A8CC"/>
		<stop  offset="0.2518" style="stop-color:#9997C2"/>
		<stop  offset="0.3509" style="stop-color:#9A81B5"/>
		<stop  offset="0.3559" style="stop-color:#9A80B4"/>
		<stop  offset="0.6925" style="stop-color:#F48DA1"/>
	</linearGradient>
	<path class="st1" d="M167.6,93c0,0,6.7,15.1,11.8,2.7c5-12.4-13-25.6-20.8-23.3C150.7,74.7,159.8,83,167.6,93z"/>
	
		<linearGradient id="SVGID_3_" gradientUnits="userSpaceOnUse" x1="192.7564" y1="82.1767" x2="214.8266" y2="82.1767" gradientTransform="matrix(1 -3.200000e-03 3.200000e-03 1 -0.221 -2.383)">
		<stop  offset="7.947270e-03" style="stop-color:#98B5D4"/>
		<stop  offset="7.468811e-02" style="stop-color:#98B2D2"/>
		<stop  offset="0.1586" style="stop-color:#99A8CC"/>
		<stop  offset="0.2518" style="stop-color:#9997C2"/>
		<stop  offset="0.3509" style="stop-color:#9A81B5"/>
		<stop  offset="0.3559" style="stop-color:#9A80B4"/>
		<stop  offset="0.6925" style="stop-color:#F48DA1"/>
	</linearGradient>
	<path class="st2" d="M200.8,76.6c0,0,3.5-8,1.5-13.9c-2-6,1.9-7.8,9.4-1.9c7.5,5.9,6.5,20.6-14,39.8c-2.3,0.9-7.3,1.6-3.5-3.2
		C198,92.5,199.4,81,200.8,76.6z"/>
	
		<linearGradient id="SVGID_4_" gradientUnits="userSpaceOnUse" x1="125.4333" y1="43.9087" x2="187.8551" y2="43.9087" gradientTransform="matrix(1 -3.200000e-03 3.200000e-03 1 -0.221 -2.383)">
		<stop  offset="7.947270e-03" style="stop-color:#98B5D4"/>
		<stop  offset="7.468811e-02" style="stop-color:#98B2D2"/>
		<stop  offset="0.1586" style="stop-color:#99A8CC"/>
		<stop  offset="0.2518" style="stop-color:#9997C2"/>
		<stop  offset="0.3509" style="stop-color:#9A81B5"/>
		<stop  offset="0.3559" style="stop-color:#9A80B4"/>
		<stop  offset="0.6925" style="stop-color:#F48DA1"/>
	</linearGradient>
	<path class="st3" d="M137.5,61c0,0-11.8-0.3-12.1-8.9c-0.3-8.6,2.3-10,16.1-8.7c13.8,1.3,29.1-0.9,32-11.7
		c2.9-10.8,2.9-10.8,2.9-10.8s12.9,4.4,11.2,16.1C185.9,48.8,178,61.6,137.5,61z"/>
	
		<linearGradient id="SVGID_5_" gradientUnits="userSpaceOnUse" x1="95.5885" y1="139.1118" x2="229.6344" y2="139.1118" gradientTransform="matrix(1 -3.200000e-03 3.200000e-03 1 -0.221 -2.383)">
		<stop  offset="7.947270e-03" style="stop-color:#98B5D4"/>
		<stop  offset="7.468811e-02" style="stop-color:#98B2D2"/>
		<stop  offset="0.1586" style="stop-color:#99A8CC"/>
		<stop  offset="0.2518" style="stop-color:#9997C2"/>
		<stop  offset="0.3509" style="stop-color:#9A81B5"/>
		<stop  offset="0.3559" style="stop-color:#9A80B4"/>
		<stop  offset="0.6925" style="stop-color:#F48DA1"/>
	</linearGradient>
	<path class="st4" d="M101.4,150c0,0-4.2,0.7-5,1.9c-1.4,2.1-0.2,4.2,6,5.1c12.7,1.9,99.1-23,107.8-26.9c10.7-3.9,20.1-5.5,19.6-8.6
		c-0.4-3.1-10.2-9.5-16.4-4.7c-6.2,4.8-9.1,10.4-19,13.9C184.6,134.3,102.6,148.5,101.4,150z"/>
	
		<linearGradient id="SVGID_6_" gradientUnits="userSpaceOnUse" x1="162.4209" y1="179.5757" x2="187.3388" y2="179.5757" gradientTransform="matrix(1 -3.200000e-03 3.200000e-03 1 -0.221 -2.383)">
		<stop  offset="7.947270e-03" style="stop-color:#98B5D4"/>
		<stop  offset="7.122259e-02" style="stop-color:#98B2D2"/>
		<stop  offset="0.1508" style="stop-color:#99A8CC"/>
		<stop  offset="0.2391" style="stop-color:#9997C2"/>
		<stop  offset="0.3331" style="stop-color:#9A81B5"/>
		<stop  offset="0.3379" style="stop-color:#9A80B4"/>
		<stop  offset="0.8351" style="stop-color:#F48DA1"/>
	</linearGradient>
	<path class="st5" d="M162.9,115.9c0,0,18.2-13.4,21.1,13.9c2.9,27.3,3.8,98.1,3.8,98.1s-4.5,7.6-9.1,10.4c-6.9,4.2-15,3.4-15.4-5
		C162.5,219.3,162.9,115.9,162.9,115.9z"/>
	
		<linearGradient id="SVGID_7_" gradientUnits="userSpaceOnUse" x1="109.2438" y1="191.0826" x2="150.3793" y2="191.0826" gradientTransform="matrix(1 -3.200000e-03 3.200000e-03 1 -0.221 -2.383)">
		<stop  offset="7.947270e-03" style="stop-color:#98B5D4"/>
		<stop  offset="7.468811e-02" style="stop-color:#98B2D2"/>
		<stop  offset="0.1586" style="stop-color:#99A8CC"/>
		<stop  offset="0.2518" style="stop-color:#9997C2"/>
		<stop  offset="0.3509" style="stop-color:#9A81B5"/>
		<stop  offset="0.3559" style="stop-color:#9A80B4"/>
		<stop  offset="0.6925" style="stop-color:#F48DA1"/>
	</linearGradient>
	<path class="st6" d="M147,190.6c0,0-10.2,20.2-30.2,8.4c-20-11.9,7.4-13.1,19.1-22.2C147.6,167.7,156,182.1,147,190.6"/>
	
		<linearGradient id="SVGID_8_" gradientUnits="userSpaceOnUse" x1="248.6513" y1="58.4423" x2="289.7865" y2="58.4423" gradientTransform="matrix(1 -3.200000e-03 3.200000e-03 1 -0.221 -2.383)">
		<stop  offset="7.947270e-03" style="stop-color:#98B5D4"/>
		<stop  offset="7.468811e-02" style="stop-color:#98B2D2"/>
		<stop  offset="0.1586" style="stop-color:#99A8CC"/>
		<stop  offset="0.2518" style="stop-color:#9997C2"/>
		<stop  offset="0.3509" style="stop-color:#9A81B5"/>
		<stop  offset="0.3559" style="stop-color:#9A80B4"/>
		<stop  offset="0.6925" style="stop-color:#F48DA1"/>
	</linearGradient>
	<path class="st7" d="M286,57.5c0,0-10.2,20.2-30.2,8.4c-20-11.9,7.4-13.1,19.1-22.2C286.5,34.6,294.9,49,286,57.5"/>
	
		<linearGradient id="SVGID_9_" gradientUnits="userSpaceOnUse" x1="242.9206" y1="125.1272" x2="297.7319" y2="125.1272" gradientTransform="matrix(1 -3.200000e-03 3.200000e-03 1 -0.221 -2.383)">
		<stop  offset="7.947270e-03" style="stop-color:#98B5D4"/>
		<stop  offset="7.468811e-02" style="stop-color:#98B2D2"/>
		<stop  offset="0.1586" style="stop-color:#99A8CC"/>
		<stop  offset="0.2518" style="stop-color:#9997C2"/>
		<stop  offset="0.3509" style="stop-color:#9A81B5"/>
		<stop  offset="0.3559" style="stop-color:#9A80B4"/>
		<stop  offset="0.6925" style="stop-color:#F48DA1"/>
	</linearGradient>
	<path class="st8" d="M292.4,123.5c0,0-28.3,26.4-45.8,6.9c-9.4-10.5,1.7-11.1,14.7-13.8c8.5-1.8,17.6-6.2,22.8-8.8
		C297.3,101.1,302.9,116.8,292.4,123.5"/>
	
		<linearGradient id="SVGID_10_" gradientUnits="userSpaceOnUse" x1="227.0707" y1="204.3865" x2="313.5823" y2="204.3865" gradientTransform="matrix(1 -3.200000e-03 3.200000e-03 1 -0.221 -2.383)">
		<stop  offset="7.947270e-03" style="stop-color:#98B5D4"/>
		<stop  offset="7.468811e-02" style="stop-color:#98B2D2"/>
		<stop  offset="0.1586" style="stop-color:#99A8CC"/>
		<stop  offset="0.2518" style="stop-color:#9997C2"/>
		<stop  offset="0.3509" style="stop-color:#9A81B5"/>
		<stop  offset="0.3559" style="stop-color:#9A80B4"/>
		<stop  offset="0.6925" style="stop-color:#F48DA1"/>
	</linearGradient>
	<path class="st9" d="M309.9,185.3c0,0-52.6,78.4-81.7,36.7c-5.2-7.5,21.8-12,38.2-24.3c7.6-5.8,27.2-19.7,32.1-24.6
		C310.8,160.7,319.4,173.7,309.9,185.3"/>
	
		<linearGradient id="SVGID_11_" gradientUnits="userSpaceOnUse" x1="207.9157" y1="169.2937" x2="232.8768" y2="169.2937" gradientTransform="matrix(1 -3.200000e-03 3.200000e-03 1 -0.221 -2.383)">
		<stop  offset="7.947270e-03" style="stop-color:#98B5D4"/>
		<stop  offset="7.468811e-02" style="stop-color:#98B2D2"/>
		<stop  offset="0.1586" style="stop-color:#99A8CC"/>
		<stop  offset="0.2518" style="stop-color:#9997C2"/>
		<stop  offset="0.3509" style="stop-color:#9A81B5"/>
		<stop  offset="0.3559" style="stop-color:#9A80B4"/>
		<stop  offset="0.6925" style="stop-color:#F48DA1"/>
	</linearGradient>
	<path class="st10" d="M210.1,151.3c0,0,2.1,8,14.3,5.3c12.2-2.7,10.9,12.2,1,21.7C215.6,187.8,203.5,171.5,210.1,151.3z"/>
	
		<linearGradient id="SVGID_12_" gradientUnits="userSpaceOnUse" x1="31.0635" y1="150.2601" x2="84.9334" y2="148.3288" gradientTransform="matrix(1 4.100000e-03 -4.100000e-03 1 1.4761 -7.9653)">
		<stop  offset="7.947270e-03" style="stop-color:#98B5D4"/>
		<stop  offset="0.1011" style="stop-color:#98B2D2"/>
		<stop  offset="0.2182" style="stop-color:#99A8CC"/>
		<stop  offset="0.3482" style="stop-color:#9997C2"/>
		<stop  offset="0.4866" style="stop-color:#9A81B5"/>
		<stop  offset="0.4936" style="stop-color:#9A80B4"/>
		<stop  offset="0.8391" style="stop-color:#F48DA1"/>
	</linearGradient>
	<path class="st11" d="M31.6,214.1c0,0,20,22.2,29.3,20.9c3.7,0.2,15.1,0.6,21.4-16.2c6.3-16.8,1.8-69.4,2.1-70.3
		c0.2-0.9-2.2-71.8-2.2-71.8S81.2,59,72.5,52.3c-8.7-6.7-18.4-6.4-16.8,5.3c1.6,11.7,3.4,11.6,3.4,16.7c0,5,4.1,113.2,4.1,117.9
		c0,4.7,2.3,14.8-8.5,17.7C44,212.8,31.6,214.1,31.6,214.1z"/>
	
		<linearGradient id="SVGID_13_" gradientUnits="userSpaceOnUse" x1="36.5445" y1="108.5142" x2="97.6325" y2="108.5142" gradientTransform="matrix(1 4.100000e-03 -4.100000e-03 1 1.4759 -7.9654)">
		<stop  offset="7.947270e-03" style="stop-color:#98B5D4"/>
		<stop  offset="7.468811e-02" style="stop-color:#98B2D2"/>
		<stop  offset="0.1586" style="stop-color:#99A8CC"/>
		<stop  offset="0.2518" style="stop-color:#9997C2"/>
		<stop  offset="0.3509" style="stop-color:#9A81B5"/>
		<stop  offset="0.3559" style="stop-color:#9A80B4"/>
		<stop  offset="0.6925" style="stop-color:#F48DA1"/>
	</linearGradient>
	<path class="st12" d="M37.7,106.1c0,0-1.1,3.6,3.8,3.7c4.9,0.1,30.5-3.1,50.1-9.9c7.9-2.8,8.4-2.8,5.6-5.7
		c-2.8-2.9-3.3-2.9-5.2-1.5c-1.9,1.4-0.2,7.9-31,10.4C61,103,38.2,104.6,37.7,106.1z"/>
	
		<linearGradient id="SVGID_14_" gradientUnits="userSpaceOnUse" x1="29.9518" y1="159.8052" x2="98.6636" y2="159.8052" gradientTransform="matrix(1 4.100000e-03 -4.100000e-03 1 1.4759 -7.9654)">
		<stop  offset="7.947270e-03" style="stop-color:#98B5D4"/>
		<stop  offset="7.468811e-02" style="stop-color:#98B2D2"/>
		<stop  offset="0.1586" style="stop-color:#99A8CC"/>
		<stop  offset="0.2518" style="stop-color:#9997C2"/>
		<stop  offset="0.3509" style="stop-color:#9A81B5"/>
		<stop  offset="0.3559" style="stop-color:#9A80B4"/>
		<stop  offset="0.6925" style="stop-color:#F48DA1"/>
	</linearGradient>
	<path class="st13" d="M89.8,135.7c0.5-0.1,9.3-3.4,9.7-2.3c0.3,1.1,0.9,5.2-12,13.4c-12.9,8.2-28.3,24.9-47.3,24.3
		c-3-0.3-12.7-3.1-8.3-12.3c1.5-1.9,0.8-2.3,11.3-6.8C53.7,147.6,89.8,135.7,89.8,135.7z"/>
</g>
</svg>
